<?xml version="1.0" encoding="utf-8"?>
<!-- Generator: Adobe Illustrator 19.0.0, SVG Export Plug-In . SVG Version: 6.00 Build 0)  -->
<svg version="1.1" id="Layer_1" xmlns="http://www.w3.org/2000/svg" xmlns:xlink="http://www.w3.org/1999/xlink" x="0px" y="0px"
	 viewBox="0 0 122 48" style="enable-background:new 0 0 122 48;" xml:space="preserve">
<style type="text/css">
	.st0{fill:#FF8DBE;}
	.st1{fill:#FFB098;}
	.st2{fill:#FFE67A;}
	.st3{fill:#00C1AB;}
	.st4{fill:#6E9FDE;}
	.st5{fill:#9585D8;}
</style>
<g id="XMLID_48_">
	<path id="XMLID_49_" d="M5.5,16.6c-3.3,0-3.3-4.9,0-4.9h9.9c1.6,0,2.8,1.3,2.8,2.8v17.2c0,3.8-5.6,3.8-5.6,0v-15H5.5z"/>
	<path id="XMLID_51_" d="M23.8,16.3c-3.1,0.2-3.5-4.4-0.4-4.7l5.4-0.4H29c4.6,0,7.2,3.1,7.2,6.2l0,9.7c0,0.7,0,1.5,0.2,2.2
		c2.6,0.6,2.4,4.9-0.6,4.9H22.8c-3.3,0-3.3-4.9,0-4.9h8.5c-0.4-0.7-0.7-1.3-0.7-2.1l0-9.8c0-0.7-0.7-1.2-1.7-1.2L23.8,16.3z"/>
	<path id="XMLID_53_" d="M46,31.6c0,3.8-5.6,3.8-5.6,0V14.4c0-1.5,1.2-2.7,2.7-2.8l7.8-0.4h0c5.7-0.2,8.6,3.6,8.5,6.7v13.7
		c0,3.8-5.6,3.8-5.6,0V17.9v0c0-0.9-1.2-1.6-2.5-1.6c0,0-0.1,0-0.1,0l-5.1,0V31.6z"/>
	<path id="XMLID_55_" d="M61.4,8.8C61.4,5,67,5,67,8.8v2.8h8.8c1.6,0,2.8,1.3,2.8,2.8V17c0,0.5,0,0.8-0.3,1.2l-5.2,9.9
		c0.5-1,0.4-0.8-0.2,0.5l-0.5,0.9c0.2-0.3,0.3-0.6,0.4-0.8c-0.1,0.3-0.3,0.5-0.4,0.9c-0.3,0.6-0.4,1.2-0.4,2.1c0,3.3-5,3.3-5,0
		c0-1.8,0.4-3.1,0.9-4.2L73,17l0.3-0.5h-9.1c-1.6,0-2.8-1.3-2.8-2.8V8.8z M73.1,28.1l-0.2,0.5c0,0,0,0.1,0,0.1
		C72.9,28.4,73,28.3,73.1,28.1z"/>
	<path id="XMLID_58_" d="M107.6,16.5c0,0.2-0.1,0.3-0.2,0.5c-0.4,0.6-0.8,0.8-0.8,2.9v11.7c0,3.7-5.5,3.8-5.6,0l0-11.7
		c0-2.1,1-2.9,2.1-3.3h-8.5c-3.3,0-3.3-4.9,0-4.9h12.9C110.6,11.6,110.7,16.3,107.6,16.5z"/>
	<path id="XMLID_60_" d="M112,14.2c0-3.8,5.6-3.8,5.6,0V22c0,3.8-5.6,3.8-5.6,0V14.2z"/>
</g>
<g id="XMLID_34_">
	<path id="XMLID_35_" d="M5.5,16.6c-3.3,0-3.3-4.9,0-4.9h9.9c1.6,0,2.8,1.3,2.8,2.8v17.2c0,3.8-5.6,3.8-5.6,0v-15H5.5z"/>
	<path id="XMLID_37_" d="M23.8,16.3c-3.1,0.2-3.5-4.4-0.4-4.7l5.4-0.4H29c4.6,0,7.2,3.1,7.2,6.2l0,9.7c0,0.7,0,1.5,0.2,2.2
		c2.6,0.6,2.4,4.9-0.6,4.9H22.8c-3.3,0-3.3-4.9,0-4.9h8.5c-0.4-0.7-0.7-1.3-0.7-2.1l0-9.8c0-0.7-0.7-1.2-1.7-1.2L23.8,16.3z"/>
	<path id="XMLID_39_" d="M46,31.6c0,3.8-5.6,3.8-5.6,0V14.4c0-1.5,1.2-2.7,2.7-2.8l7.8-0.4h0c5.7-0.2,8.6,3.6,8.5,6.7v13.7
		c0,3.8-5.6,3.8-5.6,0V17.9v0c0-0.9-1.2-1.6-2.5-1.6c0,0-0.1,0-0.1,0l-5.1,0V31.6z"/>
	<path id="XMLID_41_" d="M61.4,8.8C61.4,5,67,5,67,8.8v2.8h8.8c1.6,0,2.8,1.3,2.8,2.8V17c0,0.5,0,0.8-0.3,1.2l-5.2,9.9
		c0.5-1,0.4-0.8-0.2,0.5l-0.5,0.9c0.2-0.3,0.3-0.6,0.4-0.8c-0.1,0.3-0.3,0.5-0.4,0.9c-0.3,0.6-0.4,1.2-0.4,2.1c0,3.3-5,3.3-5,0
		c0-1.8,0.4-3.1,0.9-4.2L73,17l0.3-0.5h-9.1c-1.6,0-2.8-1.3-2.8-2.8V8.8z M73.1,28.1l-0.2,0.5c0,0,0,0.1,0,0.1
		C72.9,28.4,73,28.3,73.1,28.1z"/>
	<path id="XMLID_44_" d="M107.6,16.5c0,0.2-0.1,0.3-0.2,0.5c-0.4,0.6-0.8,0.8-0.8,2.9v11.7c0,3.7-5.5,3.8-5.6,0l0-11.7
		c0-2.1,1-2.9,2.1-3.3h-8.5c-3.3,0-3.3-4.9,0-4.9h12.9C110.6,11.6,110.7,16.3,107.6,16.5z"/>
	<path id="XMLID_46_" d="M112,14.2c0-3.8,5.6-3.8,5.6,0V22c0,3.8-5.6,3.8-5.6,0V14.2z"/>
</g>
<g id="XMLID_1_">
	<path id="XMLID_5_" d="M5.5,16.6c-3.3,0-3.3-4.9,0-4.9h9.9c1.6,0,2.8,1.3,2.8,2.8v17.2c0,3.8-5.6,3.8-5.6,0v-15H5.5z"/>
	<path id="XMLID_11_" d="M23.8,16.3c-3.1,0.2-3.5-4.4-0.4-4.7l5.4-0.4H29c4.6,0,7.2,3.1,7.2,6.2l0,9.7c0,0.7,0,1.5,0.2,2.2
		c2.6,0.6,2.4,4.9-0.6,4.9H22.8c-3.3,0-3.3-4.9,0-4.9h8.5c-0.4-0.7-0.7-1.3-0.7-2.1l0-9.8c0-0.7-0.7-1.2-1.7-1.2L23.8,16.3z"/>
	<path id="XMLID_13_" d="M46,31.6c0,3.8-5.6,3.8-5.6,0V14.4c0-1.5,1.2-2.7,2.7-2.8l7.8-0.4h0c5.7-0.2,8.6,3.6,8.5,6.7v13.7
		c0,3.8-5.6,3.8-5.6,0V17.9v0c0-0.9-1.2-1.6-2.5-1.6c0,0-0.1,0-0.1,0l-5.1,0V31.6z"/>
	<path id="XMLID_15_" d="M61.4,8.8C61.4,5,67,5,67,8.8v2.8h8.8c1.6,0,2.8,1.3,2.8,2.8V17c0,0.5,0,0.8-0.3,1.2l-5.2,9.9
		c0.5-1,0.4-0.8-0.2,0.5l-0.5,0.9c0.2-0.3,0.3-0.6,0.4-0.8c-0.1,0.3-0.3,0.5-0.4,0.9c-0.3,0.6-0.4,1.2-0.4,2.1c0,3.3-5,3.3-5,0
		c0-1.8,0.4-3.1,0.9-4.2L73,17l0.3-0.5h-9.1c-1.6,0-2.8-1.3-2.8-2.8V8.8z M73.1,28.1l-0.2,0.5c0,0,0,0.1,0,0.1
		C72.9,28.4,73,28.3,73.1,28.1z"/>
	<path id="XMLID_30_" d="M107.6,16.5c0,0.2-0.1,0.3-0.2,0.5c-0.4,0.6-0.8,0.8-0.8,2.9v11.7c0,3.7-5.5,3.8-5.6,0l0-11.7
		c0-2.1,1-2.9,2.1-3.3h-8.5c-3.3,0-3.3-4.9,0-4.9h12.9C110.6,11.6,110.7,16.3,107.6,16.5z"/>
	<path id="XMLID_32_" d="M112,14.2c0-3.8,5.6-3.8,5.6,0V22c0,3.8-5.6,3.8-5.6,0V14.2z"/>
</g>
<path id="XMLID_2_" class="st0" d="M19.6,44.7H8.2c-1.4,0-2.5-1.1-2.5-2.5v0c0-1.4,1.1-2.5,2.5-2.5h11.4c1.4,0,2.5,1.1,2.5,2.5v0
	C22.2,43.6,21,44.7,19.6,44.7z"/>
<path id="XMLID_4_" class="st1" d="M38.6,44.7H27.2c-1.4,0-2.5-1.1-2.5-2.5v0c0-1.4,1.1-2.5,2.5-2.5h11.4c1.4,0,2.5,1.1,2.5,2.5v0
	C41.2,43.6,40,44.7,38.6,44.7z"/>
<path id="XMLID_6_" class="st2" d="M58,44.7H46.5c-1.4,0-2.5-1.1-2.5-2.5v0c0-1.4,1.1-2.5,2.5-2.5H58c1.4,0,2.5,1.1,2.5,2.5v0
	C60.5,43.6,59.4,44.7,58,44.7z"/>
<path id="XMLID_9_" class="st3" d="M77.1,44.7H65.7c-1.4,0-2.5-1.1-2.5-2.5v0c0-1.4,1.1-2.5,2.5-2.5h11.4c1.4,0,2.5,1.1,2.5,2.5v0
	C79.7,43.6,78.5,44.7,77.1,44.7z"/>
<path id="XMLID_8_" class="st4" d="M96.1,44.7H84.7c-1.4,0-2.5-1.1-2.5-2.5v0c0-1.4,1.1-2.5,2.5-2.5h11.4c1.4,0,2.5,1.1,2.5,2.5v0
	C98.7,43.6,97.5,44.7,96.1,44.7z"/>
<path id="XMLID_7_" class="st5" d="M115.5,44.7H104c-1.4,0-2.5-1.1-2.5-2.5v0c0-1.4,1.1-2.5,2.5-2.5h11.4c1.4,0,2.5,1.1,2.5,2.5v0
	C118,43.6,116.9,44.7,115.5,44.7z"/>
</svg>
