<?xml version="1.0" encoding="utf-8"?>
<!-- Generator: Adobe Illustrator 19.0.0, SVG Export Plug-In . SVG Version: 6.00 Build 0)  -->
<svg version="1.1" id="Layer_1" xmlns="http://www.w3.org/2000/svg" xmlns:xlink="http://www.w3.org/1999/xlink" x="0px" y="0px"
	 viewBox="0 0 122 95.7" style="enable-background:new 0 0 122 95.7;" xml:space="preserve">
<style type="text/css">
	.st0{fill:#FF8DBE;}
	.st1{fill:#FFB098;}
	.st2{fill:#FFE67A;}
	.st3{fill:#00C1AB;}
	.st4{fill:#6E9FDE;}
	.st5{fill:#9585D8;}
</style>
<g id="XMLID_62_">
	<path id="XMLID_63_" d="M5.5,64.2c-3.3,0-3.3-4.9,0-4.9h9.9c1.6,0,2.8,1.3,2.8,2.8v17.2c0,3.8-5.6,3.8-5.6,0v-15H5.5z"/>
	<path id="XMLID_65_" d="M23.8,63.9c-3.1,0.2-3.5-4.4-0.4-4.7l5.4-0.4H29c4.6,0,7.2,3.1,7.2,6.2l0,9.7c0,0.7,0,1.5,0.2,2.2
		c2.6,0.6,2.4,4.9-0.6,4.9H22.8c-3.3,0-3.3-4.9,0-4.9h8.5c-0.4-0.7-0.7-1.3-0.7-2.1l0-9.8c0-0.7-0.7-1.2-1.7-1.2L23.8,63.9z"/>
	<path id="XMLID_67_" d="M46,79.3c0,3.8-5.6,3.8-5.6,0V62.1c0-1.5,1.2-2.7,2.7-2.8l7.8-0.4h0c5.7-0.2,8.6,3.6,8.5,6.7v13.7
		c0,3.8-5.6,3.8-5.6,0V65.5v0c0-0.9-1.2-1.6-2.5-1.6c0,0-0.1,0-0.1,0l-5.1,0V79.3z"/>
	<path id="XMLID_69_" d="M61.4,56.5c0-3.8,5.6-3.8,5.6,0v2.8h8.8c1.6,0,2.8,1.3,2.8,2.8v2.6c0,0.5,0,0.8-0.3,1.2l-5.2,9.9
		c0.5-1,0.4-0.8-0.2,0.5l-0.5,0.9c0.2-0.3,0.3-0.6,0.4-0.8c-0.1,0.3-0.3,0.5-0.4,0.9c-0.3,0.6-0.4,1.2-0.4,2.1c0,3.3-5,3.3-5,0
		c0-1.8,0.4-3.1,0.9-4.2L73,64.7l0.3-0.5h-9.1c-1.6,0-2.8-1.3-2.8-2.8V56.5z M73.1,75.8l-0.2,0.5c0,0,0,0.1,0,0.1
		C72.9,76.1,73,75.9,73.1,75.8z"/>
	<path id="XMLID_72_" d="M107.6,64.2c0,0.2-0.1,0.3-0.2,0.5c-0.4,0.6-0.8,0.8-0.8,2.9v11.7c0,3.7-5.5,3.8-5.6,0l0-11.7
		c0-2.1,1-2.9,2.1-3.3h-8.5c-3.3,0-3.3-4.9,0-4.9h12.9C110.6,59.3,110.7,64,107.6,64.2z"/>
	<path id="XMLID_74_" d="M112,61.9c0-3.8,5.6-3.8,5.6,0v7.8c0,3.8-5.6,3.8-5.6,0V61.9z"/>
</g>
<g id="XMLID_48_">
	<path id="XMLID_49_" d="M5.5,64.2c-3.3,0-3.3-4.9,0-4.9h9.9c1.6,0,2.8,1.3,2.8,2.8v17.2c0,3.8-5.6,3.8-5.6,0v-15H5.5z"/>
	<path id="XMLID_51_" d="M23.8,63.9c-3.1,0.2-3.5-4.4-0.4-4.7l5.4-0.4H29c4.6,0,7.2,3.1,7.2,6.2l0,9.7c0,0.7,0,1.5,0.2,2.2
		c2.6,0.6,2.4,4.9-0.6,4.9H22.8c-3.3,0-3.3-4.9,0-4.9h8.5c-0.4-0.7-0.7-1.3-0.7-2.1l0-9.8c0-0.7-0.7-1.2-1.7-1.2L23.8,63.9z"/>
	<path id="XMLID_53_" d="M46,79.3c0,3.8-5.6,3.8-5.6,0V62.1c0-1.5,1.2-2.7,2.7-2.8l7.8-0.4h0c5.7-0.2,8.6,3.6,8.5,6.7v13.7
		c0,3.8-5.6,3.8-5.6,0V65.5v0c0-0.9-1.2-1.6-2.5-1.6c0,0-0.1,0-0.1,0l-5.1,0V79.3z"/>
	<path id="XMLID_55_" d="M61.4,56.5c0-3.8,5.6-3.8,5.6,0v2.8h8.8c1.6,0,2.8,1.3,2.8,2.8v2.6c0,0.5,0,0.8-0.3,1.2l-5.2,9.9
		c0.5-1,0.4-0.8-0.2,0.5l-0.5,0.9c0.2-0.3,0.3-0.6,0.4-0.8c-0.1,0.3-0.3,0.5-0.4,0.9c-0.3,0.6-0.4,1.2-0.4,2.1c0,3.3-5,3.3-5,0
		c0-1.8,0.4-3.1,0.9-4.2L73,64.7l0.3-0.5h-9.1c-1.6,0-2.8-1.3-2.8-2.8V56.5z M73.1,75.8l-0.2,0.5c0,0,0,0.1,0,0.1
		C72.9,76.1,73,75.9,73.1,75.8z"/>
	<path id="XMLID_58_" d="M107.6,64.2c0,0.2-0.1,0.3-0.2,0.5c-0.4,0.6-0.8,0.8-0.8,2.9v11.7c0,3.7-5.5,3.8-5.6,0l0-11.7
		c0-2.1,1-2.9,2.1-3.3h-8.5c-3.3,0-3.3-4.9,0-4.9h12.9C110.6,59.3,110.7,64,107.6,64.2z"/>
	<path id="XMLID_60_" d="M112,61.9c0-3.8,5.6-3.8,5.6,0v7.8c0,3.8-5.6,3.8-5.6,0V61.9z"/>
</g>
<g id="XMLID_1_">
	<path id="XMLID_35_" d="M5.5,64.2c-3.3,0-3.3-4.9,0-4.9h9.9c1.6,0,2.8,1.3,2.8,2.8v17.2c0,3.8-5.6,3.8-5.6,0v-15H5.5z"/>
	<path id="XMLID_37_" d="M23.8,63.9c-3.1,0.2-3.5-4.4-0.4-4.7l5.4-0.4H29c4.6,0,7.2,3.1,7.2,6.2l0,9.7c0,0.7,0,1.5,0.2,2.2
		c2.6,0.6,2.4,4.9-0.6,4.9H22.8c-3.3,0-3.3-4.9,0-4.9h8.5c-0.4-0.7-0.7-1.3-0.7-2.1l0-9.8c0-0.7-0.7-1.2-1.7-1.2L23.8,63.9z"/>
	<path id="XMLID_39_" d="M46,79.3c0,3.8-5.6,3.8-5.6,0V62.1c0-1.5,1.2-2.7,2.7-2.8l7.8-0.4h0c5.7-0.2,8.6,3.6,8.5,6.7v13.7
		c0,3.8-5.6,3.8-5.6,0V65.5v0c0-0.9-1.2-1.6-2.5-1.6c0,0-0.1,0-0.1,0l-5.1,0V79.3z"/>
	<path id="XMLID_41_" d="M61.4,56.5c0-3.8,5.6-3.8,5.6,0v2.8h8.8c1.6,0,2.8,1.3,2.8,2.8v2.6c0,0.5,0,0.8-0.3,1.2l-5.2,9.9
		c0.5-1,0.4-0.8-0.2,0.5l-0.5,0.9c0.2-0.3,0.3-0.6,0.4-0.8c-0.1,0.3-0.3,0.5-0.4,0.9c-0.3,0.6-0.4,1.2-0.4,2.1c0,3.3-5,3.3-5,0
		c0-1.8,0.4-3.1,0.9-4.2L73,64.7l0.3-0.5h-9.1c-1.6,0-2.8-1.3-2.8-2.8V56.5z M73.1,75.8l-0.2,0.5c0,0,0,0.1,0,0.1
		C72.9,76.1,73,75.9,73.1,75.8z"/>
	<path id="XMLID_44_" d="M107.6,64.2c0,0.2-0.1,0.3-0.2,0.5c-0.4,0.6-0.8,0.8-0.8,2.9v11.7c0,3.7-5.5,3.8-5.6,0l0-11.7
		c0-2.1,1-2.9,2.1-3.3h-8.5c-3.3,0-3.3-4.9,0-4.9h12.9C110.6,59.3,110.7,64,107.6,64.2z"/>
	<path id="XMLID_46_" d="M112,61.9c0-3.8,5.6-3.8,5.6,0v7.8c0,3.8-5.6,3.8-5.6,0V61.9z"/>
</g>
<path id="XMLID_2_" class="st0" d="M19.6,92.4H8.2c-1.4,0-2.5-1.1-2.5-2.5v0c0-1.4,1.1-2.5,2.5-2.5h11.4c1.4,0,2.5,1.1,2.5,2.5v0
	C22.2,91.2,21,92.4,19.6,92.4z"/>
<path id="XMLID_4_" class="st1" d="M38.6,92.4H27.2c-1.4,0-2.5-1.1-2.5-2.5v0c0-1.4,1.1-2.5,2.5-2.5h11.4c1.4,0,2.5,1.1,2.5,2.5v0
	C41.2,91.2,40,92.4,38.6,92.4z"/>
<path id="XMLID_6_" class="st2" d="M58,92.4H46.5c-1.4,0-2.5-1.1-2.5-2.5v0c0-1.4,1.1-2.5,2.5-2.5H58c1.4,0,2.5,1.1,2.5,2.5v0
	C60.5,91.2,59.4,92.4,58,92.4z"/>
<path id="XMLID_9_" class="st3" d="M77.1,92.4H65.7c-1.4,0-2.5-1.1-2.5-2.5v0c0-1.4,1.1-2.5,2.5-2.5h11.4c1.4,0,2.5,1.1,2.5,2.5v0
	C79.7,91.2,78.5,92.4,77.1,92.4z"/>
<path id="XMLID_8_" class="st4" d="M96.1,92.4H84.7c-1.4,0-2.5-1.1-2.5-2.5v0c0-1.4,1.1-2.5,2.5-2.5h11.4c1.4,0,2.5,1.1,2.5,2.5v0
	C98.7,91.2,97.5,92.4,96.1,92.4z"/>
<path id="XMLID_7_" class="st5" d="M115.5,92.4H104c-1.4,0-2.5-1.1-2.5-2.5v0c0-1.4,1.1-2.5,2.5-2.5h11.4c1.4,0,2.5,1.1,2.5,2.5v0
	C118,91.2,116.9,92.4,115.5,92.4z"/>
<g id="XMLID_33_">
	<g id="XMLID_237_">
		<path id="XMLID_238_" d="M116.8,29.8c-0.1,0-0.3,0-0.4-0.1c-0.1,0-0.2-0.1-0.3-0.2c-0.1-0.1-0.3-0.2-0.4-0.4
			c-0.3-0.1-0.5-0.4-0.8-0.5c-0.1-0.1-0.3-0.1-0.4-0.3c-0.1-0.1-0.3-0.2-0.4-0.3c-0.4-0.6-0.6-1.4-0.9-2.1c-0.1-0.4-0.3-0.8-0.5-1.1
			c0-0.1-0.1-0.1-0.1-0.2c-0.1-0.1-0.1-0.2-0.2-0.3c-0.1-0.1-0.3-0.3-0.4-0.5c-0.1-0.1-0.1-0.3-0.2-0.4c-0.2-0.4-0.3-0.8-0.5-1.3
			c0.1,0,0.2-0.1,0.2-0.2c0-0.7-0.2-1.3-0.3-1.9c-0.1-0.3-0.1-0.6-0.2-0.9c-0.1-0.3-0.2-0.6-0.3-0.9c-0.1-0.1-0.2-0.3-0.2-0.4
			c-0.1-0.1-0.2-0.2-0.3-0.4c-0.1,0-0.2-0.1-0.2-0.2c-0.1,0-0.2-0.1-0.2-0.2c-0.2-0.1-0.4-0.2-0.5-0.3c-0.2-0.1-0.4-0.2-0.5-0.3
			c-0.1,0-0.3-0.1-0.3-0.1c0,0,0,0-0.1,0c-0.1,0-0.1-0.1-0.2-0.1c-0.1-0.1-0.3-0.2-0.4-0.3c-0.1,0-0.1,0-0.2-0.1
			c0-0.1-0.1-0.1-0.1-0.2c0-0.1-0.1-0.1-0.1-0.2c-0.1-0.1-0.2-0.2-0.3-0.3c-0.2-0.2-0.4-0.5-0.6-0.7c0,0,0-0.1-0.1-0.1c0,0,0,0,0,0
			c0,0,0,0,0,0c0,0,0-0.1,0-0.1c0.2,0,0.3,0,0.5-0.1c-0.2,0.1-0.4,0-0.5,0c0-0.1-0.1-0.2-0.1-0.3c0,0,0.1,0,0.1,0c0,0-0.1,0-0.1,0
			c0-0.1,0-0.2,0-0.3c0,0,0.1,0,0.1,0c0.1,0,0.1,0,0.2-0.1c-0.1,0-0.1,0-0.2,0c-0.1,0-0.1,0-0.1-0.1c0,0,0-0.1,0-0.1
			c0-0.1,0-0.1,0-0.2c0,0,0-0.1,0-0.1c0,0,0,0,0,0c0-0.1,0-0.1,0.1-0.2c0.1,0,0.2-0.1,0.2-0.1c0,0,0,0,0-0.1c0,0,0,0,0,0
			c0.1,0.1,0.3,0.1,0.4,0c-0.2,0-0.3-0.1-0.4-0.2c0.1-0.2,0.1-0.5,0.1-0.7c0-0.3,0-0.6-0.1-0.7c0,0,0,0,0,0c0,0,0-0.1,0-0.1
			c0.1,0,0.1,0.3,0.2,0.3c0,0,0-0.4-0.1-0.5c0-0.2-0.1-0.4-0.2-0.5c0-0.1-0.1-0.2-0.2-0.3c0,0,0,0,0-0.1c0.2,0.1,0.3,0.2,0.5,0.2
			c-0.3-0.1-0.4-0.3-0.6-0.5c0.1,0.1,0.2,0.2,0.3,0.2c0,0-0.1-0.1-0.1-0.2c0,0,0.1,0.1,0.1,0.1c0.1,0,0.1,0.1,0.2,0.1
			c0.1,0,0.1,0,0.2,0c-0.1,0-0.2,0-0.3-0.1c-0.1-0.1-0.2-0.2-0.3-0.3c0,0,0,0-0.1-0.1c0,0,0,0,0.1,0c0,0,0,0,0.1,0
			c0.1,0,0.1,0,0.2,0c0,0,0,0,0,0c0,0,0,0,0.1,0c0,0,0.1,0,0.1,0c0.1,0,0.1,0,0.1,0c0,0-0.1,0-0.1,0c0,0-0.1,0-0.1-0.1
			c0,0-0.1,0-0.1-0.1c-0.1,0-0.1,0-0.2,0c0,0,0,0-0.1,0l-0.1,0c0,0-0.1,0-0.1,0c-0.1,0-0.2,0-0.2,0c0,0,0,0,0,0
			c0.1,0,0.3-0.1,0.4-0.1c-0.1,0-0.1,0-0.2,0c0,0-0.2-0.2-0.2-0.2c-0.1,0-0.2-0.2-0.3-0.1c0,0,0,0,0,0c0.1,0,0.2-0.1,0.3-0.1
			c-0.1,0.1-0.3,0-0.4,0c-0.1,0-0.3,0-0.4,0c0,0,0,0,0,0c-0.1,0,0-0.1,0-0.1c0,0-0.1,0-0.1,0c0.1-0.1,0.2-0.1,0.2-0.2
			c-0.1,0.1-0.2,0.1-0.3,0.2c0,0,0,0-0.1,0c0,0-0.1,0-0.1,0c0.1-0.1,0.1-0.3,0.1-0.4c-0.1,0.1-0.1,0.3-0.2,0.4c0,0,0,0-0.1,0
			c0,0,0,0,0,0c0,0,0,0,0,0c-0.1-0.1-0.4,0.1-0.4,0.2c0,0,0-0.1,0.1-0.1c0,0-0.1,0,0-0.1c0,0,0,0,0,0c0-0.1,0.1-0.1,0.1-0.2
			c-0.1,0.1-0.2,0.2-0.2,0.3c0,0,0,0,0,0c0,0,0,0,0,0c0,0,0,0,0,0c0,0,0-0.1,0-0.1c0,0,0,0,0,0c0,0,0,0,0,0c0-0.1,0.1-0.1,0.1-0.2
			c-0.1,0.1-0.2,0.2-0.3,0.3c0,0,0,0,0,0c-0.1,0-0.1,0-0.2,0h0c0,0,0,0,0,0c0,0,0,0,0,0c0,0,0,0,0,0c0-0.1-0.1-0.3-0.1-0.4
			c0,0,0,0,0,0c0,0,0,0,0,0c0-0.1,0-0.1,0-0.2c0,0.2,0,0.4,0,0.5c0,0,0,0,0,0c0-0.1-0.1-0.2-0.1-0.3c0-0.1,0-0.2,0-0.3
			c-0.1,0-0.1,0.1-0.1,0.2c0-0.1,0-0.2,0-0.3c-0.1,0.2-0.1,0.5-0.1,0.8c0,0,0,0.1,0,0.1c0,0-0.1,0-0.1,0c0,0,0,0,0,0
			c0,0,0-0.1-0.1-0.1c-0.1-0.2-0.3-0.3-0.5-0.4c0.1,0.1,0.2,0.1,0.2,0.2c0,0,0,0,0,0c0,0,0,0.1,0.1,0.1c0,0,0,0.1,0,0.1
			c0.1,0.1,0,0.1,0,0.1c0,0,0,0,0,0c-0.1-0.1-0.2-0.1-0.3-0.1c0,0,0.1,0,0.1,0.1c0,0,0,0,0,0c0,0,0.1,0,0.1,0c0,0,0,0,0,0
			c0,0,0,0,0,0c0,0,0,0,0,0l0,0c0,0,0,0,0,0c0,0,0,0,0,0l0,0c0,0-0.1,0-0.1,0c0,0-0.1,0-0.1,0c-0.1,0-0.2,0-0.2,0
			c-0.1,0-0.2,0-0.3-0.1c0.1,0.1,0.2,0.1,0.3,0.1c0,0,0,0,0,0c0,0,0,0,0,0c-0.1,0-0.2,0-0.2,0c0,0-0.1,0-0.1,0c0,0-0.1,0-0.1,0
			c0,0,0,0,0,0c-0.1,0-0.2,0.1-0.3,0.1c0.1,0,0.2,0,0.3,0c0.1,0,0.2,0,0.1,0.1c0.1,0,0.1,0.1,0.1,0.2c0,0,0,0,0,0c0,0,0,0,0,0
			c0,0,0,0,0,0c0,0-0.1,0.1-0.1,0.1c-0.1,0-0.1,0.1-0.2,0.1c0.1,0,0.1,0,0.2,0c0,0,0,0,0,0.1c0,0,0,0.1,0,0.1c0,0-0.1,0-0.1,0.1
			c-0.1,0-0.1,0-0.1,0.1c-0.1,0.1-0.1,0.1-0.2,0.2c-0.1,0.1-0.3,0.2-0.4,0.4c0.1-0.1,0.2-0.2,0.3-0.2c0,0,0,0,0,0c0,0,0,0,0.1,0
			c0,0,0,0,0,0l0,0c0,0,0,0,0,0c0,0-0.1,0-0.1,0.1c0,0-0.1,0.1-0.1,0.1c0,0,0.1-0.1,0.1-0.1c0,0,0,0,0.1,0c0,0,0,0.1,0,0.1
			c0,0.1-0.1,0.2-0.1,0.2c0,0,0.1-0.1,0.1-0.1c0,0,0,0.1,0,0.1c0,0,0,0.1,0,0.1c-0.1,0.1,0,0.1,0,0.2c0,0,0,0,0,0.1c0,0,0,0,0,0
			c0,0,0,0.1-0.1,0.1c0,0-0.1,0-0.1,0c0,0-0.1,0-0.1-0.1c0,0,0,0.1,0.1,0.1c0,0,0.1,0,0.1,0c0,0,0,0,0,0c0,0,0,0,0,0
			c0,0.2,0,0.4,0,0.6c0,0.1,0,0.3,0,0.4c0,0,0,0.1,0,0.1c0,0-0.1,0.1-0.1,0.1c0,0-0.1,0-0.2,0c0.1,0,0.1,0,0.2,0
			c0.1,0,0.1-0.1,0.1-0.1c0,0,0,0.1,0,0.1c0,0,0-0.1,0-0.1c0,0,0,0,0,0c0,0.1,0.1,0.2,0.1,0.3c0,0.1,0,0.1,0,0.2
			c0,0.1,0,0.1-0.1,0.1c0.1,0,0.1,0,0.1-0.1c0,0,0,0.1,0,0.1c0,0,0,0,0-0.1c0,0,0,0,0,0c0,0,0,0,0,0c0,0,0-0.1,0-0.1c0,0,0,0,0,0
			c0,0.1,0,0.2,0,0.3c0,0.2,0,0.4-0.1,0.5c0.1-0.1,0.2-0.2,0.2-0.4c0,0.2,0.1,0.4,0.2,0.5c0,0.1,0.4,0.6,0.4,0.6
			c0.1,0,0.2,0.1,0.3,0.1c0.1,0.1,0.1,0.2,0.2,0.2c0.3,0.3,0.6,0.6,1,0.8c0.1,0.2,0.2,0.4,0.2,0.6c-0.2,0-0.3,0-0.5,0
			c-0.1,0.1-0.2,0.2-0.3,0.3c-0.4,0.2-0.9,0.3-1.3,0.5c-0.4,0.2-0.8,0.4-1.1,0.6c-0.1,0.1-0.2,0.3-0.3,0.4c0,0.2-0.2,0.3-0.2,0.4
			c-0.1,0.2-0.1,0.3-0.2,0.5c-0.1,0.3-0.2,0.7-0.3,1.1c-0.1,0.4-0.2,0.7-0.3,1.1c-0.1,0.4-0.2,0.7-0.3,1.1c0,0.1,0.2,0.1,0.3,0.2
			c-0.1,0.3-0.2,0.6-0.4,0.8c-0.1,0.3-0.3,0.5-0.4,0.8c-0.3,0.2-0.6,0.5-0.8,0.8c-0.2,0.3-0.5,0.6-0.7,1c-0.4,0.7-0.8,1.4-1.4,1.9
			c0,0,0,0,0,0c-0.6,0.3-1.2,0.6-1.8,0.9c-0.2,0.2-0.4,0.3-0.7,0.4c-0.2,0-0.5,0-0.6,0.1c0,0.3,0.2,0.3,0.3,0.4c0.2,0,0.3,0,0.5-0.1
			c0.1-0.1,0.2-0.1,0.3-0.1c0.1,0,0.3-0.1,0.4,0c0,0.1-0.1,0.2-0.1,0.3c-0.1,0.1-0.1,0.2-0.1,0.3c-0.1,0.2-0.2,0.4-0.3,0.6
			c-0.1,0.3-0.3,0.5-0.4,0.9c-0.1,0.1,0,0.3,0,0.3c0,0,0,0,0,0c0.2,0.1,0.4-0.1,0.5-0.3c0.1-0.1,0.3-0.3,0.4-0.4
			c0.1-0.1,0.2-0.2,0.3-0.3c0-0.1,0.1-0.1,0.1-0.2c0.1,0,0.1-0.1,0.2-0.1c0.1,0.1,0,0.1-0.1,0.2c-0.1,0.1-0.2,0.2-0.2,0.3
			c0,0,0,0,0,0.1c0,0,0,0-0.1,0c0,0,0,0.1-0.1,0.1c-0.1,0.1-0.2,0.2-0.3,0.3c-0.1,0.1-0.2,0.2-0.2,0.4c0.1,0.1,0.3,0.1,0.4,0
			c0-0.1,0.1-0.1,0.1-0.1c0.1,0,0.1-0.1,0.1-0.2c-0.1,0.1,0,0.2,0.1,0.3c0.2,0,0.3-0.2,0.5-0.3c0.1-0.1,0.3-0.3,0.4-0.4
			c0-0.1,0.1-0.2,0.2-0.2c0-0.1,0.2-0.1,0.2-0.2c0.1-0.1,0.2-0.3,0.4-0.5c0.1-0.2,0.2-0.4,0.3-0.6c0.1-0.2,0.1-0.5,0.2-0.7
			c0-0.1,0.1-0.1,0.1-0.1c0,0,0.1-0.1,0.1-0.1c0.2-0.2,0.4-0.5,0.7-0.7c0.1-0.2,0.3-0.3,0.4-0.5c0.2-0.1,0.3-0.3,0.5-0.5
			c0.3-0.3,0.6-0.6,0.9-1c0.1-0.2,0.3-0.4,0.4-0.5c0.2-0.2,0.3-0.4,0.4-0.5c0.1-0.2,0.2-0.3,0.2-0.5c0.1-0.4,0.2-0.7,0.4-1
			c0.1-0.1,0.1-0.2,0.1-0.2c0-0.1,0.1-0.1,0.1-0.1c0,0,0-0.1,0.1-0.1c0.1,0,0.2,0.1,0.2,0.2c0,1.4-0.1,2.9-0.4,4.1
			c0,0.2-0.1,0.5-0.1,0.7c0,0.3-0.1,0.4-0.2,0.6c0,0.1,0.2,0.1,0.3,0.2c-0.1,0.3-0.2,0.6-0.2,0.9c-0.3,1.1-0.2,2.3-0.2,3.6
			c0,0.3,0,0.6,0,0.9c0,0.6,0.1,1.2,0.2,1.8c0,0.3,0,0.6,0,0.9c0,0.3,0.1,0.7,0.2,1c0,0.2,0,0.3,0,0.5c0,0.6,0,1.2,0,1.9
			c0,0.6,0.1,1.3,0.1,1.9c0,1.3,0,2.5-0.4,3.4c0,0.1,0,0.3,0,0.4c0.1,0.4,0.2,0.9,0.2,1.3c0,0.2-0.1,0.3-0.1,0.5
			c-0.1,0.1-0.1,0.3-0.2,0.4c-0.1,0,0,0.2-0.1,0.2c0,0.1-0.1,0.1-0.1,0.2c0,0.3,0.1,0.6,0.2,0.8c0.6,0,1.1-0.1,1.7-0.2
			c0,0.1-0.1,0.1-0.2,0.1c0,0.1-0.1,0.2-0.1,0.2c0,0.2-0.1,0.3-0.2,0.5c-0.1,0.1-0.1,0.3-0.2,0.4c-0.1,0.1-0.2,0.2-0.3,0.3
			c-0.2,0.3-0.5,0.4-0.5,0.7c0,0.2,0,0.2,0.1,0.4c0.1,0.1,0.2,0.2,0.2,0.3c0.2,0.1,0.4,0.2,0.8,0.2c0.4,0,0.8,0,1.1-0.2
			c0.3-0.1,0.7-0.3,0.8-0.5c0.1-0.1,0.1-0.2,0.1-0.3c0-0.1,0-0.3,0-0.4c0.1-0.2,0.2-0.4,0.3-0.5c0-0.4,0-0.9-0.1-1.3
			c0-0.1,0-0.1-0.1-0.1c0-0.1-0.1-0.1,0-0.1c0.3,0,0.5-0.1,0.8-0.1c0.1-0.2,0-0.6,0-0.9c0.1-0.7,0.1-1.3,0.1-2c0-0.1,0-0.2,0-0.3
			c-0.2-0.6-0.3-1.4-0.3-2.2c0.1-0.6,0-1.2,0-1.8c0-0.6,0.1-1.1,0.2-1.7c-0.2-1-0.1-2-0.1-3.1c0-0.5-0.1-1-0.1-1.5
			c0-0.5,0.1-1,0.1-1.5c0-0.1,0-0.2,0-0.3c0.1-0.1,0-0.2,0.1-0.3c0.1,0.1,0,0.3,0.1,0.4c0,0.4,0.1,0.8,0.1,1.3c0.1,0.6,0,1.2,0,1.8
			c0.1,0.8,0.2,1.8,0.2,2.7c0,0.3,0.1,0.6,0.2,0.8c0.1,0.2,0.2,0.4,0.2,0.6c0.2,0.3,0.4,0.7,0.6,0.9c0.1,0.2,0.2,0.3,0.3,0.5
			c0.1,0.2,0.3,0.5,0.5,0.7c0.2,0.2,0.3,0.5,0.5,0.7c0.2,0.3,0.4,0.6,0.6,0.9c0.1,0.4,0.2,0.9,0.3,1.3c0.2,0.3,0.3,0.6,0.5,0.8
			c0.2,0.3,0.4,0.5,0.5,0.8c0.1,0.4,0.3,0.8,0.4,1.2c0.1,0.1,0.2,0.2,0.3,0.3c0.2,0,0.4,0.1,0.6,0.1c-0.1,0,0,0.1,0,0.2
			c0,0.3,0,0.5,0.1,0.7c0,0.2,0,0.5,0,0.7c0,0.1,0,0.2,0.1,0.3c0,0.1-0.1,0.2-0.2,0.4c0,0.2-0.2,0.2-0.2,0.4
			c0.1,0.2,0.2,0.3,0.4,0.3c0.5-0.1,0.9-0.3,1.3-0.6c0.4-0.2,0.8-0.4,1.2-0.7c0.1-0.2,0.1-0.4,0.1-0.6c0-0.2,0-0.5,0-0.7
			c0-0.2-0.1-0.3-0.1-0.5c0-0.2,0-0.5,0-0.7c0.1-0.1,0.2-0.2,0.3-0.4c0.2-0.3,0.4-0.5,0.3-1c-0.2-0.4-0.4-0.7-0.8-0.9
			c-0.2-0.2-0.3-0.4-0.4-0.7c-0.1-0.2-0.1-0.4-0.1-0.6c-0.1-0.2-0.3-0.3-0.4-0.6c-0.1-0.2-0.2-0.4-0.3-0.6c-0.1-0.2-0.2-0.4-0.3-0.6
			c-0.1-0.1-0.1-0.2-0.2-0.3c-0.1-0.1-0.1-0.2-0.2-0.3c-0.2-0.4-0.5-0.8-0.8-1.2c-0.1-0.2-0.3-0.4-0.4-0.6c-0.1-0.2-0.2-0.4-0.3-0.6
			c-0.1-0.1-0.2-0.2-0.3-0.3c-0.1-0.2-0.3-0.3-0.4-0.6c0,0,0-0.1,0-0.1c0-0.3,0-0.7,0.1-1c-0.1-0.5,0-1.1-0.1-1.7
			c0.1-0.6,0.1-1.3,0.2-1.8c0.2,0,0.3,0.2,0.5,0.1c0.2-0.2,0.1-0.6,0.1-0.9c0-0.1-0.1-0.2-0.1-0.2c-0.1-0.1-0.3-0.2-0.4-0.2
			c-0.1-1.3-0.3-2.6-0.3-4c0-0.1,0.2-0.1,0.2-0.2c0-0.1,0-0.2-0.1-0.3c0-1,0-2,0-3c0-0.8,0.1-1.6,0.3-2.4c0-0.1,0-0.2,0.1-0.3
			c0,0.1,0.1,0.2,0.1,0.3c0.1,0.1,0,0.2,0.1,0.2c0.2,0,0.5-0.1,0.7-0.1c0.2,0.4,0.3,0.9,0.5,1.4c0.1,0.5,0.4,0.9,0.6,1.3
			c0.1,0.2,0.2,0.3,0.2,0.5c0.1,0.1,0.1,0.3,0.3,0.5c0.1,0.2,0.2,0.3,0.3,0.4c0.3,0.4,0.6,0.8,0.9,1.3c0.1,0.2,0.2,0.3,0.3,0.5
			c0.1,0.2,0.1,0.3,0.2,0.5c0,0.2,0.1,0.4,0.1,0.7c0.1,0.2,0.2,0.5,0.3,0.7c0.1,0.1,0.2,0.3,0.3,0.5c0.1,0.2,0.2,0.3,0.3,0.5
			c0.1,0.1,0.2,0.3,0.3,0.5c0.1,0.1,0.2,0.4,0.5,0.4c0.1-0.1,0.1-0.2,0-0.3c0-0.1-0.1-0.2-0.2-0.3c-0.1-0.3-0.2-0.4-0.3-0.7
			c0,0,0,0,0,0c0,0,0,0,0,0c0,0,0,0,0,0c0.2,0.3,0.3,0.6,0.5,0.9c0.1,0.1,0.1,0.3,0.3,0.4c0,0.2,0.2,0.3,0.4,0.2
			c0.1-0.2,0-0.3-0.1-0.4c-0.1-0.2-0.2-0.4-0.3-0.6c-0.1-0.1-0.1-0.2-0.2-0.3c-0.1-0.1-0.1-0.2-0.1-0.3c0.1,0,0.1,0.1,0.2,0.2
			c0,0.1,0.1,0.1,0.1,0.2c0.1,0.2,0.2,0.3,0.3,0.4c0.1,0.1,0.2,0.3,0.3,0.4c0.1,0.1,0.2,0.3,0.4,0.3c0.1,0,0.2-0.2,0.2-0.3
			c0-0.1-0.1-0.3-0.1-0.4c-0.1-0.1-0.1-0.3-0.2-0.4c0-0.2-0.1-0.3-0.2-0.5c-0.1-0.3-0.2-0.6-0.3-0.9c0.2,0.1,0.4,0.2,0.7,0.2
			c0.3,0,0.6,0,0.6-0.3C117,29.8,116.8,29.8,116.8,29.8z M105.7,8.8c0.1,0,0.2,0.1,0.3,0.1c-0.1,0-0.1,0-0.2,0c-0.1,0-0.3,0-0.4-0.1
			c0,0,0,0,0,0C105.5,8.9,105.7,8.9,105.7,8.8z M104.7,8.3C104.7,8.3,104.7,8.3,104.7,8.3C104.7,8.3,104.7,8.3,104.7,8.3
			C104.7,8.3,104.7,8.3,104.7,8.3z"/>
	</g>
	<g id="XMLID_151_">
		<path id="XMLID_153_" d="M95.4,30.4c0-0.3-0.2-0.5-0.3-0.7c0-0.1,0-0.3,0-0.4c0-0.1-0.2-0.1-0.3-0.3c-0.1,0-0.2-0.2-0.3-0.2
			c-0.2-0.2-0.4-0.3-0.6-0.4c-0.1-0.2-0.2-0.3-0.3-0.5c-0.1,0-0.2-0.1-0.3-0.2c-0.5-0.5-0.9-1-1.3-1.5c-0.2-0.2-0.4-0.5-0.6-0.8
			c-0.2-0.3-0.4-0.6-0.6-0.8c0-0.1-0.1-0.1-0.1-0.2c0,0,0,0,0-0.1c0,0-0.1-0.1-0.1-0.1c0,0,0-0.1,0-0.1c0,0,0,0,0,0c0,0,0,0,0-0.1
			c0,0-0.1-0.1-0.1-0.1c0,0,0,0,0-0.1c0,0-0.1-0.1-0.1-0.2c-0.2-0.3-0.4-0.6-0.5-0.9c-0.3-0.6-0.6-1.3-0.9-1.9
			c0.1-0.1,0.2-0.1,0.3-0.2c-0.2-0.4-0.3-0.8-0.5-1.1c0-0.1-0.1-0.2-0.1-0.3c-0.1-0.3-0.2-0.7-0.3-1c-0.1-0.3-0.3-0.6-0.5-0.9
			c0-0.2,0-0.2,0-0.4c-0.1-0.2-0.2-0.4-0.3-0.5c0-0.1-0.1-0.2-0.1-0.3c-0.1-0.1-0.1-0.1-0.2-0.2c0-0.1-0.1-0.3-0.1-0.3
			c0-0.1-0.1-0.1-0.2-0.2c-0.1,0-0.1-0.1-0.2-0.1c0-0.1-0.1-0.2-0.2-0.3c-0.1,0-0.1-0.1-0.1-0.1c-0.1-0.1-0.3-0.2-0.5-0.3
			c-0.2-0.1-0.3-0.2-0.4-0.3c0,0,0,0,0,0c0,0,0.1,0,0.1,0c0,0.1,0.1,0.1,0.1,0.1c0,0-0.1-0.1-0.1-0.1c0.1,0,0.2,0,0.2,0
			c0.1,0,0.2-0.1,0.2-0.1c-0.1,0.1-0.3,0.1-0.4,0.1c0,0,0,0,0,0c0-0.1,0-0.1,0-0.2c0-0.1,0-0.1,0.1-0.2c0.1,0,0.2,0,0.3,0
			c0.1,0,0.1-0.1,0.2-0.1c0,0,0.1-0.1,0.1-0.2c0-0.1,0-0.1-0.1-0.1c0,0-0.1,0-0.1,0c0,0,0,0.1,0,0.1c0,0,0-0.1,0-0.1c0,0,0,0,0.1,0
			c0,0,0.1,0.1,0.1,0.1c0,0,0,0.1-0.1,0.1c0,0-0.1,0-0.1,0.1c-0.1,0-0.1,0-0.2-0.1c0,0,0,0,0,0c0.1,0,0.1,0,0.2-0.1
			c0,0,0.1-0.1,0.1-0.1c0,0,0,0,0,0l0,0l0,0l0,0l0,0c0-0.1,0,0,0,0l0,0l0,0c0,0-0.1,0-0.1,0c-0.1,0-0.1,0.1-0.1,0.1
			c0,0,0.1-0.1,0.1-0.1c0,0,0,0,0,0l0,0l0,0c0,0.1-0.1,0.1-0.2,0.1c0-0.1,0-0.2,0-0.2c0-0.1-0.1-0.1-0.1-0.2c0.1,0,0.1-0.1,0.1-0.2
			c0,0,0,0.1-0.1,0.1c0,0,0-0.1,0-0.1c0,0,0-0.1,0-0.1c0,0,0,0,0,0c0,0,0,0,0,0c0,0,0,0-0.1,0c0,0-0.1,0-0.1,0c0,0,0,0-0.1-0.1
			c0,0,0,0,0,0c0,0,0.1,0,0.1,0c0.1,0,0.1-0.1,0.2-0.1c0,0,0.1-0.1,0.1-0.1c0,0,0-0.1,0-0.1c0,0,0-0.1-0.1-0.1c-0.1,0-0.1,0-0.2,0
			c0,0,0,0,0,0.1c0,0,0,0,0,0.1c0,0,0,0,0-0.1c0,0,0,0,0,0c0,0,0.1,0,0.1,0c0.1,0,0,0.1-0.1,0.2c-0.1,0.1-0.1,0.1-0.2,0
			c0,0,0-0.1,0-0.1c0,0,0-0.1,0-0.2c0.1,0,0.3-0.2,0.3-0.3c-0.1,0.1-0.2,0.2-0.4,0.2c0,0,0-0.1,0-0.1c-0.1-0.1-0.1-0.2-0.2-0.2
			c0,0,0,0,0-0.1c0,0,0,0,0,0c0,0,0,0,0,0c0,0,0.1,0,0.1,0c0.1,0,0.1-0.1,0.1-0.2c0,0.1-0.1,0.1-0.1,0.1c0,0-0.1,0-0.1,0
			c0.1,0,0.1-0.1,0.1-0.1c0-0.1,0.1-0.2,0.1-0.3c0,0.1-0.1,0.2-0.1,0.2c0,0-0.1,0.1-0.1,0.1c0,0,0,0,0.1-0.1c0,0,0.1-0.1,0.1-0.2
			c0-0.1,0-0.1,0-0.2c0-0.1,0-0.1-0.1-0.2c0,0,0.1,0,0.1-0.1c0,0,0.1-0.1,0.1-0.1c0,0,0-0.1,0-0.1c0,0-0.1,0-0.1-0.1
			c-0.1,0-0.1,0-0.2,0c0,0,0-0.1,0-0.1c0,0-0.1-0.1-0.1-0.1c0,0-0.1,0-0.1,0c0,0,0,0,0,0c0,0,0-0.1,0-0.1c0.1,0,0.2,0,0.3,0
			c-0.1,0-0.2,0-0.3,0c0-0.1,0-0.3-0.1-0.4c0-0.1-0.1-0.2-0.1-0.3c0,0,0,0,0,0c0,0,0.1-0.1,0.1-0.1c0,0-0.1,0.1-0.1,0.1
			c0-0.1-0.1-0.1-0.2-0.2c0,0,0,0,0,0c0,0,0,0,0,0c0,0,0,0,0.1-0.1c0,0,0.1,0,0.1,0c0,0,0,0.1,0,0.1c0,0,0,0.1,0,0.1
			c0.1,0.1,0.2,0.1,0.3,0.1c0.1,0,0.2,0,0.3-0.1c-0.1,0-0.2,0-0.3,0c-0.1,0-0.1-0.1-0.2-0.1c0,0,0,0,0,0c0,0,0.1,0,0.1,0
			c0,0-0.1,0-0.1,0c0,0,0,0,0-0.1c0,0,0-0.1,0-0.1C84.9,9.1,84.9,9,85,8.9c-0.1,0.1-0.1,0.1-0.2,0.2c0,0,0,0,0-0.1c0,0,0-0.1,0-0.1
			l0,0l0,0c0,0,0,0,0,0l0,0l0,0c0,0,0,0,0,0c0,0-0.1-0.1-0.1-0.1c0,0,0-0.1,0-0.1c0-0.1,0-0.1-0.1-0.1c0,0-0.1,0-0.1,0
			c-0.1,0-0.1,0-0.2,0c0,0-0.1,0-0.1,0c0,0,0,0,0,0c0,0,0,0,0-0.1c0,0,0,0,0-0.1c0,0,0,0,0,0c0,0,0,0,0.1,0c0,0,0.1,0,0.1,0
			c0,0,0.1,0.1,0.1,0.1c0,0,0.1,0.1,0.2,0c0.1,0,0.1-0.1,0.1-0.1c-0.1,0-0.2,0.1-0.3,0c-0.1-0.1-0.2-0.2-0.3-0.2
			c0-0.1,0-0.1,0.1-0.2c0-0.1,0-0.3-0.1-0.4c-0.1-0.1-0.1-0.1-0.2-0.1c-0.1,0-0.2,0-0.2,0c0,0-0.1,0-0.1,0c0,0,0,0,0,0
			c0,0-0.1-0.1-0.1-0.1c0,0,0.1,0.1,0.1,0.1c0,0,0,0,0-0.1c0,0,0.1,0,0.1,0c0,0,0.1,0,0.1-0.1c-0.1,0-0.1,0.1-0.2,0
			c0,0-0.1-0.1-0.1-0.2c0,0,0-0.1-0.1-0.1c0,0-0.1,0-0.1,0c-0.1,0-0.1,0.1-0.2,0.1c0,0,0,0,0,0c-0.1,0-0.2,0-0.2,0
			c0,0-0.1-0.1-0.1-0.1c0,0,0,0,0,0c0,0,0.1,0,0.1,0c0,0,0,0,0,0c0,0,0.1,0,0.1-0.1c0,0,0,0,0,0c0.1-0.1,0.2-0.2,0.2-0.3
			C83.2,6.9,83,7,82.9,7c0,0,0,0,0,0c-0.1-0.1-0.1-0.1-0.1-0.2c0,0,0,0,0,0c0.1,0,0.2-0.2,0.2-0.3c-0.1,0.1-0.2,0.2-0.3,0.2
			c0,0,0,0-0.1,0c0,0,0-0.1-0.1-0.1c0,0-0.1-0.1-0.2-0.1c-0.1,0-0.2,0-0.3,0.1c-0.1,0-0.1,0-0.2,0c0,0-0.1,0-0.1,0
			c-0.1,0-0.1,0-0.2,0c0,0,0,0,0,0c0,0-0.1,0-0.1,0c0,0-0.1,0-0.1,0c0-0.1-0.1-0.1-0.2-0.1c-0.1,0-0.2,0-0.3,0.1
			c0,0-0.1,0.1-0.1,0.1c0,0,0,0,0,0c0,0,0,0-0.1,0c0,0-0.1,0-0.1,0c-0.1,0-0.3,0.1-0.4,0.1c-0.1,0.1-0.2,0.2-0.2,0.3
			c0,0,0,0.1-0.1,0.1c0,0,0,0,0,0c0,0,0,0,0,0c0,0,0,0,0,0c0,0,0,0,0,0c0,0,0,0-0.1,0c-0.1,0-0.2,0-0.3,0c0,0-0.1,0-0.1,0
			c0,0,0,0,0,0c0,0,0,0,0,0c0,0,0,0,0,0c0,0,0,0,0,0c-0.1,0-0.1,0.2-0.2,0.3c0,0-0.1,0.1-0.1,0.1c-0.1,0.1-0.2,0-0.3-0.1
			c0,0,0.1,0.1,0.1,0.1c0,0,0.1,0,0.1,0c0,0,0,0.1-0.1,0.1C79,8,79,8,78.9,8c0,0-0.1,0.1-0.2,0.1c0,0-0.1,0.1-0.1,0.1c0,0,0,0,0,0
			c0,0,0,0,0,0c0,0,0,0.1,0,0.1c0,0,0,0,0,0c0,0,0,0,0,0.1c0,0,0,0,0,0.1c0,0.1,0,0.1,0,0.1c0,0.1,0,0.1,0,0.1c0,0-0.1,0-0.1,0
			c-0.1,0-0.2-0.1-0.2-0.2c0,0.1,0.1,0.2,0.2,0.3c0,0,0.1,0,0.1,0c0,0,0,0.1,0,0.1c0,0.1,0,0.3,0.1,0.4c0,0.1,0,0.2-0.1,0.3
			c0,0-0.1,0.1-0.1,0.1c-0.1,0.1-0.1,0.2-0.1,0.3c0,0.1,0,0.2,0.1,0.3c-0.1,0,0.1,0.1,0.1,0.1c0,0,0,0,0,0c0,0,0,0-0.1,0
			c0,0,0,0,0,0c0,0,0,0,0,0c0,0-0.1,0-0.1,0c0,0,0-0.1-0.1-0.2c0,0.1,0,0.1,0,0.2c0.1,0.1,0.1,0,0.2,0c0,0,0.1,0,0.1-0.1
			c0,0,0,0.1-0.1,0.1c0,0,0,0,0,0.1c0,0,0,0,0,0c0,0,0,0.1,0,0.1c0,0.1,0,0.1,0,0.2l0,0c0,0,0,0,0,0c0,0,0,0-0.1,0c0,0,0,0,0.1,0.1
			c0,0.1,0,0.1,0,0.2c0,0,0,0,0,0c0,0,0,0,0,0c0,0,0,0,0,0c0,0.1,0.1,0.1,0.1,0.1c0,0,0.1,0,0.1,0.1c0,0,0,0.1,0,0.1c0,0,0,0,0,0
			c0,0,0,0,0,0c0,0,0,0.1,0,0.1c0,0-0.1,0-0.1,0.1c0,0,0,0,0,0c-0.1,0-0.1,0-0.2-0.1c0,0,0,0,0,0c0,0,0,0,0,0c0,0,0,0-0.1-0.1
			c-0.1-0.1-0.2-0.2-0.2-0.3c0,0.1,0.1,0.3,0.1,0.4c0.1,0.1,0.2,0.2,0.3,0.3c0,0,0.1,0,0.1,0c0,0,0,0,0,0c0,0.1,0.1,0.2,0.1,0.3
			c0,0.1,0,0.1-0.1,0.1c0,0,0,0,0,0c0,0-0.1,0-0.1,0c0,0-0.1,0-0.1-0.1c0,0,0-0.1,0-0.1c0,0.1,0,0.1,0,0.2c0,0,0,0.1,0.1,0.1
			c0,0,0,0,0,0c0,0,0,0,0,0c0,0,0,0,0.1,0c0.1,0,0.1,0,0.2,0c0,0,0.1,0,0.1,0c0,0,0.1-0.1,0.1-0.1c0,0,0,0,0-0.1c0,0,0,0,0,0
			c0,0,0,0.1,0,0.1c0,0.1,0,0.2,0,0.3c0,0,0,0,0,0.1c0,0,0,0,0,0.1c0,0,0,0,0,0c0,0-0.1,0-0.1,0.1c-0.1,0-0.2,0-0.2-0.1
			c-0.1-0.1-0.1-0.2-0.1-0.3c0,0.1,0,0.2,0,0.3c0,0.1,0.1,0.1,0.1,0.1c0.1,0,0.1,0.1,0.2,0c0.1,0,0.2,0,0.2-0.1c0,0,0.1,0.1,0.1,0.1
			c0,0,0,0,0,0.1c0,0,0,0,0,0c-0.1,0-0.1,0-0.2,0c-0.1,0-0.1,0-0.1-0.1c0,0.1,0,0.1,0.1,0.1c0.1,0,0.1,0,0.2,0c0,0,0,0,0,0
			c0,0,0,0,0,0c0,0.1-0.1,0.1-0.2,0.2c0,0,0,0,0,0c0,0,0,0,0,0c-0.1,0-0.1,0-0.2,0c0.1,0,0.1,0,0.2,0c0,0,0,0,0,0c0,0,0,0.1,0.1,0.1
			c0,0,0,0,0,0c0,0-0.1,0.1,0,0.2c0,0,0.1,0.1,0.2,0.1c0.1,0,0.1,0,0.2-0.1c0.1,0,0.1,0.1,0.2,0.1c0,0,0,0,0,0c0,0,0,0,0,0
			c0,0,0,0,0,0c0,0,0,0,0,0c-0.1,0-0.2,0-0.3-0.1c0,0.1,0.2,0.2,0.3,0.2c0,0,0.1,0,0.1-0.1c0,0,0,0,0,0c0,0,0.1,0,0.1,0.1
			c-0.1,0-0.3,0.1-0.4,0.1c-0.3,0.3-0.7,0.5-1.1,0.7c0,0.3-0.3,0.4-0.5,0.5c0,0.1-0.1,0.2-0.1,0.3c0,0.1-0.1,0.1-0.1,0.1
			c0,0.1-0.1,0.1-0.1,0.1c0,0.3-0.2,0.4-0.3,0.6c-0.1,0.2-0.2,0.4-0.2,0.6c-0.2,0.3-0.3,0.6-0.5,0.9c-0.1,0.3-0.2,0.6-0.2,0.9
			c-0.2,0.5-0.6,0.9-0.8,1.4c0,0.1,0.1,0,0.1,0.1c0,0,0.1,0,0.1,0c-0.4,0.6-0.7,1.3-1.1,1.8c-0.4,0.5-0.8,1.1-1.3,1.6
			c-0.3,0.4-0.7,0.8-1,1.1c-0.4,0.4-0.7,0.7-1.1,1.1c-0.1,0.1-0.3,0.2-0.4,0.3c-0.1,0-0.1,0.1-0.2,0.1c-0.1,0.1-0.2,0.1-0.2,0.1
			c-0.1,0-0.1,0.1-0.1,0.1c-0.1,0-0.1,0.1-0.1,0.1c-0.1,0.1-0.1,0.1-0.2,0.2c-0.2,0.1-0.4,0.2-0.6,0.4c0,0-0.1,0-0.1,0
			c-0.1,0.1-0.3,0.2-0.5,0.3c0,0.2,0,0.2,0,0.4c-0.1,0.1-0.1,0.2-0.2,0.3c-0.1,0.1-0.1,0.2-0.2,0.3c0.1,0.1,0.2,0.1,0.2,0.2
			c0,0,0.1-0.1,0.2-0.1c0,0,0,0,0,0c0,0-0.2,0.2-0.1,0.3c0.1,0.1,0.3,0.1,0.4,0c0.1,0,0,0.2,0,0.2c0.1,0,0.1,0,0.1,0.1
			c0.1,0,0.2,0,0.2-0.1c0,0.1,0.2,0.1,0.3,0.2c0.2-0.1,0.4-0.2,0.6-0.2c0.3-0.3,0.4-0.7,0.6-1.1c0-0.4,0.3-0.6,0.4-0.9
			c0.1-0.1,0.2-0.1,0.2-0.3c0.1-0.1,0.2-0.1,0.2-0.3c0.3-0.2,0.6-0.5,0.9-0.8c0.3-0.3,0.6-0.6,0.9-0.8c0.3-0.2,0.6-0.5,1-0.7
			c0.1-0.1,0.2-0.1,0.3-0.2c0.2-0.2,0.4-0.4,0.6-0.6c0.1-0.2,0.2-0.3,0.3-0.5c0,0,0-0.1,0-0.1c0,0,0,0,0,0c0-0.1,0.1-0.2,0.2-0.3
			c0,0,0,0,0,0c0,0,0,0,0,0c0.1-0.1,0.2-0.2,0.2-0.3c0.3-0.4,0.5-0.8,0.8-1.2c0-0.1,0.1-0.1,0.1-0.2c0.1,0,0.1-0.1,0.2-0.2
			c0.1,0,0.1-0.1,0.2-0.1c0.2,0,0.4,0.1,0.5,0.2c0,0.5-0.1,0.9-0.1,1.5c0,0.1,0.1,0.1,0.1,0.1c0,0,0.1,0.1,0.1,0.1
			c0.1,0,0.2,0.1,0.3,0.1c-0.1,0.1-0.1,0.4-0.1,0.6c0,0.1,0,0.1,0,0.2c-0.1,0.3-0.4,0.5-0.5,0.8c-0.2,0.2-0.3,0.5-0.5,0.8
			c-0.1,0.3-0.1,0.5-0.2,0.7c0,0.4-0.1,0.7-0.2,1c0,0.9-0.2,1.7-0.4,2.5c0,0,0,0,0,0c0,0-0.1,0-0.1-0.1l0,0.2
			c-0.5,0.8-0.8,1.9-1,2.7c-0.2,0.7-0.2,0.8,0.6,0.9c0.6,0.1,1.1,0.3,1.6,0.5c0,0.1,0,0.1,0,0.2c0,0.6,0,1.2,0.1,1.8
			c0,0.6,0.1,1.1,0.1,1.7c0,0.3,0,0.6,0,0.9c0,0.3,0,0.6,0,0.9c0,0.3-0.1,0.5-0.2,0.8c-0.1,0.3-0.1,0.6-0.1,0.8c0,0.3,0,0.7,0,1
			c0,0.3,0.1,0.6,0.1,0.9c0.1,0.5,0.2,0.9,0.3,1.4c0.1,0.4,0.2,0.9,0.3,1.3c0,0.1-0.1,0.1-0.1,0.2c0.1,0.8,0.3,1.7,0,2.4
			c0,0.1,0,0.1,0,0.2c0,0.1-0.1,0.2-0.1,0.3c0,0.2-0.1,0.3-0.1,0.5c-0.2,0.3-0.4,0.5-0.5,0.8c0,0.3-0.1,0.6,0,0.9
			c0.3,0.3,0.8,0.4,1.3,0.5c0.2,0,0.5,0,0.7,0c0.3,0,0.4-0.2,0.6-0.3c0.1-0.6,0-1.2,0.1-1.8c0-0.1-0.1-0.1-0.1-0.2
			c0-0.3,0-0.5-0.1-0.7c0-0.2,0-0.5,0.1-0.7c-0.1-0.5-0.1-1.1-0.1-1.7c0-0.1-0.1-0.2-0.1-0.3c0-1.1,0.3-2,0.4-3c0.1-0.8,0-1.7,0-2.4
			c0-0.2,0.1-0.5,0.1-0.7c0.1-0.6,0-1.2,0-1.9c0.2-1,0.4-1.9,0.6-2.8c0.1,0,0.3,0,0.4,0.1c0,0.6,0,1.2,0,1.7c0,0.1,0,0.2,0,0.2
			c0,0.2,0,0.4,0,0.6c0,0.3-0.1,0.6-0.1,1c-0.1,0.3,0,0.7,0,1.1c0.1,0.3,0.1,0.7,0.2,1c0,0.8-0.1,1.4,0,2.2c0.2,0.9,0.4,1.8,0.4,2.9
			c0,0.2-0.1,0.1-0.1,0.3c0,0.6,0.1,1.2-0.1,1.6c0,0.2,0.1,0.4,0,0.7c-0.1,0.3-0.1,0.6-0.2,0.9c0,0.5,0,1.1,0,1.7
			c0.1,0.1,0.2,0.2,0.2,0.2c0.1,0,0.2,0.1,0.4,0.1c0.5,0,1,0,1.4-0.1c0.3-0.1,0.5-0.1,0.6-0.3c0-0.3,0-0.6,0-0.9
			c-0.1-0.2-0.3-0.4-0.5-0.6c0-0.2-0.1-0.3-0.1-0.5c0-0.1-0.1-0.1-0.1-0.2c0-0.1,0-0.2,0-0.3c-0.1-0.4-0.2-0.8-0.1-1.2
			c0-0.4,0.1-0.8,0.1-1.2c0-0.1-0.1-0.1-0.1-0.2c0.3-1.1,0.5-2.3,0.7-3.6c0-0.3,0-0.6,0-0.9c-0.1-0.6-0.2-1.2-0.4-1.7
			c0-1.5,0.5-2.6,0.8-3.8c0-0.2,0.1-0.4,0.1-0.6c0.1,0,0.2,0,0.3,0c0.8-0.1,2.6,0.1,2.6-1c0-1-0.4-2-0.5-2.9c0-0.4,0-0.7-0.1-1.1
			c0-0.1,0-0.3,0-0.4c0-0.6,0-1.3,0-1.9c-0.1-0.6-0.2-1.2-0.3-1.7c-0.3-0.5-0.5-0.9-0.8-1.3c0-0.1-0.1-0.2-0.1-0.3
			c0-0.1,0.1-0.1,0.1-0.2c-0.1-0.2,0-0.5-0.1-0.6c0.2-0.1,0.3-0.1,0.5-0.2c0,0,0.1-0.1,0.1-0.1c0-0.2,0-0.4,0.1-0.6
			c0-0.2-0.1-0.6,0-1c0-0.1,0.1,0,0.1,0c0.2-0.1,0.5-0.2,0.7-0.3c0.1,0,0.1,0.1,0.2,0.2c0,0.1,0.1,0.1,0.1,0.2
			c0.3,0.4,0.4,0.8,0.7,1.2c0.3,0.5,0.6,1,0.9,1.6c0.2,0.2,0.4,0.5,0.6,0.7c0.3,0.2,0.5,0.4,0.8,0.6c0.1,0.1,0.2,0.2,0.4,0.3
			c0.1,0.1,0.3,0.2,0.3,0.3c0.5,0.5,0.8,1,1.3,1.4c0.1,0.2,0.2,0.4,0.4,0.5c0.1,0.2,0.2,0.3,0.3,0.5c0.1,0.6,0.3,1.1,0.6,1.6
			c0.2,0.1,0.4,0.2,0.6,0.3c0.1-0.1,0.2,0,0.2-0.2c0.1,0,0.1,0.1,0.3,0.1c0,0,0,0,0.1,0c0.1,0,0.1-0.1,0.1-0.2
			c0.1,0,0.1,0.1,0.2,0.1c0.1,0,0.1-0.1,0.2-0.1c0-0.2,0-0.2-0.1-0.3c0.1,0,0.1,0.1,0.2,0.1C95.3,30.5,95.4,30.5,95.4,30.4z M83,7
			C83,7,83,7.1,83,7C83,7.1,83,7,83,7z M78.6,11.8C78.6,11.8,78.6,11.8,78.6,11.8C78.6,11.8,78.6,11.8,78.6,11.8
			C78.6,11.8,78.6,11.8,78.6,11.8C78.6,11.8,78.6,11.8,78.6,11.8z M78.6,9.9C78.6,10,78.6,10,78.6,9.9C78.6,10,78.6,9.9,78.6,9.9z
			 M78.5,10.2C78.5,10.2,78.5,10.2,78.5,10.2C78.5,10.1,78.5,10.2,78.5,10.2z M78.5,10.4C78.5,10.3,78.5,10.3,78.5,10.4
			C78.5,10.3,78.6,10.3,78.5,10.4C78.6,10.3,78.6,10.4,78.5,10.4C78.6,10.4,78.5,10.4,78.5,10.4z M78.6,11.2
			C78.6,11.2,78.6,11.2,78.6,11.2C78.6,11.2,78.6,11.3,78.6,11.2C78.6,11.3,78.6,11.2,78.6,11.2z M78.5,10.8
			C78.5,10.8,78.5,10.7,78.5,10.8C78.6,10.7,78.6,10.7,78.5,10.8c0.1-0.1,0.1-0.1,0.1-0.1C78.6,10.7,78.6,10.8,78.5,10.8z
			 M78.7,10.3C78.6,10.3,78.6,10.3,78.7,10.3C78.6,10.2,78.7,10.1,78.7,10.3z M78.7,9.2c0,0,0-0.2,0-0.2C78.7,9,78.8,9.2,78.7,9.2z
			 M78.7,11.4C78.7,11.4,78.7,11.4,78.7,11.4C78.7,11.4,78.7,11.4,78.7,11.4C78.7,11.4,78.7,11.4,78.7,11.4
			C78.7,11.4,78.7,11.4,78.7,11.4z M78.8,8.9C78.7,8.9,78.8,8.8,78.8,8.9L78.8,8.9z M78.8,12.1c0,0,0,0.1,0,0.1
			C78.8,12.2,78.8,12.2,78.8,12.1c0,0,0-0.1,0-0.1c0,0,0,0,0,0C78.8,12,78.8,12,78.8,12.1z M78.8,12C78.8,12,78.8,12,78.8,12
			C78.8,11.9,78.8,11.9,78.8,12C78.8,11.9,78.8,11.9,78.8,12C78.8,11.9,78.8,11.9,78.8,12c0-0.1,0-0.1,0-0.2c0,0,0,0,0,0
			C78.8,11.9,78.8,11.9,78.8,12z M78.7,8.5C78.7,8.5,78.7,8.4,78.7,8.5c0-0.1,0-0.2,0.1-0.2c0,0,0,0,0,0c0.1,0,0,0,0.1,0
			C78.9,8.3,78.8,8.4,78.7,8.5z M78.9,12.3C78.9,12.3,78.9,12.3,78.9,12.3C78.9,12.3,78.9,12.3,78.9,12.3
			C78.9,12.3,78.9,12.2,78.9,12.3C78.9,12.3,78.9,12.3,78.9,12.3C78.9,12.3,78.9,12.3,78.9,12.3z M79.1,12.6
			C79.1,12.6,79.1,12.6,79.1,12.6C79.1,12.6,79.1,12.6,79.1,12.6C79.1,12.6,79.1,12.6,79.1,12.6C79.1,12.6,79.1,12.6,79.1,12.6z
			 M79.1,12.7C79.1,12.7,79.1,12.7,79.1,12.7C79.1,12.7,79.1,12.7,79.1,12.7C79.1,12.7,79.1,12.7,79.1,12.7
			C79.1,12.7,79.1,12.7,79.1,12.7z M79.3,13.1C79.3,13.1,79.3,13.1,79.3,13.1C79.3,13.1,79.3,13.1,79.3,13.1
			C79.4,13.1,79.3,13.1,79.3,13.1C79.3,13.1,79.3,13.1,79.3,13.1C79.3,13.1,79.3,13.1,79.3,13.1z M79.3,12.9
			C79.3,12.9,79.3,13,79.3,12.9C79.3,13,79.3,13,79.3,12.9C79.3,13,79.3,13,79.3,12.9C79.2,12.9,79.2,12.9,79.3,12.9
			C79.2,12.9,79.3,12.9,79.3,12.9z M79.1,13.6C79.1,13.6,79.1,13.6,79.1,13.6C79,13.5,79,13.5,79,13.5c0.1,0,0.2-0.1,0.3-0.2
			c0,0,0-0.1,0-0.1c0,0,0,0,0,0c0,0.1,0,0.2-0.1,0.3C79.3,13.6,79.2,13.6,79.1,13.6z M79.2,13.8C79.2,13.8,79.2,13.7,79.2,13.8
			c0-0.1,0-0.1,0-0.1C79.3,13.7,79.3,13.7,79.2,13.8c0.1-0.1,0.1-0.1,0.1-0.1c0,0,0,0,0,0c0,0,0.1,0,0.1,0c0,0.1,0,0.1,0.1,0.1
			C79.4,13.8,79.3,13.8,79.2,13.8z M84.4,10C84.4,10.1,84.4,10.1,84.4,10C84.4,10.1,84.4,10,84.4,10z M84.3,9.9
			C84.3,9.9,84.3,9.8,84.3,9.9C84.4,9.8,84.4,9.9,84.3,9.9z M84.1,9.1L84.1,9.1C84.1,9.1,84.1,9,84.1,9.1C84.1,9,84.1,9,84.1,9.1
			C84.1,9,84.1,9.1,84.1,9.1z M84.1,8.2C84.1,8.2,84.1,8.2,84.1,8.2C84.1,8.2,84.1,8.1,84.1,8.2C84.1,8.2,84.1,8.2,84.1,8.2z
			 M84.1,8.4C84.1,8.4,84.1,8.4,84.1,8.4C84,8.5,84,8.5,84.1,8.4C84,8.4,84,8.4,84.1,8.4C84.1,8.4,84.1,8.4,84.1,8.4z M84.7,11.7
			C84.7,11.8,84.7,11.8,84.7,11.7C84.7,11.8,84.7,11.8,84.7,11.7C84.7,11.8,84.7,11.8,84.7,11.7z M84.8,11.3
			C84.8,11.3,84.8,11.3,84.8,11.3C84.8,11.3,84.8,11.3,84.8,11.3C84.8,11.3,84.8,11.3,84.8,11.3z M85.4,14.4
			C85.4,14.4,85.4,14.4,85.4,14.4C85.4,14.4,85.4,14.4,85.4,14.4z M85.5,14.3C85.5,14.3,85.5,14.3,85.5,14.3c0-0.1,0-0.2,0-0.3
			c0,0,0,0,0,0c0,0,0,0,0.1,0c0,0.1,0,0.1,0,0.2C85.5,14.2,85.5,14.3,85.5,14.3z M85.6,13C85.6,13,85.6,13,85.6,13
			C85.5,13,85.5,13,85.6,13C85.5,13,85.5,13,85.6,13z M85.5,13c0,0,0.1,0,0.1,0c0,0,0,0,0,0.1c0,0,0,0.1-0.1,0.1c0,0,0,0,0,0
			C85.5,13.2,85.5,13.2,85.5,13C85.4,13.1,85.4,13.1,85.5,13c-0.1,0-0.1,0-0.1-0.1C85.4,13,85.4,13,85.5,13z M85.3,12.6
			C85.3,12.6,85.3,12.6,85.3,12.6C85.3,12.6,85.2,12.6,85.3,12.6c0-0.1-0.1-0.1-0.1-0.1c0,0,0,0,0.1,0
			C85.3,12.5,85.3,12.6,85.3,12.6z M85.2,12.4C85.2,12.4,85.1,12.4,85.2,12.4c-0.1-0.1-0.1-0.1-0.1-0.1
			C85.1,12.3,85.2,12.3,85.2,12.4z M85.3,10.9C85.3,10.9,85.3,10.9,85.3,10.9C85.3,10.9,85.3,10.9,85.3,10.9
			C85.3,10.9,85.3,10.9,85.3,10.9C85.2,11,85.2,11,85.2,11c0,0-0.1-0.1-0.1-0.1c0,0,0,0,0,0c0,0,0,0,0,0c0,0,0.1,0,0.1-0.1
			C85.2,10.8,85.3,10.8,85.3,10.9z M85.1,10.6C85.1,10.6,85.1,10.6,85.1,10.6c0.1,0.1,0.1,0.1,0.1,0.1c0,0-0.1,0-0.1,0c0,0,0,0,0,0
			C85,10.7,85,10.6,85.1,10.6C85,10.6,85,10.6,85.1,10.6z M84.6,10.3C84.6,10.3,84.6,10.2,84.6,10.3C84.7,10.2,84.7,10.2,84.6,10.3
			C84.7,10.2,84.7,10.2,84.6,10.3C84.7,10.3,84.7,10.3,84.6,10.3C84.6,10.3,84.6,10.3,84.6,10.3z M84.6,10.3
			C84.6,10.3,84.6,10.3,84.6,10.3C84.6,10.3,84.7,10.3,84.6,10.3C84.7,10.3,84.6,10.4,84.6,10.3C84.6,10.4,84.6,10.3,84.6,10.3z
			 M84.7,10.4C84.7,10.4,84.7,10.4,84.7,10.4C84.8,10.5,84.8,10.5,84.7,10.4c0.1,0.2,0.1,0.3,0.2,0.4c0,0,0,0,0.1,0.1c0,0,0,0,0,0
			c0,0,0,0,0,0c0,0,0,0-0.1,0c0,0-0.1,0-0.1,0c0,0-0.1,0-0.1-0.1c0,0-0.3-0.3-0.1-0.3c0,0,0,0,0,0C84.6,10.5,84.6,10.5,84.7,10.4
			C84.7,10.5,84.7,10.5,84.7,10.4z M84.6,9.9C84.6,9.9,84.6,9.9,84.6,9.9C84.5,10,84.6,10,84.6,9.9C84.5,9.9,84.5,9.9,84.6,9.9
			C84.5,9.9,84.5,9.9,84.6,9.9C84.6,9.9,84.6,9.9,84.6,9.9z M84.5,9.8C84.5,9.8,84.5,9.8,84.5,9.8C84.5,9.8,84.5,9.8,84.5,9.8
			C84.5,9.8,84.5,9.8,84.5,9.8C84.5,9.8,84.5,9.8,84.5,9.8z M84.5,10.1c0-0.1,0.1-0.1,0.1-0.2c0,0,0,0,0,0c0,0,0,0,0,0
			C84.6,10,84.6,10.1,84.5,10.1C84.5,10.2,84.5,10.2,84.5,10.1C84.5,10.2,84.5,10.2,84.5,10.1C84.4,10.2,84.5,10.2,84.5,10.1z
			 M84.5,8.9C84.5,8.9,84.5,8.9,84.5,8.9C84.5,8.9,84.5,8.9,84.5,8.9c0,0,0.1,0,0.1,0c0,0,0,0.1,0,0.1c0,0,0,0.1,0,0.1c0,0,0,0,0,0
			c-0.1,0-0.1,0.1-0.2,0.1c0,0,0-0.1,0-0.1c0,0,0-0.1,0-0.1c0,0,0,0,0,0c0,0,0,0,0,0c0,0,0,0,0-0.1C84.3,9,84.4,8.9,84.5,8.9
			C84.4,8.9,84.5,8.9,84.5,8.9z M84.2,8.7c0.1,0,0.2,0,0.2,0c0,0,0,0,0,0C84.3,8.7,84.3,8.7,84.2,8.7C84.2,8.7,84.2,8.7,84.2,8.7
			C84.2,8.7,84.2,8.7,84.2,8.7z M84.2,9.1C84.2,9.1,84.2,9.2,84.2,9.1C84.2,9.2,84.2,9.2,84.2,9.1C84.2,9.2,84.2,9.2,84.2,9.1
			C84.2,9.2,84.2,9.1,84.2,9.1z M84.2,9.4C84.2,9.5,84.2,9.5,84.2,9.4C84.2,9.5,84.2,9.5,84.2,9.4C84.2,9.5,84.2,9.5,84.2,9.4z
			 M84.1,7.7c0.1,0.1,0.1,0.2,0.1,0.3c0,0,0,0.1,0,0.1c0-0.2-0.1-0.3-0.2-0.4C84.1,7.7,84.1,7.7,84.1,7.7z M83.9,7.7
			C83.9,7.7,83.9,7.7,83.9,7.7c0.1,0,0.1,0,0.2,0.1C84,7.8,83.9,7.7,83.9,7.7C83.8,7.7,83.8,7.7,83.9,7.7
			C83.9,7.7,83.9,7.7,83.9,7.7z M83.8,7.8c0.1,0,0.2,0,0.2,0c0,0,0,0,0,0c0,0.1,0.1,0.2,0.1,0.2c0,0-0.2-0.1-0.2-0.1
			C83.9,7.8,83.8,7.8,83.8,7.8C83.8,7.7,83.8,7.8,83.8,7.8z M83.8,7.9c0,0-0.1,0-0.1,0C83.8,7.9,83.8,7.9,83.8,7.9z M83.5,7.6
			C83.5,7.5,83.6,7.5,83.5,7.6C83.6,7.6,83.5,7.7,83.5,7.6z M83.5,7.2C83.5,7.2,83.5,7.2,83.5,7.2c0.1,0.1,0.1,0.1,0.1,0.1
			c0,0,0,0-0.1,0C83.5,7.3,83.5,7.3,83.5,7.2C83.4,7.3,83.4,7.3,83.5,7.2C83.5,7.2,83.4,7.2,83.5,7.2C83.4,7.2,83.4,7.2,83.5,7.2z
			 M83.4,7.4C83.4,7.4,83.4,7.4,83.4,7.4C83.4,7.4,83.3,7.5,83.4,7.4C83.3,7.4,83.4,7.4,83.4,7.4z M82.7,6.8
			c0.1,0.1,0.1,0.2,0.2,0.2c0,0,0,0,0,0c0,0,0,0,0-0.1C82.7,6.9,82.7,6.9,82.7,6.8C82.6,6.8,82.6,6.9,82.7,6.8
			C82.6,6.8,82.6,6.8,82.7,6.8C82.6,6.8,82.6,6.8,82.7,6.8z M82.6,6.7c-0.1,0-0.1,0-0.2-0.1c0,0,0,0,0,0C82.5,6.6,82.5,6.6,82.6,6.7
			z M82.4,6.7c0,0,0.1,0,0.1,0C82.5,6.8,82.5,6.8,82.4,6.7C82.4,6.8,82.3,6.8,82.4,6.7C82.4,6.7,82.4,6.7,82.4,6.7z M82.1,6.8
			C82.1,6.8,82.1,6.8,82.1,6.8C82.1,6.8,82.1,6.8,82.1,6.8C82.1,6.8,82.1,6.8,82.1,6.8z M81.7,6.8C81.7,6.8,81.7,6.8,81.7,6.8
			C81.7,6.8,81.7,6.8,81.7,6.8C81.7,6.7,81.7,6.8,81.7,6.8z M80.1,14c0,0-0.1-0.1-0.1-0.1C80.1,13.8,80.2,13.9,80.1,14z M80.1,13.2
			C80.1,13.2,80.1,13.2,80.1,13.2C80.1,13.3,80.1,13.3,80.1,13.2C80.1,13.3,80.1,13.2,80.1,13.2z M80,13.4
			C79.9,13.4,79.9,13.4,80,13.4c-0.1-0.1-0.1-0.1,0-0.1C79.9,13.3,79.9,13.4,80,13.4C80,13.4,80,13.4,80,13.4z M80.3,13.4
			C80.3,13.4,80.2,13.4,80.3,13.4C80.2,13.3,80.2,13.3,80.3,13.4C80.3,13.4,80.3,13.4,80.3,13.4z M80.3,13.6
			C80.4,13.6,80.4,13.6,80.3,13.6C80.3,13.7,80.3,13.6,80.3,13.6C80.3,13.5,80.3,13.5,80.3,13.6L80.3,13.6L80.3,13.6z M80.3,13.7
			C80.3,13.7,80.3,13.7,80.3,13.7C80.3,13.7,80.3,13.7,80.3,13.7C80.3,13.7,80.3,13.7,80.3,13.7C80.3,13.7,80.3,13.7,80.3,13.7z
			 M80.4,13.8c0.1,0,0,0.1,0,0.1C80.4,13.9,80.4,13.8,80.4,13.8C80.3,13.8,80.4,13.8,80.4,13.8z M80.9,13.2
			C80.9,13.3,80.8,13.3,80.9,13.2C80.8,13.2,80.8,13.2,80.9,13.2z M80.7,13.1C80.8,13.1,80.8,13.1,80.7,13.1
			C80.8,13.1,80.8,13.1,80.7,13.1C80.8,13.1,80.7,13.1,80.7,13.1z M80.9,13.3C80.9,13.4,80.8,13.5,80.9,13.3
			C80.9,13.4,80.9,13.3,80.9,13.3z M80.9,13.1c0,0,0,0.1,0,0.1C80.9,13.2,80.8,13.1,80.9,13.1z M81,13.5C81,13.5,81,13.5,81,13.5
			C81.1,13.5,81,13.5,81,13.5z M80.6,13.2C80.6,13.2,80.6,13.2,80.6,13.2C80.6,13.2,80.6,13.2,80.6,13.2
			C80.6,13.2,80.6,13.2,80.6,13.2C80.6,13.2,80.6,13.2,80.6,13.2z M80.7,14c0-0.1,0-0.1,0-0.2c0,0,0,0,0,0
			C80.7,13.9,80.7,13.9,80.7,14C80.7,14,80.7,14,80.7,14z M81.2,6.7C81.2,6.6,81.3,6.6,81.2,6.7L81.2,6.7
			C81.3,6.6,81.3,6.6,81.2,6.7c0.1,0,0.1,0,0.1,0c0,0,0.1,0,0.1,0.1c0,0,0,0,0,0C81.3,6.7,81.2,6.7,81.2,6.7
			C81.2,6.7,81.2,6.7,81.2,6.7C81.2,6.7,81.2,6.7,81.2,6.7z M80.7,6.8C80.7,6.8,80.8,6.8,80.7,6.8C80.8,6.8,80.8,6.8,80.7,6.8
			C80.8,6.8,80.7,6.8,80.7,6.8C80.7,6.8,80.7,6.8,80.7,6.8z M80.7,6.9c0,0,0.1,0,0.1,0c-0.1,0-0.2,0.1-0.2,0.1
			C80.5,6.9,80.6,6.9,80.7,6.9z M79.6,7.6C79.5,7.6,79.5,7.6,79.6,7.6C79.5,7.6,79.6,7.6,79.6,7.6z M79.5,13.1
			C79.5,13.1,79.5,13.1,79.5,13.1c0-0.1,0-0.1,0-0.1C79.5,13,79.5,13,79.5,13.1C79.6,13.1,79.6,13.1,79.5,13.1
			C79.5,13.1,79.5,13.1,79.5,13.1z M79.6,13.5C79.6,13.5,79.5,13.5,79.6,13.5C79.5,13.5,79.5,13.4,79.6,13.5
			C79.5,13.4,79.6,13.4,79.6,13.5C79.6,13.5,79.6,13.5,79.6,13.5z M79.7,13.6C79.7,13.6,79.7,13.6,79.7,13.6
			C79.7,13.6,79.7,13.6,79.7,13.6C79.7,13.6,79.7,13.6,79.7,13.6C79.7,13.6,79.7,13.6,79.7,13.6z M79.8,13.8c-0.1,0-0.1-0.1,0-0.1
			C79.8,13.7,79.8,13.7,79.8,13.8z M79.9,13.9c-0.1,0-0.1-0.1-0.1-0.1C79.9,13.8,79.9,13.9,79.9,13.9z M80.4,13.9c0,0,0-0.1,0.1-0.1
			C80.4,13.9,80.4,13.9,80.4,13.9c0.1,0,0.1,0.1,0.1,0.1c0,0,0,0-0.1,0c0,0,0,0,0,0C80.4,14,80.4,14,80.4,13.9z"/>
		<path id="XMLID_152_" d="M78.7,11.6C78.7,11.6,78.7,11.6,78.7,11.6C78.7,11.6,78.7,11.6,78.7,11.6z"/>
	</g>
	<g id="XMLID_142_">
		<path id="XMLID_143_" d="M52,28.1c-0.1,0-0.3,0-0.3-0.1c-0.1,0-0.2,0-0.2,0c-0.1,0-0.2-0.1-0.3-0.1c-0.3,0-0.7,0-1,0
			c-0.4-0.2-0.6-0.6-0.8-0.9c-0.2-0.4-0.4-0.8-0.6-1.2c-0.2-0.4-0.4-0.8-0.7-1.1c-0.2-0.3-0.6-0.6-0.8-1c0,0,0,0,0-0.1
			c-0.2-0.5-0.5-1-0.6-1.6c0.1,0,0.2-0.1,0.2-0.2c-0.1-0.8-0.3-1.6-0.4-2.4c0-0.2,0-0.3-0.1-0.5c-0.1-0.3-0.2-0.6-0.3-0.9
			c-0.1-0.1-0.2-0.3-0.2-0.5c-0.1-0.1-0.2-0.3-0.3-0.4c-0.2-0.1-0.4-0.3-0.6-0.4c-0.1-0.1-0.2-0.1-0.3-0.2c-0.1,0-0.2-0.1-0.4-0.2
			c-0.2-0.1-0.5-0.2-0.7-0.3c-0.2-0.1-0.5-0.2-0.6-0.4c-0.1,0-0.1-0.1-0.2-0.1c-0.2-0.2-0.4-0.3-0.5-0.5c-0.2-0.2-0.3-0.4-0.5-0.6
			c-0.1-0.3-0.2-0.6-0.2-1c0.1-0.3,0.1-0.6,0.2-0.9c0,0,0.2,0,0.2-0.1c0.1-0.2,0.1-0.6,0.1-0.9c0-0.1,0-0.2,0-0.3
			c0.1-0.1,0.1-0.1,0.2-0.2c0,0,0.1-0.1,0.2-0.1c0.1,0,0.1,0,0.1-0.1c0-0.1,0-0.1,0-0.1c0-0.1,0-0.1-0.1-0.2c0-0.1-0.1-0.1-0.1-0.2
			c0,0,0,0,0,0c-0.1,0-0.1-0.1-0.1-0.2c0,0,0,0,0,0c0.1,0,0.1,0.1,0.2,0.1c0.1,0,0.2,0,0.2,0c-0.1,0-0.2,0-0.3-0.1c0,0,0,0,0,0
			c0-0.1-0.1-0.2-0.2-0.3c0,0-0.1-0.3-0.1-0.3c0,0,0,0,0,0c0.1,0.1,0.1,0.2,0.2,0.3c-0.1-0.1-0.2-0.2-0.2-0.3c0,0,0-0.1,0-0.1
			c0,0,0,0,0,0c0.1,0,0.1,0.1,0.2,0.1c0.1,0.1,0.3,0.2,0.4,0.4c-0.1-0.1-0.1-0.2-0.2-0.3c0,0,0,0,0,0c0.1,0,0.2,0.1,0.3,0.1
			c-0.1,0-0.2-0.1-0.3-0.2c-0.1-0.1-0.2-0.1-0.2-0.2c-0.1,0-0.2-0.1-0.3-0.1c-0.1,0-0.1,0-0.2,0l0,0c0,0,0,0,0,0
			c0.1-0.1,0.2-0.2,0.2-0.2c-0.1,0.1-0.1,0.1-0.2,0.2c0,0,0,0-0.1,0c0,0,0-0.1-0.1-0.1c-0.1,0-0.1-0.1-0.1-0.1c0.1,0,0.1,0,0.2-0.1
			c0.1,0,0.1-0.1,0.2-0.2C41.6,9,41.4,9,41.3,9c-0.1,0-0.2,0-0.2-0.1c0,0,0.1,0,0.1,0c0,0,0.1,0,0.1-0.1c0-0.1,0-0.1,0-0.2
			c0,0.1,0,0.1,0,0.2c0,0.1-0.1,0-0.1,0c-0.1-0.1-0.2-0.1-0.3-0.2c0,0-0.1-0.1-0.1-0.1c0,0,0,0-0.1-0.1c0,0,0,0,0,0c0,0,0,0-0.1,0
			c-0.1,0-0.2,0-0.3-0.1c0.1-0.1,0.1-0.2,0.1-0.3c0,0.1,0,0.2-0.1,0.3c-0.1,0-0.2,0-0.3,0c-0.1,0-0.2-0.1-0.3-0.1c0,0,0,0,0,0
			c0,0,0,0,0,0c0,0,0,0,0,0c0.1-0.2,0.1-0.4,0.1-0.5c0,0.2-0.1,0.3-0.2,0.5c0,0,0,0.1-0.1,0.1c0,0,0,0-0.1,0c0-0.1-0.2-0.3-0.2-0.3
			c0,0,0,0,0,0c0,0,0,0-0.1,0c0-0.1,0-0.1,0-0.2c0-0.1,0.1-0.3,0-0.4c0.1,0.2-0.1,0.4-0.1,0.6c0,0,0,0,0,0c0-0.1-0.1-0.1-0.1-0.2
			c0,0,0.1,0,0.1-0.1c0,0,0-0.1,0.1-0.1c0-0.1,0-0.2,0-0.2c0,0.1-0.1,0.2-0.1,0.2c0,0.1-0.1,0.1-0.1,0.2c0,0,0,0-0.1,0
			c0-0.1,0-0.3,0-0.4c0,0.2,0,0.3-0.1,0.5c0,0,0,0,0,0c0,0,0,0-0.1,0.1c-0.1-0.2-0.2-0.3-0.4-0.3c0.2,0.1,0.3,0.2,0.3,0.4
			c0,0,0,0,0,0c0,0-0.1,0.1-0.1,0.1c0,0-0.1,0.1-0.1,0.1c0,0,0,0-0.1,0c-0.1,0-0.2,0-0.3,0c-0.1,0-0.2,0-0.3,0c0.1,0,0.1,0,0.2,0
			c0,0-0.1,0-0.1,0.1c-0.1,0-0.2,0.1-0.3,0.1c-0.1,0-0.2,0-0.3-0.1c0.1,0.1,0.2,0.1,0.3,0.1c0.1,0,0.2,0,0.3,0
			c0.1,0,0.2-0.1,0.3-0.1c0,0,0,0,0,0c0,0,0.1,0,0.2,0c0,0,0,0.1,0,0.1c0,0,0,0,0,0.1c-0.1,0-0.1,0-0.2,0c-0.1,0.1-0.2,0.1-0.3,0.2
			c0,0-0.1,0-0.1,0c-0.1,0-0.1,0-0.2-0.1c-0.1,0-0.1,0-0.2,0c-0.1,0-0.1,0-0.2,0c0,0-0.1-0.1-0.1-0.1c0,0,0,0,0,0
			c-0.1-0.1-0.1-0.1-0.1-0.2c0,0.1,0.1,0.2,0.2,0.3c0,0,0,0-0.1,0c-0.1,0-0.2,0-0.3-0.1c0.1,0.1,0.2,0.2,0.3,0.1c0,0,0.1,0,0.1,0
			c0,0,0.1,0.1,0.1,0.1c0,0,0.1,0.1,0.1,0.1c-0.1,0-0.3,0-0.4,0c0.2,0.1,0.3,0.1,0.5,0.1c0,0,0,0,0,0c-0.1,0-0.2,0.1-0.3,0.2
			c-0.1,0-0.1,0.1-0.2,0.1c-0.1,0-0.2,0.1-0.3,0c-0.1,0-0.2-0.1-0.3-0.1c0.1,0.1,0.2,0.2,0.3,0.2c0.1,0,0.2,0,0.3,0c0,0,0,0,0,0
			c-0.1,0.1-0.1,0.1-0.2,0.2c-0.1,0.1-0.2,0.3-0.4,0.2c0.1,0,0.2,0,0.3,0c0.1,0,0.1-0.1,0.2-0.1c0,0,0,0,0,0c0,0,0,0,0,0
			c0.1-0.1,0.2-0.2,0.2-0.2c0,0,0,0,0.1,0c-0.1,0.1-0.1,0.2-0.2,0.3c0,0,0,0-0.1,0.1c-0.1,0.1-0.1,0.2-0.2,0.2c0,0,0,0,0,0
			c-0.1,0-0.2,0-0.3,0c0,0,0.1,0.1,0.2,0.1c0,0,0,0,0,0c0,0-0.1,0.1-0.1,0.1c-0.1,0.1,0,0.1,0,0.2c0,0,0,0,0,0
			c-0.2,0-0.3-0.2-0.3-0.4c0,0.1,0,0.2,0.1,0.3c0,0.1,0.1,0.1,0.1,0.2c0,0,0,0.1,0.1,0.1c0,0,0,0,0,0c-0.1,0-0.1,0.1-0.2,0.1
			c0,0-0.1-0.1-0.1-0.1c0,0,0,0.1,0.1,0.1c-0.1,0-0.2-0.1-0.3-0.2c0.1,0.1,0.1,0.2,0.3,0.3c0,0,0.1,0,0.1,0c0,0,0,0,0,0c0,0,0,0,0,0
			c0,0,0,0,0,0c-0.1,0-0.2,0.1-0.3,0.2c-0.1,0.1-0.1,0.2-0.1,0.3c0.1-0.1,0.1-0.2,0.2-0.2c0,0,0,0,0.1-0.1c0,0,0,0.1,0,0.1
			c0,0.1-0.1,0.2-0.1,0.2c0.1-0.1,0.2-0.2,0.3-0.3c0,0,0,0,0,0c0,0.2,0,0.3-0.1,0.5c0,0.1-0.1,0.1-0.2,0.2c-0.1,0-0.2,0-0.2,0
			c0.1,0,0.2,0,0.3,0c0.1,0,0.2-0.1,0.2-0.2c0.1-0.1,0.1-0.2,0.1-0.3c0,0.1,0,0.1,0,0.2c0,0.1-0.1,0.2-0.1,0.3c0,0,0,0,0,0
			c-0.1,0.1-0.1,0.1-0.2,0.2c0.1,0,0.2,0,0.2-0.1c0,0,0,0,0,0c0,0,0,0,0,0c0,0,0,0,0,0c0.1-0.1,0.1-0.1,0.2-0.2c0,0,0,0,0,0
			c0,0.1,0.1,0.2,0,0.3c0,0.1,0,0.3,0,0.4c0,0.1,0.1,0.2,0.1,0.3c0,0.1,0,0.2,0,0.4c0.1,0,0.2-0.1,0.3-0.1c0,0.1,0.1,0.1,0.2,0.2
			c0.1,0.2,0.2,0.4,0.3,0.7c0.1,0.1,0.2,0.2,0.2,0.2c0,0.1,0.1,0.2,0.2,0.3c0.1,0.2,0.3,0.3,0.5,0.5c0.1,0,0.1,0.1,0.2,0.1
			c0,0.1,0.1,0.1,0.2,0.2c0.1,0.3,0.2,0.5,0.2,0.8c-0.1,0-0.3,0-0.4,0.1c0,0.1-0.1,0-0.1,0.1c0,0,0,0,0,0.1C38.1,16,38,16,38,16.1
			c-0.2,0.1-0.4,0.2-0.7,0.3c-0.1,0.1-0.3,0.1-0.4,0.2c-0.2,0.1-0.4,0.3-0.7,0.4c-0.2,0.1-0.4,0.3-0.6,0.5c-0.1,0.1-0.2,0.3-0.3,0.4
			c-0.3,0.6-0.5,1.3-0.6,2c0,0.1,0,0.2,0,0.3c-0.1,0.6-0.3,1.3-0.3,2c0,0.1,0.1,0.1,0.1,0.1c0.1,0,0.1,0,0.1,0.1
			c-0.2,0.5-0.4,0.9-0.5,1.4c-0.2,0.4-0.6,0.7-0.8,1c-0.1,0.2-0.3,0.4-0.4,0.6c-0.1,0.2-0.2,0.4-0.3,0.6c-0.2,0.4-0.4,0.8-0.6,1.3
			c-0.1,0.2-0.2,0.4-0.4,0.6c0,0.1-0.1,0.2-0.2,0.3c-0.1,0.1-0.2,0.2-0.3,0.2c-0.3,0-0.6,0-0.9,0c-0.1,0-0.2,0.1-0.4,0.1
			c-0.1,0.1-0.2,0.1-0.3,0.2c-0.1,0.1-0.2,0.1-0.2,0.3c0,0.1,0.1,0.1,0.2,0.2c0.2,0.1,0.3-0.1,0.5-0.1c0.2,0.2-0.1,0.4-0.1,0.7
			c0,0,0,0.1-0.1,0.2c-0.1,0.2-0.2,0.3-0.2,0.5c0,0,0,0.1,0.1,0.1c0,0,0,0.1,0.1,0.1c0,0.1,0.2,0,0.3,0c0,0.1,0.1,0.2,0.2,0.3
			c0.1,0,0.3,0,0.4-0.1c0.1,0.1,0.2,0.1,0.3,0.2c0.1,0,0.2-0.1,0.3-0.2c0.1,0,0.1,0.1,0.3,0.1c0.3-0.1,0.4-0.3,0.6-0.5
			c0.2-0.4,0.4-0.7,0.4-1.2c0.2-0.3,0.3-0.5,0.5-0.7c0.1-0.1,0.2-0.3,0.2-0.4c0.1-0.1,0.2-0.3,0.3-0.4c0-0.1,0.1-0.1,0.1-0.2
			c0.1,0,0.1-0.1,0.2-0.2c0-0.1,0.1-0.1,0.1-0.2C33.9,27,34,27,34,26.9c0.1-0.1,0.2-0.2,0.3-0.3c0.1-0.1,0.2-0.2,0.3-0.4
			c0.1-0.1,0.2-0.3,0.2-0.4c0.1-0.1,0.2-0.3,0.2-0.4c0.2-0.3,0.4-0.5,0.5-0.8c0.3-0.6,0.4-1.3,0.7-1.9c0.1,0.1,0.4,0.1,0.5,0.1
			c0.1,0.9,0.1,1.9,0.1,2.8c0,0.7-0.1,1.4-0.2,2.1c0,0.2-0.1,0.4-0.1,0.6c0,0.1,0.1,0.1,0.1,0.1c0,0.1,0.1,0,0.1,0.1
			c-0.1,0.3-0.1,0.6-0.1,0.9c-0.2,0.5-0.3,1-0.5,1.5c-0.1,0.2-0.2,0.5-0.3,0.7c-0.1,0.3-0.1,0.5-0.2,0.8c-0.1,0.3-0.2,0.6-0.3,1
			c-0.1,0.4-0.1,0.8-0.2,1.1c0,0.2-0.1,0.4-0.1,0.5c-0.1,0.2-0.1,0.5-0.2,0.7c-0.1,0.8-0.2,1.5-0.4,2.2c-0.2,0.7-0.4,1.4-0.6,2.1
			c-0.1,0.4-0.2,0.7-0.3,1c-0.2,0.7-0.4,1.4-0.7,2c-0.1,0.3-0.3,0.6-0.5,0.9c0,0.1-0.1,0.3-0.1,0.4c0,0.5-0.1,1-0.2,1.4
			c-0.1,0.2-0.2,0.3-0.2,0.5c-0.1,0.1-0.2,0.3-0.3,0.5c0,0.1-0.1,0.2-0.1,0.3c0,0.1-0.1,0.2-0.1,0.3c0,0.3,0,0.7,0.1,0.9
			c0.2,0.2,0.5,0.2,0.8,0.2c0.3,0,0.6,0,0.8,0c0,0.1-0.1,0.2-0.1,0.3c0,0.1-0.1,0.2-0.1,0.3c0,0,0,0,0,0c0,0.1-0.1,0.1-0.1,0.2
			c-0.1,0.2-0.3,0.4-0.4,0.6c0,0.1,0,0.2,0,0.3c0.1,0.1,0.2,0.2,0.3,0.3c0.2,0,0.4,0.1,0.6,0.2c0.3,0.1,0.7,0,1.1,0
			c0.4-0.1,0.6-0.2,0.8-0.4c0.1-0.2,0.1-0.3,0.1-0.6c-0.1-0.3-0.1-0.5-0.2-0.8c0-0.1,0-0.3,0-0.4c0-0.1,0-0.2-0.1-0.2
			c0-0.1-0.1-0.2-0.1-0.2c0.3-0.1,0.6-0.1,0.8-0.2c0.1-0.2,0.2-0.6,0.1-0.8c0.1-0.7,0.3-1.5,0.5-2.1c0-0.7,0.1-1.2,0.3-1.8
			c0.2-0.6,0.4-1.2,0.5-1.8c0.1-0.3,0.2-0.6,0.3-0.9c0.1-0.2,0.2-0.4,0.3-0.6c0-0.1,0.1-0.1,0.1-0.2c0.1-0.2,0.1-0.4,0.1-0.6
			c0-0.2,0.1-0.4,0.2-0.6c0.2-0.4,0.4-0.8,0.5-1.2c0.5-0.9,0.7-2.2,1.1-3.1c0.1-0.2,0.2-0.4,0.3-0.6c0.2-0.1,0.3-0.3,0.5-0.4
			c0-0.1,0.1-0.1,0.1-0.2c0-0.1,0.1-0.1,0.1-0.1c0.1-0.1,0.1,0,0.1,0.1c0,0.1,0.1,0.1,0.1,0.2c0,0.1,0.1,0.2,0.2,0.3
			c0.3,0.6,0.6,1.3,0.8,2c0.1,0.3,0.1,0.5,0.2,0.7c0.1,0.3,0.2,0.6,0.3,0.9c0.2,0.5,0.4,0.9,0.6,1.4c0.1,0.3,0.2,0.6,0.2,1
			c0.3,0.8,0.7,1.6,0.9,2.6c0.1,0.2,0.1,0.4,0.2,0.7c0.3,0.6,0.4,1.3,0.4,2.2c0.2,0.7,0.4,1.4,0.5,2.2c0,0.1-0.1,0,0,0.1
			c0,0,0,0.1,0,0.1c0,0.2,0,0.4,0.1,0.6c0.2,0.1,0.6,0.1,0.8,0.2c-0.1,0.1-0.1,0.2-0.1,0.3c0,0.3,0,0.5-0.1,0.7
			c0,0.1-0.1,0.2-0.1,0.3c0,0.1-0.1,0.2-0.1,0.3c0,0.2,0,0.4,0.1,0.6c0.1,0.2,0.3,0.3,0.5,0.4c0.4,0.1,0.9,0.2,1.5,0.1
			c0.2-0.1,0.3-0.1,0.5-0.1c0.1-0.1,0.3-0.2,0.3-0.3c0-0.1,0-0.2,0.1-0.3c-0.1-0.3-0.3-0.5-0.5-0.8c-0.1-0.1-0.1-0.3-0.2-0.4
			c0-0.1-0.1-0.1-0.1-0.2c0,0,0-0.1,0-0.1c0,0-0.1-0.1,0-0.1c0.5,0.1,1.3,0.1,1.6-0.1c0-0.1,0-0.1,0.1-0.2c0-0.1,0-0.2,0-0.2
			c0-0.2,0-0.3,0-0.5c0-0.1,0-0.1-0.1-0.1c0,0-0.1-0.1-0.1-0.1c0-0.1-0.1-0.2-0.1-0.3c-0.1-0.2-0.2-0.3-0.3-0.5
			c-0.1-0.2-0.1-0.3-0.2-0.5c0-0.5-0.1-0.9-0.1-1.4c-0.1-0.1-0.1-0.2-0.1-0.4c-0.4-0.5-0.6-1.1-0.8-1.8c-0.2-0.6-0.4-1.4-0.6-2
			c-0.2-1.2-0.6-2.3-0.8-3.5c0-0.3-0.1-0.7-0.1-1C46.1,35.6,46,35.3,46,35c-0.1-0.6-0.2-1.3-0.3-1.9c0.1,0,0.1,0,0.2,0
			c0.1,0,0.2,0,0.2-0.1c0.1-0.1,0-0.2,0-0.4c-0.1-0.1,0-0.2-0.1-0.3c0-0.1-0.2,0-0.2,0c-0.1,0-0.1,0-0.2,0c-0.2-1-0.6-1.9-0.9-2.8
			c0-0.3-0.1-0.6-0.1-0.9c0-0.1,0.1-0.1,0.1-0.1c0,0,0.1-0.1,0.1-0.2c-0.2-0.8-0.3-1.7-0.3-2.7c-0.1-1,0-2,0.1-2.9
			c0.2,0,0.3-0.1,0.5-0.1c0.1,0.3,0.2,0.6,0.3,0.9c0.1,0.3,0.2,0.7,0.3,0.9c0,0.2,0.1,0.3,0.2,0.4c0.2,0.3,0.4,0.6,0.6,0.8
			c0.1,0.1,0.1,0.2,0.2,0.3c0.2,0.3,0.4,0.5,0.6,0.7c0.1,0.1,0.2,0.2,0.3,0.3c0.1,0,0.1,0.1,0.2,0.2c0,0.1,0.1,0.1,0.1,0.2
			c0.1,0.1,0.2,0.2,0.3,0.3c0.1,0.1,0.2,0.2,0.3,0.4c0.2,0.2,0.4,0.5,0.5,0.7c0,0.2,0.1,0.3,0.1,0.4c0.1,0.2,0.2,0.5,0.4,0.7
			c0.2,0.2,0.3,0.4,0.6,0.5c0.1,0,0.1-0.1,0.3-0.1c0.1,0,0.2,0.1,0.3,0.1c0.2,0,0.2-0.1,0.3-0.2c0.1,0.1,0.2,0.1,0.4,0.1
			c0.1-0.1,0.2-0.2,0.2-0.3c0.1,0,0.2,0,0.3,0c0-0.1,0.1-0.1,0.1-0.2c0-0.3-0.2-0.5-0.2-0.7c-0.1-0.1-0.1-0.3-0.1-0.4
			c-0.1-0.1,0-0.3,0.1-0.3c0.2,0,0.2,0.1,0.4,0.1c0.1-0.1,0.3-0.1,0.2-0.3C52.2,28.2,52,28.2,52,28.1z M42.1,10.2
			C42.1,10.2,42.1,10.2,42.1,10.2C42.1,10.2,42.1,10.2,42.1,10.2C42.1,10.2,42.1,10.2,42.1,10.2z M36.2,10.6
			C36.2,10.6,36.2,10.6,36.2,10.6C36.2,10.6,36.3,10.6,36.2,10.6C36.3,10.6,36.3,10.6,36.2,10.6C36.3,10.6,36.2,10.6,36.2,10.6z
			 M36.3,11.5c0,0-0.1,0.1-0.1,0.1c0.1-0.1,0.1-0.2,0.2-0.2c0,0,0,0,0,0C36.3,11.4,36.3,11.5,36.3,11.5z M40.3,8.5
			C40.3,8.5,40.3,8.5,40.3,8.5C40.3,8.5,40.3,8.5,40.3,8.5z M38.8,7.6C38.8,7.6,38.8,7.6,38.8,7.6C38.8,7.6,38.8,7.6,38.8,7.6
			c0.1,0,0.1,0.1,0.1,0.2c0,0,0,0,0,0c0,0,0,0,0,0.1c0,0,0,0,0,0c0,0,0,0.1,0,0.1c0,0,0,0,0,0.1c0,0,0,0,0,0c0-0.1-0.1-0.2-0.1-0.3
			C38.7,7.6,38.8,7.7,38.8,7.6z M37.1,8.7C37.1,8.7,37.1,8.7,37.1,8.7c0.1-0.1,0.1,0,0.2,0c0,0,0,0,0,0c0,0,0,0,0,0
			C37.2,8.8,37.1,8.7,37.1,8.7z"/>
	</g>
	<g id="XMLID_130_">
		<path id="XMLID_132_" d="M32.1,28.9c-0.3-0.3-0.6-0.4-0.9-0.7c-0.1,0-0.2-0.1-0.3-0.1c0,0,0-0.1-0.1-0.1c0,0-0.1,0-0.1,0
			c-0.1,0-0.1-0.1-0.2-0.1c-0.1-0.1-0.2-0.1-0.2-0.2c-0.1,0-0.1-0.1-0.1-0.1c-0.4-0.4-0.9-0.8-1.3-1.3c-0.4-0.3-0.7-0.7-1-1.1
			c-0.3-0.3-0.7-0.7-1-1c-0.3-0.2-0.5-0.4-0.7-0.5c-0.1-0.3-0.4-0.4-0.5-0.7c-0.1-0.1-0.2-0.2-0.3-0.4c-0.1,0-0.1-0.1-0.2-0.2
			c0-0.1-0.1-0.1-0.1-0.2c0-0.1,0.1-0.1,0.1-0.2c-0.3-0.4-0.7-0.8-1-1.2c-0.1-0.3-0.2-0.5-0.3-0.7c-0.3-0.3-0.6-0.6-0.8-0.9
			c0-0.1-0.1-0.2-0.2-0.4c-0.1-0.1-0.2-0.1-0.3-0.2c-0.1-0.1-0.1-0.2-0.2-0.3c-0.1-0.1-0.2-0.1-0.3-0.2c0-0.1-0.1-0.2-0.1-0.3
			c-0.3-0.1-0.5-0.2-0.6-0.5c-0.2-0.1-0.3-0.2-0.5-0.2c-0.2-0.1-0.3-0.2-0.5-0.3c-0.2,0-0.3-0.1-0.5-0.1c-0.1-0.1-0.2-0.2-0.4-0.2
			c-0.1-0.1-0.2-0.3-0.3-0.4c-0.1,0-0.2,0-0.2-0.1c-0.1-0.3-0.2-0.6-0.2-0.9c0.1,0,0.2,0.1,0.3,0.2c0.1-0.1,0.1-0.2,0.1-0.2
			c0,0.1,0.1,0.2,0.1,0.2c0.1,0.1,0.1,0.2,0.2,0.2c0-0.1-0.1-0.2-0.1-0.3c0.1,0,0.1,0.1,0.2,0c0,0,0-0.1,0-0.1c0.1,0,0.2,0.1,0.3,0
			c0,0,0,0,0,0c0.1,0.1,0.2,0.1,0.3,0.2c-0.1-0.1-0.2-0.2-0.4-0.3c0,0,0-0.1,0-0.1c0,0,0.1,0,0.1,0c0.1,0.1,0.3,0.2,0.5,0.2
			c-0.1,0-0.2-0.1-0.2-0.1c0,0,0,0,0.1,0c0,0,0-0.1,0-0.1c0.1,0,0.2,0.1,0.3,0c-0.1,0-0.1,0-0.2,0c0,0,0,0,0.1,0c0,0-0.1,0-0.1,0
			c0,0-0.1,0-0.1-0.1c-0.1-0.1-0.2-0.1-0.3-0.2c0,0,0-0.1-0.1-0.1c0,0,0,0,0,0c0.1-0.1,0.2,0,0.3,0.1c0.1,0,0.2,0.1,0.2,0.1
			c-0.1,0-0.1-0.1-0.2-0.1c0,0,0,0-0.1-0.1c0,0,0,0,0,0c0.1,0.1,0.3,0.1,0.4,0.1c0,0-0.1,0-0.1,0c0,0,0.1,0,0.1,0
			c0.2,0,0.5,0,0.6-0.2c-0.2,0.1-0.4,0.1-0.5,0.1c0.1,0,0.2,0,0.3,0c-0.1,0-0.2,0-0.3-0.1c0,0,0,0,0,0c0,0,0,0,0,0
			c0.1,0,0.2,0,0.3-0.1c-0.1,0-0.3,0-0.4-0.1c0,0,0,0,0,0c0,0,0,0,0-0.1c0.1,0,0.2,0,0.2,0c0.2,0,0.3-0.1,0.4-0.3
			c-0.1,0.1-0.3,0.2-0.5,0.2c0,0,0,0-0.1,0c0.2-0.1,0.3-0.2,0.4-0.4c-0.2,0.1-0.3,0.2-0.5,0.2c0,0,0,0,0,0c0,0,0-0.1,0.1-0.1
			c0,0,0,0,0.1,0c0.1-0.1,0.2-0.2,0.2-0.3c-0.1,0.1-0.1,0.1-0.2,0.2c0,0,0-0.1,0-0.1c-0.1,0-0.1,0.1-0.1,0.2c0,0-0.1,0-0.1,0
			c0,0-0.1,0-0.1-0.1c0.1,0,0.2,0,0.2-0.1c0.1-0.1,0.1-0.2,0.2-0.3c-0.1,0.1-0.1,0.2-0.2,0.2c-0.1,0.1-0.2,0.1-0.3,0.1
			c-0.1,0-0.2-0.1-0.3-0.1c0,0,0-0.1,0-0.1c0.2,0,0.4,0,0.6-0.1c0,0,0,0,0,0c0.1,0,0.2,0,0.2-0.1c-0.1,0-0.2,0-0.3,0
			c0,0-0.1,0-0.1,0c-0.1,0-0.1-0.1-0.2-0.1c0,0-0.1-0.1-0.1-0.1c0.2,0,0.3-0.1,0.5-0.2c-0.2,0-0.3,0.1-0.5,0.1c0,0-0.1,0-0.1,0
			c0,0,0,0,0-0.1c0.1,0.1,0.3,0,0.4,0c0,0,0,0,0,0c0.1,0,0.1,0,0.2,0c-0.2,0-0.4-0.1-0.5-0.2c0,0,0,0,0,0c0,0,0.1,0,0.1-0.1
			c0.2,0,0.3-0.1,0.4-0.3c-0.1,0.1-0.3,0.2-0.4,0.2c0,0-0.1,0-0.1,0c0,0,0,0,0,0c0,0,0,0,0,0c0.1,0,0.3-0.1,0.3-0.2
			C20.1,12,20,12,19.9,12c-0.1,0-0.2,0-0.3-0.1c0,0,0,0-0.1-0.1c0-0.1,0-0.1,0-0.2c0,0-0.1-0.1-0.1-0.1c0,0,0,0,0-0.1
			c0.1,0.1,0.2,0.2,0.3,0.3c0,0,0.1,0,0.1,0c0,0,0.1,0,0.1-0.1c0-0.1,0-0.1,0-0.2c0,0.4-0.2,0-0.3-0.2c-0.1-0.2-0.2-0.5-0.4-0.7
			c-0.1-0.2-0.3-0.4-0.4-0.7c-0.2-0.2-0.4-0.4-0.6-0.6c-0.1-0.1-0.2-0.1-0.3-0.1c-0.1-0.1-0.1-0.1-0.2-0.2C17.3,9,17,8.9,16.7,8.9
			c0,0-0.1,0-0.1,0c-0.1,0-0.2,0-0.3,0c-0.5,0.1-0.7,0.3-1,0.5c-0.2,0.3-0.4,0.6-0.5,0.9c0,0.1-0.1,0.3-0.1,0.4
			c-0.1,0.2-0.1,0.5-0.2,0.7c-0.1,0.4-0.2,0.8-0.1,1.2c0,0,0,0,0,0.1c0,0-0.1,0.1-0.1,0.1c-0.1,0-0.2,0-0.2,0
			c0.1,0.1,0.1,0.1,0.2,0.1c0,0,0.1,0,0.1,0c0,0,0,0.1,0,0.1c0,0.1-0.1,0.1-0.2,0.2c-0.2,0.1-0.3,0.1-0.5,0c0.1,0.1,0.2,0.2,0.4,0.2
			c-0.2,0-0.3,0-0.5,0c0.2,0.1,0.3,0.1,0.5,0.1c0,0,0,0,0,0c0,0,0.1,0,0.1,0c-0.2,0.2-0.3,0.3-0.6,0.4c0.1,0,0.3,0,0.4,0
			c0,0,0,0,0,0c0,0,0,0,0,0c-0.1,0.1-0.3,0.2-0.5,0.2c0.2,0,0.4,0,0.6-0.2c0,0,0,0,0.1-0.1c0,0,0,0,0,0c0,0,0,0,0,0
			c-0.1,0.1-0.2,0.2-0.3,0.2c0.1,0,0.3-0.1,0.3-0.2c0,0,0.1-0.1,0.1-0.1c0,0,0.1-0.1,0.1-0.1c0,0.1-0.1,0.1,0,0.2
			c-0.1,0.1-0.1,0.2-0.2,0.3c0,0-0.1,0-0.1,0.1c-0.1,0-0.3,0-0.4,0c0.1,0.1,0.2,0.2,0.4,0.2c0,0,0.1,0,0.1,0c0.1,0,0.2,0,0.3,0
			c0.1,0,0.2-0.1,0.2-0.1c0,0.1,0.1,0.1,0.1,0.1c-0.1,0-0.1,0.1-0.2,0.1c-0.2,0.1-0.4,0.1-0.6,0c0.2,0.1,0.4,0.2,0.6,0.1
			c0,0,0,0,0.1,0c-0.1,0.1-0.2,0.1-0.3,0.1c-0.2,0.1-0.4,0-0.5-0.1c0,0.1,0.1,0.1,0.2,0.2c0,0.1,0.1,0.1,0.1,0.2c-0.1,0-0.2,0-0.3,0
			c0.1,0.1,0.2,0.1,0.4,0.1c0,0,0,0,0,0c-0.1,0-0.3,0-0.4,0.1c0,0,0,0,0,0c0,0,0,0,0,0c-0.1,0-0.2,0-0.4,0c0.2,0.1,0.4,0.1,0.6,0.1
			c0.1,0,0.1,0,0.2,0c0,0,0,0,0,0c0,0,0,0,0,0c0,0,0.1,0,0.1,0c0,0,0.1,0,0.1,0c-0.2,0.1-0.4,0.1-0.6,0c0,0,0.1,0.1,0.1,0.1
			c-0.1,0-0.2,0-0.4,0c0.2,0,0.4,0.1,0.6,0.1c0.1,0,0.1,0,0.2,0c0.1,0.1,0.3-0.1,0.4-0.1c-0.2,0.1-0.3,0.2-0.5,0.2
			c0.2,0,0.4,0,0.6-0.1c0,0,0,0,0,0c0.1,0,0.1-0.1,0.2-0.1c0,0.1,0,0.1,0,0.2c-0.1,0.2-0.2,0.3-0.3,0.5c-0.1,0.1-0.3,0.2-0.5,0.2
			c0.2,0,0.4,0,0.5-0.1c0.1,0,0.2-0.1,0.2-0.2C15,16.1,15,16,15,16c0,0.1-0.1,0.2-0.2,0.3c0,0-0.1,0-0.1,0c0.2,0,0.3-0.1,0.5-0.2
			c0.1,0,0.1-0.1,0.1-0.2c0,0,0,0,0,0c0,0,0,0,0,0c0,0,0,0,0,0c0,0,0,0,0,0c0-0.1,0.1-0.1,0.2-0.1c0,0.1,0,0.2,0,0.2
			c0,0.1-0.1,0.2-0.1,0.2c-0.1,0-0.2,0-0.3,0c-0.3,0.1-0.7,0.2-1,0.3c-0.1,0.1-0.2,0.2-0.4,0.3c-0.2,0.1-0.3,0.2-0.5,0.2
			c-0.1,0.1-0.2,0.3-0.3,0.4c-0.1,0.1-0.2,0.1-0.3,0.2c-0.1,0.2-0.2,0.4-0.4,0.5c-0.1,0.2-0.2,0.3-0.2,0.5c-0.2,0.3-0.5,0.6-0.7,0.9
			c-0.1,0.2-0.2,0.4-0.2,0.7c-0.3,0.5-0.6,0.9-0.9,1.4c0,0.1,0.1,0.1,0.1,0.2c-0.3,0.4-0.6,1-0.9,1.4c-0.2,0.5-0.5,0.9-0.8,1.3
			c-0.3,0.4-0.5,0.9-0.7,1.3c-0.4,1-1.1,1.7-1.5,2.6c-0.1,0.1-0.2,0.1-0.2,0.2c0,0,0,0.1,0,0.1c-0.1,0.1-0.2,0.2-0.3,0.2
			c0,0.1-0.1,0.1-0.1,0.1c-0.1,0.2-0.2,0.4-0.4,0.5C5.2,29.8,5.1,30,5,30.2c0.1,0.1,0.1,0.3,0.2,0.4c0.1,0.1,0.1,0.3,0.2,0.4
			C5.5,31,5.5,31,5.6,31c0,0.1,0.1,0.1,0.1,0.2c0,0,0.1,0,0.2,0c0.1,0.1,0.1,0.1,0.2,0.1c0.1,0,0.2,0,0.2-0.1c0-0.1,0.1-0.1,0.2-0.1
			c0.2,0,0.3-0.2,0.5-0.2c0.1-0.1,0.3-0.2,0.4-0.3c0-0.2,0-0.3,0-0.5c0-0.2-0.1-0.3-0.1-0.5c0-0.1,0.1-0.2,0.1-0.4
			c0.1-0.1,0.2-0.1,0.2-0.3c0.1-0.2,0.2-0.4,0.4-0.5c0.1-0.2,0.3-0.4,0.4-0.5c0.1-0.2,0.3-0.4,0.4-0.5c0.1-0.2,0.2-0.3,0.3-0.4
			c0,0,0.1-0.1,0.1-0.1c0.3-0.3,0.6-0.7,0.8-1.1c0.3-0.3,0.5-0.8,0.8-1.1c0.3-0.2,0.6-0.5,0.8-0.7c0.1-0.2,0.3-0.3,0.5-0.5
			c0.1-0.1,0.2-0.2,0.3-0.3c0.2,0.1,0.6,0.1,0.7,0.3c0.1,0,0.1,0,0.1,0c0,0,0-0.1,0.1-0.1c0.1,0.5,0.1,1.1,0.1,1.7
			c0.1,0.2,0.1,0.4,0.2,0.7c0.1,0,0.2,0.1,0.3,0.1c-0.1,0-0.2,0.1-0.3,0.1c0,0.2-0.2,0.4-0.3,0.7c-0.1,0.4-0.4,0.9-0.4,1.3
			c-0.1,0.5,0.1,1.1,0,1.6c-0.1,0.6-0.3,1.1-0.4,1.7c-0.1,1-0.2,2.1-0.5,3.1c-0.1,0.4-0.1,0.8-0.2,1.3c-0.1,0.4-0.4,0.6-0.6,0.9
			c0.3-0.1,0.8,0,1.1,0c0,0.1,0,0.3,0,0.4c0.2,0,0.7-0.2,0.9,0c0.2,0.2,0,0.3,0.3,0.3c0.3,0.1,0.5-0.1,0.8,0
			c0.3,0.1,0.4,0.3,0.8,0.2c0.3-0.1,0.5-0.3,0.9-0.2c0.1,0,0.1,0,0.2,0c0.1,0.2,0.2,0.5,0.3,0.7c0,0,0,0,0,0c0,0.4-0.1,0.8-0.2,1.1
			c-0.1,0.3-0.2,0.7-0.2,1.1c0,0.2,0,0.4,0,0.6c-0.2,0.6-0.4,1.3-0.5,2c-0.1,0.3-0.1,0.6-0.1,1c0,0.7-0.1,1.3-0.2,2
			c0,0.1-0.2,0.2-0.2,0.3c-0.1,0.6-0.2,1.1-0.4,1.5c0,0.3-0.1,0.7-0.2,0.9c0,0.1,0,0.2,0,0.4c-0.1,0.1-0.1,0.2-0.1,0.4
			c0.1,0.6-0.1,1.1,0,1.7c0.1,0,0.1,0.1,0.1,0.1c0.1,0,0.1,0,0.2,0.1c0.5,0,0.9,0,1.3-0.1c0.4-0.1,0.7-0.2,0.9-0.4
			c0-0.3-0.1-0.5,0-0.8c-0.1-0.2-0.3-0.3-0.4-0.5C16.1,49,16,48.9,16,48.6c0-0.1-0.1-0.1-0.2-0.3c0-0.3,0-0.6,0.1-0.9
			c0.2-0.4,0.3-0.9,0.5-1.3c0-0.1-0.1-0.1,0-0.2c0.3-0.5,0.5-0.9,0.7-1.4c0.1-0.3,0.2-0.5,0.4-0.7c0-0.1,0.1-0.3,0.2-0.4
			c0.1-0.1,0.1-0.3,0.2-0.4c0.1,0.4,0.3,0.7,0.4,1c0.2,0.3,0.3,0.6,0.5,0.9c0.3,0.6,0.7,1.2,1.1,1.8c0,0.1-0.2,0-0.1,0.2
			c0.3,0.7,0.8,1.3,0.8,2.3c0,0.1-0.1,0.1-0.1,0.2c0,0.4-0.1,0.7-0.1,1c-0.1,0.2-0.2,0.3-0.3,0.5c0,0.4,0,0.9,0.1,1.2
			c0.1,0.1,0.1,0.2,0.2,0.2c0.1,0,0.1,0.1,0.2,0.1c0,0,0,0.1,0.1,0.1c0,0,0.1,0,0.1,0c0,0,0.1,0.1,0.1,0.1c0.1,0,0.3,0.1,0.4,0.1
			c0.1,0,0.1,0,0.2,0c0.4,0,0.8,0,1.1-0.2c0.1-0.1,0.2-0.3,0.3-0.5c0-0.8-0.1-1.3-0.1-2c0-0.2-0.1-0.3-0.1-0.5c0-0.2,0-0.3,0-0.5
			c-0.2-0.4-0.4-0.8-0.5-1.4c-0.3-0.4-0.5-0.9-0.6-1.5c0,0-0.2,0-0.2-0.1c-0.1-0.4-0.3-0.9-0.4-1.4c-0.1-0.5-0.2-1-0.3-1.5
			c-0.2-0.9-0.7-1.7-0.9-2.5c0-0.2-0.1-0.5-0.1-0.7c0-0.3-0.1-0.5-0.2-0.7c-0.2-0.4-0.3-0.8-0.5-1.3c0-0.1,0-0.2,0-0.3
			c0-0.1,0-0.1,0.1-0.2c0,0,0.1,0,0.1,0c0.5,0,1.3,0,1.8-0.2c0.4-0.2,0.5-0.2,0.9-0.1c0.5,0.2,1,0.2,1.5,0c0.3-0.1,0.3,0,0.4-0.4
			c0-0.2,0-0.4-0.1-0.6c-0.1-0.6-0.2-1.1-0.2-1.7c0-1.4-0.2-2.9-0.7-4.3c-0.3-0.8-0.4-1.4-0.5-2.2c-0.1-0.6-0.1-1.1-0.3-1.6
			c-0.2-0.5-0.5-0.9-0.7-1.4c-0.1-0.2-0.1-0.3-0.2-0.4c0,0,0,0,0,0c0,0,0.1,0,0.1-0.1c0-0.3-0.1-0.5-0.2-0.7
			c-0.1-0.2-0.1-0.5-0.2-0.7c0.1-0.2,0.1-0.4,0-0.6c0-0.1,0.1-0.2,0.1-0.3c0.1-0.1,0.2-0.2,0.2-0.4c0,0.1,0,0.3,0,0.4
			c0.3,0.3,0.5,0.6,0.8,0.8c0.1,0.2,0.3,0.4,0.4,0.6c0.1,0,0.1,0.2,0.2,0.2c0.2,0,0.2-0.2,0.4-0.2c0.2-0.1,0.4-0.1,0.5-0.2
			c0.5,0.4,1,0.9,1.5,1.3c0.1,0.1,0.3,0.2,0.4,0.3c0.1,0.1,0.3,0.2,0.4,0.3c0.3,0.2,0.5,0.4,0.8,0.6c0.2,0.2,0.6,0.4,0.8,0.6
			c0.3,0.2,0.5,0.4,0.8,0.6c0.5,0.4,1.1,0.8,1.6,1.3c0.3,0.3,0.3,0.9,0.4,1.4c0.1,0.1,0.3,0.1,0.5,0.2c0.3,0,0.4,0.1,0.6,0
			c0.1,0.1,0.2,0.2,0.3,0.1c0,0,0,0,0,0c0.1,0,0.1-0.1,0.2-0.2c0.1,0,0.2,0,0.2-0.1c0.1,0,0-0.2,0.1-0.2c0.1,0,0.2,0,0.2-0.1
			C32,29.5,32.1,29.2,32.1,28.9z M19.8,13.5c0.1,0,0.2,0.1,0.3,0.1c0,0,0,0,0,0C20,13.6,19.9,13.6,19.8,13.5
			C19.8,13.6,19.8,13.6,19.8,13.5C19.8,13.5,19.8,13.5,19.8,13.5z M6.6,30.6c-0.1,0-0.1-0.1-0.1-0.2c0-0.1,0-0.2-0.1-0.2
			C6.7,30.1,6.7,30.4,6.6,30.6z M15.8,16.1c0,0.1,0,0.1,0,0.2c0,0,0,0-0.1,0C15.8,16.3,15.8,16.2,15.8,16.1
			C15.8,16.1,15.8,16.1,15.8,16.1C15.8,16.1,15.8,16.1,15.8,16.1z M15,15.5C15,15.5,15,15.5,15,15.5C15,15.5,15,15.6,15,15.5
			L15,15.5z M15.2,16.1C15.2,16.1,15.2,16.1,15.2,16.1c-0.1,0.1-0.2,0.2-0.3,0.3c0.1-0.1,0.2-0.2,0.2-0.3c0.1-0.1,0.1-0.2,0.1-0.3
			c0,0,0.1,0,0.1,0C15.3,15.9,15.2,15.9,15.2,16.1z M15.4,16.3c0.1,0,0.1-0.1,0.1-0.2c0,0,0,0,0-0.1c0,0,0.1-0.1,0.1-0.1
			c0,0.1,0,0.1,0,0.2c0,0,0,0,0,0c0,0,0,0.1,0,0.1c0,0-0.1,0-0.1,0C15.5,16.3,15.5,16.3,15.4,16.3z M15.9,16.3
			C15.9,16.3,15.9,16.3,15.9,16.3c0-0.1,0-0.1,0-0.2c0-0.1,0-0.2,0-0.3c0-0.1,0-0.2,0.1-0.2c0.1,0,0.1,0.1,0.1,0.2
			c0.1,0.1,0.1,0.2,0.2,0.3c0,0,0,0,0,0c0,0,0,0,0,0.1C16.1,16.2,16.1,16.3,15.9,16.3z M30.6,29.8c-0.1,0,0-0.1-0.1-0.2
			c0-0.1-0.1-0.1,0-0.2c0,0,0.1-0.1,0.1-0.1c0,0,0,0,0,0C30.7,29.5,30.7,29.7,30.6,29.8C30.7,29.8,30.7,29.8,30.6,29.8z"/>
		<path id="XMLID_131_" d="M13.5,25.6l0,0.2c0,0,0,0,0,0C13.6,25.8,13.5,25.7,13.5,25.6z"/>
	</g>
	<g id="XMLID_124_">
		<path id="XMLID_125_" d="M70.9,28.3c-0.1-0.1-0.2-0.2-0.3-0.3c0-0.1-0.1-0.2-0.2-0.2c-0.2-0.1-0.5-0.2-0.8-0.3c-0.1,0-0.2,0-0.3,0
			c-0.1,0,0-0.1-0.1-0.1c0-0.1-0.1-0.1-0.1-0.1c-0.1-0.1-0.1-0.2-0.2-0.2c-0.1-0.2-0.2-0.3-0.3-0.5c-0.2-0.3-0.4-0.7-0.6-1.1
			c-0.4-0.7-0.8-1.4-1.2-2c-0.2-0.5-0.4-1.1-0.6-1.6c-0.1-0.2-0.2-0.3-0.2-0.5c-0.1-0.2-0.2-0.4-0.2-0.6c-0.1-0.1-0.1-0.3-0.2-0.4
			c-0.1-0.4-0.3-0.7-0.3-1.2c0.1-0.1,0.2-0.1,0.3-0.2c0.1-0.1,0.2-0.2,0.2-0.3c0-0.1-0.1-0.2-0.1-0.3c-0.1-0.2-0.1-0.3-0.2-0.5
			c-0.1-0.1-0.2-0.2-0.2-0.4c-0.1-0.1-0.2-0.3-0.3-0.4c-0.1-0.1-0.2-0.2-0.3-0.2c-0.2-0.2-0.4-0.3-0.6-0.4c0,0-0.1,0-0.1-0.1
			c0-0.1-0.1-0.3-0.2-0.4c-0.1-0.1-0.2-0.1-0.2-0.2c-0.1-0.2-0.1-0.4,0-0.7c0.2,0.1,0.1,0.4,0.1,0.6c0.1,0,0.2-0.2,0.1-0.3
			c0-0.1-0.1-0.2-0.1-0.3c0-0.1-0.1-0.2-0.1-0.2c0-0.1,0-0.1,0-0.2c0-0.2-0.2-0.3-0.3-0.4C63.2,14,63,14,62.9,13.9
			c-0.1-0.1-0.2-0.2-0.2-0.3c0-0.1,0.2-0.3,0.2-0.5c0.1-0.1,0.2-0.3,0.3-0.4c0.1-0.3,0.3-0.7,0.3-1.1c0-0.4,0-0.8,0-1.1
			c0-0.1,0-0.3,0-0.4c-0.1-0.5-0.2-0.9-0.6-1.2c-0.2-0.2-0.4-0.3-0.6-0.4c0,0,0,0,0,0c-0.2-0.1-0.5-0.3-0.8-0.3
			c-0.2,0-0.3,0.1-0.5,0c0,0-0.1,0-0.1-0.1c-0.2-0.1-0.4,0-0.6,0c-0.2,0-0.5,0.1-0.7,0.2c-0.2,0.1-0.4,0.3-0.6,0.5
			c-0.2,0.2-0.3,0.4-0.4,0.6c-0.1,0.2-0.1,0.5-0.3,0.8c-0.2,0.3-0.4,0.5-0.4,1c0,0.2,0.2,0.5,0.2,0.8c0.1,0.3,0.1,0.6-0.1,0.7
			c-0.1,0.1-0.3,0.1-0.4,0.1c-0.3,0.1-0.6,0.4-0.6,0.8c0,0.3,0.1,0.5-0.1,0.7c-0.1,0-0.1,0-0.2,0c0.1,0.1,0.2,0,0.3,0
			c0,0.2-0.1,0.3-0.1,0.5c-0.1,0.2-0.2,0.3-0.2,0.6c0,0.2-0.1,0.4-0.2,0.6c0,0.2-0.1,0.3-0.1,0.5c-0.3,0.1-0.6,0.3-0.8,0.5
			c-0.1,0.1-0.2,0.1-0.2,0.2c0,0-0.1,0.1-0.1,0.1c0,0-0.1,0.1-0.1,0.1c-0.2,0.2-0.3,0.6-0.5,0.9c0,0.2-0.1,0.4-0.2,0.7
			c0,0,0,0.1,0,0.2c0.1,0.1,0.1,0.2,0.2,0.2c0,0.1,0.1,0.1,0.1,0.1c0,0,0.1,0,0.2,0.1c0,0.4-0.2,0.8-0.3,1.1
			c-0.1,0.4-0.2,0.7-0.3,1.1c-0.1,0.4-0.2,0.7-0.4,1.1c-0.1,0.3-0.3,0.7-0.4,1.1c-0.2,0.3-0.5,0.7-0.7,1c-0.1,0.2-0.2,0.3-0.3,0.5
			c-0.1,0.2-0.2,0.4-0.3,0.5c-0.1,0.2-0.2,0.4-0.3,0.6c-0.1,0.1-0.1,0.2-0.2,0.3c-0.1,0.1-0.1,0.1-0.2,0.2c-0.1,0.1-0.3,0.3-0.4,0.5
			c-0.1,0.1-0.1,0.1-0.2,0.2c-0.1,0-0.1,0.2-0.2,0.2c-0.2,0-0.4,0-0.5,0.1C50.4,28,50.2,28,50,28.1c-0.1,0.1-0.1,0.2-0.2,0.2
			c-0.2,0.1-0.5,0.3-0.4,0.6c0.1,0,0.1,0.1,0.2,0c0.1,0,0.1-0.1,0.2-0.1c0.1-0.1,0.2-0.2,0.3-0.2c0.1,0,0.2,0,0.2,0.1
			c0,0.1,0,0.2-0.1,0.3c-0.1,0.1-0.2,0.1-0.3,0.2c0,0.2-0.3,0.4-0.2,0.6c0,0.1,0.1,0.1,0.2,0.1c0.1,0,0.2,0,0.3,0
			c0.1,0,0.1,0.2,0.2,0.2c0.1,0,0.1,0,0.2,0c0,0,0.1-0.1,0.1-0.1c0,0.1,0.1,0.2,0.2,0.2c0.2,0,0.2-0.1,0.3-0.2
			c0,0.1,0.2,0.1,0.3,0.1c0.1-0.1,0.1-0.1,0.2-0.1c0.1,0,0.1-0.1,0.1-0.2c0.1-0.1,0.2-0.2,0.2-0.4c0.1-0.3,0.2-0.6,0.3-0.9
			c0.2-0.1,0.2-0.2,0.3-0.4c0.1-0.1,0.1-0.2,0.2-0.2c0-0.1,0.1-0.1,0.2-0.2c0.3-0.2,0.5-0.5,0.7-0.7c0.2-0.3,0.5-0.5,0.7-0.7
			c0.2-0.3,0.4-0.5,0.6-0.9c0.3-0.4,0.5-1,0.6-1.5c0.1-0.6,0.4-1.1,0.6-1.6c0.2-0.3,0.3-0.7,0.4-1c0.1,0.3,0.1,0.5,0.1,0.8
			c0,0.3,0.1,0.5,0.1,0.8c0,0.5,0,1.1-0.1,1.6c0,0.3-0.1,0.5-0.2,0.7c0,0.1-0.1,0.2-0.1,0.3c0,0.1-0.1,0.2-0.1,0.3
			c0.1,0.1,0.3,0.1,0.5,0.2c-0.1,0.5-0.3,0.8-0.4,1.3c-0.1,0.5-0.2,1-0.2,1.5c-0.1,0.2-0.1,0.4-0.2,0.7C56,29.7,56,30,55.9,30.2
			c0,0.4,0.1,0.8,0.2,1.2c0,0.4,0.1,0.8,0.1,1.3c0.1,0.8,0.2,1.7,0.2,2.5c0.1,0.8,0.2,1.7,0.2,2.6c0,0.9,0,1.8-0.1,2.7
			c0,0.5-0.1,1-0.1,1.5c0.1,0.1,0.2,0.3,0.3,0.3c0.1,0.1,0.2,0.1,0.3,0.2c0.1,0.8,0.2,1.6,0.2,2.3c0,0.3,0.1,0.5,0.1,0.8
			c0,0.3,0,0.6,0,0.9c0,0.3,0.1,0.6,0.1,0.8c0,0.3-0.1,0.5-0.1,0.8c0,0.1,0,0.2,0,0.4c-0.1,0.1-0.2,0.1-0.3,0.2
			c0,0.1-0.1,0.2-0.1,0.2c-0.1,0.4-0.3,0.7-0.5,1c-0.1,0.1-0.2,0.3-0.3,0.4c-0.1,0.2-0.2,0.3-0.2,0.5c0,0.2,0.1,0.2,0.1,0.4
			c0.1,0.1,0.2,0.2,0.3,0.3c0.2,0,0.3,0.1,0.5,0.1c0.3,0,0.6,0,0.9-0.1c0.3-0.1,0.6-0.1,0.8-0.2c0.2-0.1,0.3-0.3,0.5-0.4
			c0-0.2,0-0.4,0-0.7c0.1-0.2,0.1-0.5,0.1-0.8c0-0.1-0.1-0.1-0.1-0.2c0-0.4-0.1-0.7-0.1-1.1c0-0.1,0.1-0.2,0.1-0.3
			c0-0.1,0-0.2,0-0.4c0-0.1-0.1-0.2-0.1-0.3c0.1-0.8,0.2-1.6,0.4-2.3c0.2-0.7,0.4-1.4,0.4-2.3c0.2,0,0.3-0.1,0.4-0.2
			c0-0.1,0.1-0.2,0.1-0.3c0-0.7,0-1.4,0-2c0-0.6-0.1-1.2-0.1-1.8c0-0.6,0-1.2,0-1.8c0-0.6,0-1.2,0-1.8c0-0.3,0-0.6,0-0.9
			c0-0.3,0-0.6,0-0.9c0-0.2,0-0.3,0-0.5c0-0.2,0.1-0.3,0.2-0.3c0,0.9,0,1.8,0.1,2.7c0.1,1.3,0.1,2.7,0.2,3.9
			c0.1,0.4,0.3,0.7,0.4,1.1c0.3,0.4,0.5,0.8,0.8,1.2c0.1,0.2,0.3,0.4,0.4,0.6c0.2,0.2,0.2,0.4,0.5,0.5c0.1,0,0.2,0,0.4,0
			c0.2,0.5,0.5,1,0.8,1.4c0.3,0.4,0.6,0.8,0.9,1.3c0.2,0.2,0.3,0.5,0.4,0.7c0.1,0.2,0.2,0.5,0.3,0.8c0.1,0.1,0.1,0.3,0.2,0.4
			c0.1,0.1,0.1,0.2,0.2,0.4c0.1,0.2,0.2,0.5,0.3,0.8c0,0.1-0.2,0.1-0.1,0.2c0,0.2,0.1,0.5,0.1,0.7c0,0.1,0,0.2,0,0.4
			c0,0.1,0.1,0.2,0,0.4c-0.1,0.1-0.2,0.2-0.2,0.4c0,0.1-0.1,0.1-0.1,0.2c-0.1,0-0.1,0.1-0.1,0.2c0.1,0.2,0.2,0.4,0.4,0.5
			c0.3,0,0.5-0.1,0.7-0.2c0.7-0.2,1.3-0.4,1.9-0.8c0.1-0.2,0.1-0.4,0.2-0.6C69,48.8,69,48.4,68.9,48c-0.1-0.4-0.1-0.8-0.2-1.2
			c-0.1-0.1-0.1-0.2-0.2-0.3c-0.1-0.1-0.2-0.2-0.2-0.2c-0.1,0-0.2-0.1-0.3-0.2c-0.1-0.1-0.2-0.1-0.3-0.2c-0.2,0-0.4-0.1-0.6-0.1
			c-0.2-0.4-0.3-0.8-0.4-1.2c-0.2-0.4-0.3-0.8-0.4-1.2c-0.3-0.8-0.5-1.7-0.8-2.5c0.2-0.2,0.4-0.3,0.5-0.6c0-0.1,0-0.1,0-0.2
			c-0.1-0.2-0.2-0.4-0.4-0.5c-0.1-0.2-0.3-0.3-0.4-0.5c-0.1-0.2-0.3-0.4-0.4-0.5c0-0.1-0.1-0.2-0.2-0.3c-0.1-0.1-0.2-0.2-0.2-0.2
			c0-0.1-0.1-0.3-0.1-0.4c0.1-1.3,0-2.6,0.1-3.9c0-0.6,0.1-1.2,0.2-1.8c0.1-0.6,0.1-1.2,0.3-1.7c0-0.1,0-0.3,0-0.4
			c0-0.1-0.1-0.3-0.1-0.4c0-0.7-0.1-1.3-0.2-1.9c-0.1-0.6-0.4-1-0.5-1.6c0.2,0,0.4-0.1,0.4-0.2c0-0.1,0-0.2-0.1-0.3
			c0-0.1-0.1-0.2-0.1-0.3c0-0.2-0.1-0.3-0.1-0.5c0-0.2,0-0.3-0.1-0.5c-0.1-0.3-0.1-0.7-0.2-1c0-0.3,0-0.6,0-0.8c0-0.2,0-0.4,0.1-0.5
			c0.1-0.4,0.1-0.9,0.2-1.3c0.1,0.3,0.3,0.6,0.4,0.9c0.1,0.3,0.3,0.6,0.4,0.9c0.2,0.3,0.3,0.7,0.4,1c0.1,0.4,0.2,0.7,0.3,1
			c0.1,0.2,0.1,0.3,0.2,0.4c0.1,0.3,0.3,0.6,0.5,0.9c0.1,0.1,0.2,0.2,0.3,0.4c0.2,0.2,0.4,0.5,0.7,0.7c0.2,0.3,0.4,0.5,0.6,0.7
			c0.1,0.1,0.1,0.2,0.2,0.3c0,0,0.1,0.1,0.1,0.2c0,0.1,0.1,0.1,0.1,0.2c0,0.1,0,0.3,0.1,0.4c0.1,0.2,0.2,0.4,0.3,0.6
			c0.1,0.1,0.1,0.2,0.2,0.3c0,0.1,0.1,0.2,0.2,0.2c0.1,0,0.2,0,0.3-0.1c0.1,0,0.1,0.2,0.3,0.2c0.1,0,0.1-0.1,0.2-0.2
			c0.1,0.1,0.2,0.1,0.2,0.1c0,0,0.1,0,0.1,0c0.1,0,0.1-0.1,0.1-0.1c0-0.1,0-0.1,0.1-0.2c0.1,0.1,0.4,0.1,0.4-0.1
			c0-0.3-0.2-0.3-0.2-0.6c-0.1,0-0.1-0.2-0.2-0.2c-0.1-0.1-0.1-0.2-0.1-0.3c0.4-0.2,0.4,0.3,0.7,0.2C71,28.6,71,28.3,70.9,28.3z
			 M56.8,16.4c0-0.1,0-0.2,0.1-0.2C56.8,16.2,56.8,16.3,56.8,16.4C56.8,16.3,56.8,16.4,56.8,16.4z M59.3,14.3c0,0-0.1,0.1-0.1,0.1
			c0-0.1,0-0.2-0.1-0.3c0-0.1-0.1-0.2-0.1-0.2c0-0.2,0.2-0.4,0-0.5c0,0-0.1-0.1-0.2-0.1c-0.1-0.1-0.3-0.4,0-0.4c0-0.1,0-0.1,0-0.1
			c0.2-0.1,0.3,0.1,0.4,0.2c0,0,0,0,0,0c0.1,0.1,0.1,0.3,0.2,0.4C59.3,13.7,59.3,14,59.3,14.3z M61.9,13.9c0.1-0.1,0.2-0.2,0.3-0.3
			c0,0,0,0,0,0c0,0.6-0.5,0.9-0.6,1.3c0,0,0-0.1,0-0.1C61.7,14.5,61.8,14.2,61.9,13.9z"/>
	</g>
</g>
</svg>
