<?xml version="1.0" encoding="utf-8"?>
<!-- Generator: Adobe Illustrator 19.0.0, SVG Export Plug-In . SVG Version: 6.00 Build 0)  -->
<svg version="1.1" id="Layer_1" xmlns="http://www.w3.org/2000/svg" xmlns:xlink="http://www.w3.org/1999/xlink" x="0px" y="0px"
	 viewBox="-416 237.8 126.2 87.2" style="enable-background:new -416 237.8 126.2 87.2;" xml:space="preserve">
<style type="text/css">
	.st0{fill:#686767;}
	.st1{fill:#9585D8;}
	.st2{fill:#3BB5B0;}
	.st3{fill:#FFB098;}
	.st4{fill:#FF8DBE;}
	.st5{fill:#FFE67A;}
</style>
<g id="XMLID_277_">
	<g id="XMLID_306_">
		<g>
			<path id="XMLID_326_" class="st0" d="M-403.5,301c-3.1,0-3.1-4.9,0-4.9h9.3c1.5,0,2.7,1.3,2.7,2.8v17.2c0,3.8-5.3,3.8-5.3,0v-15
				L-403.5,301L-403.5,301z"/>
			<path id="XMLID_328_" class="st0" d="M-386.3,300.7c-2.9,0.2-3.3-4.4-0.4-4.7l5.1-0.4h0.2c4.3,0,6.8,3.1,6.8,6.2v9.7
				c0,0.7,0,1.5,0.2,2.2c2.5,0.6,2.3,4.9-0.6,4.9h-12.2c-3.1,0-3.1-4.9,0-4.9h8c-0.4-0.7-0.6-1.3-0.6-2.1v-9.8
				c0-0.7-0.6-1.2-1.6-1.2L-386.3,300.7z"/>
			<path id="XMLID_330_" class="st0" d="M-365.4,316.1c0,3.8-5.3,3.8-5.3,0v-17.2c0-1.5,1.1-2.7,2.5-2.8l7.3-0.4l0,0
				c5.4-0.2,8,3.6,8,6.7v13.7c0,3.8-5.3,3.8-5.3,0v-13.8l0,0c0-0.9-1.1-1.6-2.4-1.6h-0.1h-4.8L-365.4,316.1L-365.4,316.1
				L-365.4,316.1z"/>
			<path id="XMLID_332_" class="st0" d="M-350.9,293.3c0-3.8,5.3-3.8,5.3,0v2.8h8.3c1.5,0,2.7,1.3,2.7,2.8v2.6c0,0.5,0,0.8-0.3,1.2
				l-4.9,9.9c0.5-1,0.4-0.8-0.2,0.5l-0.5,0.9c0.2-0.3,0.3-0.6,0.4-0.8c-0.1,0.3-0.3,0.5-0.4,0.9c-0.3,0.6-0.4,1.2-0.4,2.1
				c0,3.3-4.7,3.3-4.7,0c0-1.8,0.4-3.1,0.9-4.2l4.8-10.3l0.3-0.5h-8.6c-1.5,0-2.7-1.3-2.7-2.8L-350.9,293.3L-350.9,293.3z
				 M-339.9,312.6l-0.2,0.5v0.1C-340,312.9-339.9,312.7-339.9,312.6z"/>
			<path id="XMLID_335_" class="st0" d="M-307.5,301c0,0.2-0.1,0.3-0.2,0.5c-0.4,0.6-0.8,0.8-0.8,2.9v11.7c0,3.7-5.2,3.8-5.3,0
				v-11.7c0-2.1,1-2.9,1.9-3.3h-8c-3.1,0-3.1-4.9,0-4.9h12.2C-304.6,296.1-304.6,300.8-307.5,301z"/>
			<path id="XMLID_337_" class="st0" d="M-303.3,298.7c0-3.8,5.3-3.8,5.3,0v7.8c0,3.8-5.3,3.8-5.3,0V298.7z"/>
		</g>
		<g>
			<path id="XMLID_310_" class="st0" d="M-403.5,301c-3.1,0-3.1-4.9,0-4.9h9.3c1.5,0,2.7,1.3,2.7,2.8v17.2c0,3.8-5.3,3.8-5.3,0v-15
				L-403.5,301L-403.5,301z"/>
			<path id="XMLID_312_" class="st0" d="M-386.3,300.7c-2.9,0.2-3.3-4.4-0.4-4.7l5.1-0.4h0.2c4.3,0,6.8,3.1,6.8,6.2v9.7
				c0,0.7,0,1.5,0.2,2.2c2.5,0.6,2.3,4.9-0.6,4.9h-12.2c-3.1,0-3.1-4.9,0-4.9h8c-0.4-0.7-0.6-1.3-0.6-2.1v-9.8
				c0-0.7-0.6-1.2-1.6-1.2L-386.3,300.7z"/>
			<path id="XMLID_317_" class="st0" d="M-365.4,316.1c0,3.8-5.3,3.8-5.3,0v-17.2c0-1.5,1.1-2.7,2.5-2.8l7.3-0.4l0,0
				c5.4-0.2,8,3.6,8,6.7v13.7c0,3.8-5.3,3.8-5.3,0v-13.8l0,0c0-0.9-1.1-1.6-2.4-1.6h-0.1h-4.8L-365.4,316.1L-365.4,316.1
				L-365.4,316.1z"/>
			<path id="XMLID_319_" class="st0" d="M-350.9,293.3c0-3.8,5.3-3.8,5.3,0v2.8h8.3c1.5,0,2.7,1.3,2.7,2.8v2.6c0,0.5,0,0.8-0.3,1.2
				l-4.9,9.9c0.5-1,0.4-0.8-0.2,0.5l-0.5,0.9c0.2-0.3,0.3-0.6,0.4-0.8c-0.1,0.3-0.3,0.5-0.4,0.9c-0.3,0.6-0.4,1.2-0.4,2.1
				c0,3.3-4.7,3.3-4.7,0c0-1.8,0.4-3.1,0.9-4.2l4.8-10.3l0.3-0.5h-8.6c-1.5,0-2.7-1.3-2.7-2.8L-350.9,293.3L-350.9,293.3z
				 M-339.9,312.6l-0.2,0.5v0.1C-340,312.9-339.9,312.7-339.9,312.6z"/>
			<path id="XMLID_322_" class="st0" d="M-307.5,301c0,0.2-0.1,0.3-0.2,0.5c-0.4,0.6-0.8,0.8-0.8,2.9v11.7c0,3.7-5.2,3.8-5.3,0
				v-11.7c0-2.1,1-2.9,1.9-3.3h-8c-3.1,0-3.1-4.9,0-4.9h12.2C-304.6,296.1-304.6,300.8-307.5,301z"/>
			<path id="XMLID_324_" class="st0" d="M-303.3,298.7c0-3.8,5.3-3.8,5.3,0v7.8c0,3.8-5.3,3.8-5.3,0V298.7z"/>
		</g>
		<g id="XMLID_313_">
			<path id="XMLID_141_" class="st0" d="M-403.5,301c-3.1,0-3.1-4.9,0-4.9h9.3c1.5,0,2.7,1.3,2.7,2.8v17.2c0,3.8-5.3,3.8-5.3,0v-15
				L-403.5,301L-403.5,301z"/>
			<path id="XMLID_151_" class="st0" d="M-386.3,300.7c-2.9,0.2-3.3-4.4-0.4-4.7l5.1-0.4h0.2c4.3,0,6.8,3.1,6.8,6.2v9.7
				c0,0.7,0,1.5,0.2,2.2c2.5,0.6,2.3,4.9-0.6,4.9h-12.2c-3.1,0-3.1-4.9,0-4.9h8c-0.4-0.7-0.6-1.3-0.6-2.1v-9.8
				c0-0.7-0.6-1.2-1.6-1.2L-386.3,300.7z"/>
			<path id="XMLID_286_" class="st0" d="M-365.4,316.1c0,3.8-5.3,3.8-5.3,0v-17.2c0-1.5,1.1-2.7,2.5-2.8l7.3-0.4l0,0
				c5.4-0.2,8,3.6,8,6.7v13.7c0,3.8-5.3,3.8-5.3,0v-13.8l0,0c0-0.9-1.1-1.6-2.4-1.6h-0.1h-4.8L-365.4,316.1L-365.4,316.1
				L-365.4,316.1z"/>
			<path id="XMLID_288_" class="st0" d="M-350.9,293.3c0-3.8,5.3-3.8,5.3,0v2.8h8.3c1.5,0,2.7,1.3,2.7,2.8v2.6c0,0.5,0,0.8-0.3,1.2
				l-4.9,9.9c0.5-1,0.4-0.8-0.2,0.5l-0.5,0.9c0.2-0.3,0.3-0.6,0.4-0.8c-0.1,0.3-0.3,0.5-0.4,0.9c-0.3,0.6-0.4,1.2-0.4,2.1
				c0,3.3-4.7,3.3-4.7,0c0-1.8,0.4-3.1,0.9-4.2l4.8-10.3l0.3-0.5h-8.6c-1.5,0-2.7-1.3-2.7-2.8L-350.9,293.3L-350.9,293.3z
				 M-339.9,312.6l-0.2,0.5v0.1C-340,312.9-339.9,312.7-339.9,312.6z"/>
			<path id="XMLID_303_" class="st0" d="M-307.5,301c0,0.2-0.1,0.3-0.2,0.5c-0.4,0.6-0.8,0.8-0.8,2.9v11.7c0,3.7-5.2,3.8-5.3,0
				v-11.7c0-2.1,1-2.9,1.9-3.3h-8c-3.1,0-3.1-4.9,0-4.9h12.2C-304.6,296.1-304.6,300.8-307.5,301z"/>
			<path id="XMLID_307_" class="st0" d="M-303.3,298.7c0-3.8,5.3-3.8,5.3,0v7.8c0,3.8-5.3,3.8-5.3,0V298.7z"/>
		</g>
	</g>
</g>
<g id="XMLID_254_">
	<g id="XMLID_152_">
		<g id="XMLID_174_">
			<path id="XMLID_175_" class="st1" d="M-297.4,267.2c-0.1,0-0.3,0-0.4-0.1c-0.1,0-0.2-0.1-0.3-0.2c-0.1-0.1-0.3-0.2-0.4-0.4
				c-0.3-0.1-0.5-0.4-0.8-0.5c-0.1-0.1-0.3-0.1-0.4-0.3c-0.1-0.1-0.3-0.2-0.4-0.3c-0.4-0.6-0.6-1.4-0.9-2.1
				c-0.1-0.4-0.3-0.8-0.5-1.1c0-0.1-0.1-0.1-0.1-0.2c-0.1-0.1-0.1-0.2-0.2-0.3c-0.1-0.1-0.3-0.3-0.4-0.5c-0.1-0.1-0.1-0.3-0.2-0.4
				c-0.2-0.4-0.3-0.8-0.5-1.3c0.1,0,0.2-0.1,0.2-0.2c0-0.7-0.2-1.3-0.3-1.9c-0.1-0.3-0.1-0.6-0.2-0.9s-0.2-0.6-0.3-0.9
				c-0.1-0.1-0.2-0.3-0.2-0.4c-0.1-0.1-0.2-0.2-0.3-0.4c-0.1,0-0.2-0.1-0.2-0.2c-0.1,0-0.2-0.1-0.2-0.2c-0.2-0.1-0.4-0.2-0.5-0.3
				c-0.2-0.1-0.4-0.2-0.5-0.3c-0.1,0-0.3-0.1-0.3-0.1s0,0-0.1,0s-0.1-0.1-0.2-0.1c-0.1-0.1-0.3-0.2-0.4-0.3c-0.1,0-0.1,0-0.2-0.1
				c0-0.1-0.1-0.1-0.1-0.2s-0.1-0.1-0.1-0.2c-0.1-0.1-0.2-0.2-0.3-0.3c-0.2-0.2-0.4-0.5-0.6-0.7c0,0,0-0.1-0.1-0.1l0,0l0,0v-0.1
				c0.2,0,0.3,0,0.5-0.1c-0.2,0.1-0.4,0-0.5,0c0-0.1-0.1-0.2-0.1-0.3h0.1h-0.1c0-0.1,0-0.2,0-0.3h0.1c0.1,0,0.1,0,0.2-0.1
				c-0.1,0-0.1,0-0.2,0s-0.1,0-0.1-0.1v-0.1c0-0.1,0-0.1,0-0.2v-0.1l0,0c0-0.1,0-0.1,0.1-0.2c0.1,0,0.2-0.1,0.2-0.1s0,0,0-0.1l0,0
				c0.1,0.1,0.3,0.1,0.4,0c-0.2,0-0.3-0.1-0.4-0.2c0.1-0.2,0.1-0.5,0.1-0.7c0-0.3,0-0.6-0.1-0.7l0,0v-0.1c0.1,0,0.1,0.3,0.2,0.3
				c0,0,0-0.4-0.1-0.5c0-0.2-0.1-0.4-0.2-0.5c0-0.1-0.1-0.2-0.2-0.3c0,0,0,0,0-0.1c0.2,0.1,0.3,0.2,0.5,0.2
				c-0.3-0.1-0.4-0.3-0.6-0.5c0.1,0.1,0.2,0.2,0.3,0.2c0,0-0.1-0.1-0.1-0.2l0.1,0.1c0.1,0,0.1,0.1,0.2,0.1s0.1,0,0.2,0
				c-0.1,0-0.2,0-0.3-0.1s-0.2-0.2-0.3-0.3c0,0,0,0-0.1-0.1c0,0,0,0,0.1,0c0,0,0,0,0.1,0s0.1,0,0.2,0l0,0c0,0,0,0,0.1,0h0.1
				c0.1,0,0.1,0,0.1,0h-0.1c0,0-0.1,0-0.1-0.1c0,0-0.1,0-0.1-0.1c-0.1,0-0.1,0-0.2,0c0,0,0,0-0.1,0h-0.1h-0.1c-0.1,0-0.2,0-0.2,0
				l0,0c0.1,0,0.3-0.1,0.4-0.1c-0.1,0-0.1,0-0.2,0l-0.2-0.2c-0.1,0-0.2-0.2-0.3-0.1l0,0c0.1,0,0.2-0.1,0.3-0.1c-0.1,0.1-0.3,0-0.4,0
				s-0.3,0-0.4,0l0,0c-0.1,0,0-0.1,0-0.1h-0.1c0.1-0.1,0.2-0.1,0.2-0.2c-0.1,0.1-0.2,0.1-0.3,0.2c0,0,0,0-0.1,0h-0.1
				c0.1-0.1,0.1-0.3,0.1-0.4c-0.1,0.1-0.1,0.3-0.2,0.4c0,0,0,0-0.1,0l0,0l0,0c-0.1-0.1-0.4,0.1-0.4,0.2c0,0,0-0.1,0.1-0.1
				c0,0-0.1,0,0-0.1l0,0c0-0.1,0.1-0.1,0.1-0.2c-0.1,0.1-0.2,0.2-0.2,0.3l0,0l0,0l0,0v-0.1l0,0l0,0c0-0.1,0.1-0.1,0.1-0.2
				c-0.1,0.1-0.2,0.2-0.3,0.3l0,0c-0.1,0-0.1,0-0.2,0l0,0l0,0l0,0l0,0c0-0.1-0.1-0.3-0.1-0.4l0,0l0,0c0-0.1,0-0.1,0-0.2
				c0,0.2,0,0.4,0,0.5l0,0c0-0.1-0.1-0.2-0.1-0.3s0-0.2,0-0.3c-0.1,0-0.1,0.1-0.1,0.2c0-0.1,0-0.2,0-0.3c-0.1,0.2-0.1,0.5-0.1,0.8
				v0.1h-0.1l0,0c0,0,0-0.1-0.1-0.1c-0.1-0.2-0.3-0.3-0.5-0.4c0.1,0.1,0.2,0.1,0.2,0.2l0,0c0,0,0,0.1,0.1,0.1v0.1
				c0.1,0.1,0,0.1,0,0.1l0,0c-0.1-0.1-0.2-0.1-0.3-0.1c0,0,0.1,0,0.1,0.1l0,0h0.1l0,0l0,0l0,0l0,0l0,0l0,0l0,0h-0.1h-0.1
				c-0.1,0-0.2,0-0.2,0c-0.1,0-0.2,0-0.3-0.1c0.1,0.1,0.2,0.1,0.3,0.1l0,0l0,0c-0.1,0-0.2,0-0.2,0h-0.1h-0.1l0,0
				c-0.1,0-0.2,0.1-0.3,0.1c0.1,0,0.2,0,0.3,0s0.2,0,0.1,0.1c0.1,0,0.1,0.1,0.1,0.2l0,0l0,0l0,0l-0.1,0.1c-0.1,0-0.1,0.1-0.2,0.1
				c0.1,0,0.1,0,0.2,0c0,0,0,0,0,0.1v0.1c0,0-0.1,0-0.1,0.1c-0.1,0-0.1,0-0.1,0.1c-0.1,0.1-0.1,0.1-0.2,0.2
				c-0.1,0.1-0.3,0.2-0.4,0.4c0.1-0.1,0.2-0.2,0.3-0.2l0,0c0,0,0,0,0.1,0l0,0l0,0l0,0c0,0-0.1,0-0.1,0.1l-0.1,0.1l0.1-0.1
				c0,0,0,0,0.1,0v0.1c0,0.1-0.1,0.2-0.1,0.2l0.1-0.1v0.1v0.1c-0.1,0.1,0,0.1,0,0.2c0,0,0,0,0,0.1l0,0c0,0,0,0.1-0.1,0.1h-0.1
				c0,0-0.1,0-0.1-0.1c0,0,0,0.1,0.1,0.1h0.1l0,0l0,0c0,0.2,0,0.4,0,0.6c0,0.1,0,0.3,0,0.4v0.1l-0.1,0.1c0,0-0.1,0-0.2,0
				c0.1,0,0.1,0,0.2,0s0.1-0.1,0.1-0.1v0.1v-0.1l0,0c0,0.1,0.1,0.2,0.1,0.3c0,0.1,0,0.1,0,0.2s0,0.1-0.1,0.1c0.1,0,0.1,0,0.1-0.1
				v0.1c0,0,0,0,0-0.1l0,0l0,0v-0.1l0,0c0,0.1,0,0.2,0,0.3c0,0.2,0,0.4-0.1,0.5c0.1-0.1,0.2-0.2,0.2-0.4c0,0.2,0.1,0.4,0.2,0.5
				c0,0.1,0.4,0.6,0.4,0.6c0.1,0,0.2,0.1,0.3,0.1c0.1,0.1,0.1,0.2,0.2,0.2c0.3,0.3,0.6,0.6,1,0.8c0.1,0.2,0.2,0.4,0.2,0.6
				c-0.2,0-0.3,0-0.5,0c-0.1,0.1-0.2,0.2-0.3,0.3c-0.4,0.2-0.9,0.3-1.3,0.5s-0.8,0.4-1.1,0.6c-0.1,0.1-0.2,0.3-0.3,0.4
				c0,0.2-0.2,0.3-0.2,0.4c-0.1,0.2-0.1,0.3-0.2,0.5c-0.1,0.3-0.2,0.7-0.3,1.1c-0.1,0.4-0.2,0.7-0.3,1.1c-0.1,0.4-0.2,0.7-0.3,1.1
				c0,0.1,0.2,0.1,0.3,0.2c-0.1,0.3-0.2,0.6-0.4,0.8c-0.1,0.3-0.3,0.5-0.4,0.8c-0.3,0.2-0.6,0.5-0.8,0.8s-0.5,0.6-0.7,1
				c-0.4,0.7-0.8,1.4-1.4,1.9l0,0c-0.6,0.3-1.2,0.6-1.8,0.9c-0.2,0.2-0.4,0.3-0.7,0.4c-0.2,0-0.5,0-0.6,0.1c0,0.3,0.2,0.3,0.3,0.4
				c0.2,0,0.3,0,0.5-0.1c0.1-0.1,0.2-0.1,0.3-0.1s0.3-0.1,0.4,0c0,0.1-0.1,0.2-0.1,0.3c-0.1,0.1-0.1,0.2-0.1,0.3
				c-0.1,0.2-0.2,0.4-0.3,0.6c-0.1,0.3-0.3,0.5-0.4,0.9c-0.1,0.1,0,0.3,0,0.3l0,0c0.2,0.1,0.4-0.1,0.5-0.3c0.1-0.1,0.3-0.3,0.4-0.4
				c0.1-0.1,0.2-0.2,0.3-0.3c0-0.1,0.1-0.1,0.1-0.2c0.1,0,0.1-0.1,0.2-0.1c0.1,0.1,0,0.1-0.1,0.2c-0.1,0.1-0.2,0.2-0.2,0.3
				c0,0,0,0,0,0.1c0,0,0,0-0.1,0c0,0,0,0.1-0.1,0.1c-0.1,0.1-0.2,0.2-0.3,0.3c-0.1,0.1-0.2,0.2-0.2,0.4c0.1,0.1,0.3,0.1,0.4,0
				c0-0.1,0.1-0.1,0.1-0.1c0.1,0,0.1-0.1,0.1-0.2c-0.1,0.1,0,0.2,0.1,0.3c0.2,0,0.3-0.2,0.5-0.3c0.1-0.1,0.3-0.3,0.4-0.4
				c0-0.1,0.1-0.2,0.2-0.2c0-0.1,0.2-0.1,0.2-0.2c0.1-0.1,0.2-0.3,0.4-0.5c0.1-0.2,0.2-0.4,0.3-0.6s0.1-0.5,0.2-0.7
				c0-0.1,0.1-0.1,0.1-0.1l0.1-0.1c0.2-0.2,0.4-0.5,0.7-0.7c0.1-0.2,0.3-0.3,0.4-0.5c0.2-0.1,0.3-0.3,0.5-0.5c0.3-0.3,0.6-0.6,0.9-1
				c0.1-0.2,0.3-0.4,0.4-0.5c0.2-0.2,0.3-0.4,0.4-0.5c0.1-0.2,0.2-0.3,0.2-0.5c0.1-0.4,0.2-0.7,0.4-1c0.1-0.1,0.1-0.2,0.1-0.2
				c0-0.1,0.1-0.1,0.1-0.1s0-0.1,0.1-0.1s0.2,0.1,0.2,0.2c0,1.4-0.1,2.9-0.4,4.1c0,0.2-0.1,0.5-0.1,0.7c0,0.3-0.1,0.4-0.2,0.6
				c0,0.1,0.2,0.1,0.3,0.2c-0.1,0.3-0.2,0.6-0.2,0.9c-0.3,1.1-0.2,2.3-0.2,3.6c0,0.3,0,0.6,0,0.9c0,0.6,0.1,1.2,0.2,1.8
				c0,0.3,0,0.6,0,0.9s0.1,0.7,0.2,1c0,0.2,0,0.3,0,0.5c0,0.6,0,1.2,0,1.9c0,0.6,0.1,1.3,0.1,1.9c0,1.3,0,2.5-0.4,3.4
				c0,0.1,0,0.3,0,0.4c0.1,0.4,0.2,0.9,0.2,1.3c0,0.2-0.1,0.3-0.1,0.5c-0.1,0.1-0.1,0.3-0.2,0.4c-0.1,0,0,0.2-0.1,0.2
				c0,0.1-0.1,0.1-0.1,0.2c0,0.3,0.1,0.6,0.2,0.8c0.6,0,1.1-0.1,1.7-0.2c0,0.1-0.1,0.1-0.2,0.1c0,0.1-0.1,0.2-0.1,0.2
				c0,0.2-0.1,0.3-0.2,0.5c-0.1,0.1-0.1,0.3-0.2,0.4c-0.1,0.1-0.2,0.2-0.3,0.3c-0.2,0.3-0.5,0.4-0.5,0.7c0,0.2,0,0.2,0.1,0.4
				c0.1,0.1,0.2,0.2,0.2,0.3c0.2,0.1,0.4,0.2,0.8,0.2c0.4,0,0.8,0,1.1-0.2c0.3-0.1,0.7-0.3,0.8-0.5c0.1-0.1,0.1-0.2,0.1-0.3
				s0-0.3,0-0.4c0.1-0.2,0.2-0.4,0.3-0.5c0-0.4,0-0.9-0.1-1.3c0-0.1,0-0.1-0.1-0.1c0-0.1-0.1-0.1,0-0.1c0.3,0,0.5-0.1,0.8-0.1
				c0.1-0.2,0-0.6,0-0.9c0.1-0.7,0.1-1.3,0.1-2c0-0.1,0-0.2,0-0.3c-0.2-0.6-0.3-1.4-0.3-2.2c0.1-0.6,0-1.2,0-1.8s0.1-1.1,0.2-1.7
				c-0.2-1-0.1-2-0.1-3.1c0-0.5-0.1-1-0.1-1.5s0.1-1,0.1-1.5c0-0.1,0-0.2,0-0.3c0.1-0.1,0-0.2,0.1-0.3c0.1,0.1,0,0.3,0.1,0.4
				c0,0.4,0.1,0.8,0.1,1.3c0.1,0.6,0,1.2,0,1.8c0.1,0.8,0.2,1.8,0.2,2.7c0,0.3,0.1,0.6,0.2,0.8c0.1,0.2,0.2,0.4,0.2,0.6
				c0.2,0.3,0.4,0.7,0.6,0.9c0.1,0.2,0.2,0.3,0.3,0.5s0.3,0.5,0.5,0.7s0.3,0.5,0.5,0.7c0.2,0.3,0.4,0.6,0.6,0.9
				c0.1,0.4,0.2,0.9,0.3,1.3c0.2,0.3,0.3,0.6,0.5,0.8c0.2,0.3,0.4,0.5,0.5,0.8c0.1,0.4,0.3,0.8,0.4,1.2c0.1,0.1,0.2,0.2,0.3,0.3
				c0.2,0,0.4,0.1,0.6,0.1c-0.1,0,0,0.1,0,0.2c0,0.3,0,0.5,0.1,0.7c0,0.2,0,0.5,0,0.7c0,0.1,0,0.2,0.1,0.3c0,0.1-0.1,0.2-0.2,0.4
				c0,0.2-0.2,0.2-0.2,0.4c0.1,0.2,0.2,0.3,0.4,0.3c0.5-0.1,0.9-0.3,1.3-0.6c0.4-0.2,0.8-0.4,1.2-0.7c0.1-0.2,0.1-0.4,0.1-0.6
				c0-0.2,0-0.5,0-0.7s-0.1-0.3-0.1-0.5s0-0.5,0-0.7c0.1-0.1,0.2-0.2,0.3-0.4c0.2-0.3,0.4-0.5,0.3-1c-0.2-0.4-0.4-0.7-0.8-0.9
				c-0.2-0.2-0.3-0.4-0.4-0.7c-0.1-0.2-0.1-0.4-0.1-0.6c-0.1-0.2-0.3-0.3-0.4-0.6c-0.1-0.2-0.2-0.4-0.3-0.6
				c-0.1-0.2-0.2-0.4-0.3-0.6c-0.1-0.1-0.1-0.2-0.2-0.3s-0.1-0.2-0.2-0.3c-0.2-0.4-0.5-0.8-0.8-1.2c-0.1-0.2-0.3-0.4-0.4-0.6
				c-0.1-0.2-0.2-0.4-0.3-0.6c-0.1-0.1-0.2-0.2-0.3-0.3c-0.1-0.2-0.3-0.3-0.4-0.6v-0.1c0-0.3,0-0.7,0.1-1c-0.1-0.5,0-1.1-0.1-1.7
				c0.1-0.6,0.1-1.3,0.2-1.8c0.2,0,0.3,0.2,0.5,0.1c0.2-0.2,0.1-0.6,0.1-0.9c0-0.1-0.1-0.2-0.1-0.2c-0.1-0.1-0.3-0.2-0.4-0.2
				c-0.1-1.3-0.3-2.6-0.3-4c0-0.1,0.2-0.1,0.2-0.2c0-0.1,0-0.2-0.1-0.3c0-1,0-2,0-3c0-0.8,0.1-1.6,0.3-2.4c0-0.1,0-0.2,0.1-0.3
				c0,0.1,0.1,0.2,0.1,0.3c0.1,0.1,0,0.2,0.1,0.2c0.2,0,0.5-0.1,0.7-0.1c0.2,0.4,0.3,0.9,0.5,1.4c0.1,0.5,0.4,0.9,0.6,1.3
				c0.1,0.2,0.2,0.3,0.2,0.5c0.1,0.1,0.1,0.3,0.3,0.5c0.1,0.2,0.2,0.3,0.3,0.4c0.3,0.4,0.6,0.8,0.9,1.3c0.1,0.2,0.2,0.3,0.3,0.5
				s0.1,0.3,0.2,0.5c0,0.2,0.1,0.4,0.1,0.7c0.1,0.2,0.2,0.5,0.3,0.7c0.1,0.1,0.2,0.3,0.3,0.5s0.2,0.3,0.3,0.5
				c0.1,0.1,0.2,0.3,0.3,0.5c0.1,0.1,0.2,0.4,0.5,0.4c0.1-0.1,0.1-0.2,0-0.3c0-0.1-0.1-0.2-0.2-0.3c-0.1-0.3-0.2-0.4-0.3-0.7l0,0
				l0,0l0,0c0.2,0.3,0.3,0.6,0.5,0.9c0.1,0.1,0.1,0.3,0.3,0.4c0,0.2,0.2,0.3,0.4,0.2c0.1-0.2,0-0.3-0.1-0.4
				c-0.1-0.2-0.2-0.4-0.3-0.6c-0.1-0.1-0.1-0.2-0.2-0.3c-0.1-0.1-0.1-0.2-0.1-0.3c0.1,0,0.1,0.1,0.2,0.2c0,0.1,0.1,0.1,0.1,0.2
				c0.1,0.2,0.2,0.3,0.3,0.4c0.1,0.1,0.2,0.3,0.3,0.4c0.1,0.1,0.2,0.3,0.4,0.3c0.1,0,0.2-0.2,0.2-0.3s-0.1-0.3-0.1-0.4
				c-0.1-0.1-0.1-0.3-0.2-0.4c0-0.2-0.1-0.3-0.2-0.5c-0.1-0.3-0.2-0.6-0.3-0.9c0.2,0.1,0.4,0.2,0.7,0.2s0.6,0,0.6-0.3
				C-297.2,267.3-297.3,267.3-297.4,267.2z M-308.5,246.3c0.1,0,0.2,0.1,0.3,0.1c-0.1,0-0.1,0-0.2,0s-0.3,0-0.4-0.1l0,0
				C-308.7,246.4-308.5,246.4-308.5,246.3z M-309.5,245.8L-309.5,245.8L-309.5,245.8L-309.5,245.8z"/>
		</g>
	</g>
</g>
<g id="XMLID_50_">
	<g id="XMLID_935_">
		<g id="XMLID_1279_">
			<path id="XMLID_1281_" class="st2" d="M-318.7,267.9c0-0.3-0.2-0.5-0.3-0.7c0-0.1,0-0.3,0-0.4c0-0.1-0.2-0.1-0.3-0.3
				c-0.1,0-0.2-0.2-0.3-0.2c-0.2-0.2-0.4-0.3-0.6-0.4c-0.1-0.2-0.2-0.3-0.3-0.5c-0.1,0-0.2-0.1-0.3-0.2c-0.5-0.5-0.9-1-1.3-1.5
				c-0.2-0.2-0.4-0.5-0.6-0.8s-0.4-0.6-0.6-0.8c0-0.1-0.1-0.1-0.1-0.2c0,0,0,0,0-0.1l-0.1-0.1v-0.1l0,0c0,0,0,0,0-0.1l-0.1-0.1
				c0,0,0,0,0-0.1c0,0-0.1-0.1-0.1-0.2c-0.2-0.3-0.4-0.6-0.5-0.9c-0.3-0.6-0.6-1.3-0.9-1.9c0.1-0.1,0.2-0.1,0.3-0.2
				c-0.2-0.4-0.3-0.8-0.5-1.1c0-0.1-0.1-0.2-0.1-0.3c-0.1-0.3-0.2-0.7-0.3-1s-0.3-0.6-0.5-0.9c0-0.2,0-0.2,0-0.4
				c-0.1-0.2-0.2-0.4-0.3-0.5c0-0.1-0.1-0.2-0.1-0.3c-0.1-0.1-0.1-0.1-0.2-0.2c0-0.1-0.1-0.3-0.1-0.3c0-0.1-0.1-0.1-0.2-0.2
				c-0.1,0-0.1-0.1-0.2-0.1c0-0.1-0.1-0.2-0.2-0.3c-0.1,0-0.1-0.1-0.1-0.1c-0.1-0.1-0.3-0.2-0.5-0.3s-0.3-0.2-0.4-0.3l0,0h0.1
				c0,0.1,0.1,0.1,0.1,0.1l-0.1-0.1c0.1,0,0.2,0,0.2,0c0.1,0,0.2-0.1,0.2-0.1c-0.1,0.1-0.3,0.1-0.4,0.1l0,0c0-0.1,0-0.1,0-0.2
				s0-0.1,0.1-0.2c0.1,0,0.2,0,0.3,0s0.1-0.1,0.2-0.1c0,0,0.1-0.1,0.1-0.2s0-0.1-0.1-0.1h-0.1v0.1V251c0,0,0,0,0.1,0l0.1,0.1
				c0,0,0,0.1-0.1,0.1c0,0-0.1,0-0.1,0.1c-0.1,0-0.1,0-0.2-0.1l0,0c0.1,0,0.1,0,0.2-0.1l0.1-0.1l0,0l0,0l0,0l0,0l0,0c0-0.1,0,0,0,0
				l0,0l0,0h-0.1c-0.1,0-0.1,0.1-0.1,0.1l0.1-0.1l0,0l0,0l0,0c0,0.1-0.1,0.1-0.2,0.1c0-0.1,0-0.2,0-0.2c0-0.1-0.1-0.1-0.1-0.2
				c0.1,0,0.1-0.1,0.1-0.2c0,0,0,0.1-0.1,0.1v-0.1v-0.1l0,0l0,0c0,0,0,0-0.1,0h-0.1c0,0,0,0-0.1-0.1l0,0h0.1c0.1,0,0.1-0.1,0.2-0.1
				l0.1-0.1V250c0,0,0-0.1-0.1-0.1s-0.1,0-0.2,0c0,0,0,0,0,0.1c0,0,0,0,0,0.1c0,0,0,0,0-0.1l0,0h0.1c0.1,0,0,0.1-0.1,0.2
				s-0.1,0.1-0.2,0v-0.1c0,0,0-0.1,0-0.2c0.1,0,0.3-0.2,0.3-0.3c-0.1,0.1-0.2,0.2-0.4,0.2v-0.1c-0.1-0.1-0.1-0.2-0.2-0.2
				c0,0,0,0,0-0.1l0,0l0,0h0.1c0.1,0,0.1-0.1,0.1-0.2c0,0.1-0.1,0.1-0.1,0.1h-0.1c0.1,0,0.1-0.1,0.1-0.1c0-0.1,0.1-0.2,0.1-0.3
				c0,0.1-0.1,0.2-0.1,0.2l-0.1,0.1c0,0,0,0,0.1-0.1c0,0,0.1-0.1,0.1-0.2s0-0.1,0-0.2s0-0.1-0.1-0.2c0,0,0.1,0,0.1-0.1l0.1-0.1v-0.1
				c0,0-0.1,0-0.1-0.1c-0.1,0-0.1,0-0.2,0V248l-0.1-0.1h-0.1l0,0v-0.1c0.1,0,0.2,0,0.3,0c-0.1,0-0.2,0-0.3,0c0-0.1,0-0.3-0.1-0.4
				c0-0.1-0.1-0.2-0.1-0.3l0,0l0.1-0.1l-0.1,0.1c0-0.1-0.1-0.1-0.2-0.2l0,0l0,0c0,0,0,0,0.1-0.1h0.1v0.1v0.1
				c0.1,0.1,0.2,0.1,0.3,0.1s0.2,0,0.3-0.1c-0.1,0-0.2,0-0.3,0s-0.1-0.1-0.2-0.1l0,0h0.1h-0.1c0,0,0,0,0-0.1v-0.1
				c0.1-0.1,0.2-0.2,0.2-0.3c-0.1,0.1-0.1,0.1-0.2,0.2c0,0,0,0,0-0.1v-0.1l0,0l0,0l0,0l0,0l0,0l0,0l-0.1-0.1v-0.1
				c0-0.1,0-0.1-0.1-0.1h-0.1c-0.1,0-0.1,0-0.2,0h-0.1l0,0c0,0,0,0,0-0.1c0,0,0,0,0-0.1l0,0c0,0,0,0,0.1,0h0.1l0.1,0.1
				c0,0,0.1,0.1,0.2,0c0.1,0,0.1-0.1,0.1-0.1c-0.1,0-0.2,0.1-0.3,0s-0.2-0.2-0.3-0.2c0-0.1,0-0.1,0.1-0.2c0-0.1,0-0.3-0.1-0.4
				s-0.1-0.1-0.2-0.1c-0.1,0-0.2,0-0.2,0h-0.1l0,0l-0.1-0.1l0.1,0.1c0,0,0,0,0-0.1h0.1c0,0,0.1,0,0.1-0.1c-0.1,0-0.1,0.1-0.2,0
				c0,0-0.1-0.1-0.1-0.2c0,0,0-0.1-0.1-0.1h-0.1c-0.1,0-0.1,0.1-0.2,0.1l0,0c-0.1,0-0.2,0-0.2,0l-0.1-0.1l0,0h0.1l0,0
				c0,0,0.1,0,0.1-0.1l0,0c0.1-0.1,0.2-0.2,0.2-0.3c-0.1,0.2-0.3,0.3-0.4,0.3l0,0c-0.1-0.1-0.1-0.1-0.1-0.2l0,0
				c0.1,0,0.2-0.2,0.2-0.3c-0.1,0.1-0.2,0.2-0.3,0.2c0,0,0,0-0.1,0c0,0,0-0.1-0.1-0.1c0,0-0.1-0.1-0.2-0.1s-0.2,0-0.3,0.1
				c-0.1,0-0.1,0-0.2,0h-0.1c-0.1,0-0.1,0-0.2,0l0,0h-0.1h-0.1c0-0.1-0.1-0.1-0.2-0.1c-0.1,0-0.2,0-0.3,0.1l-0.1,0.1l0,0
				c0,0,0,0-0.1,0h-0.1c-0.1,0-0.3,0.1-0.4,0.1c-0.1,0.1-0.2,0.2-0.2,0.3c0,0,0,0.1-0.1,0.1l0,0l0,0l0,0l0,0c0,0,0,0-0.1,0
				s-0.2,0-0.3,0h-0.1l0,0l0,0l0,0l0,0c-0.1,0-0.1,0.2-0.2,0.3l-0.1,0.1c-0.1,0.1-0.2,0-0.3-0.1l0.1,0.1h0.1c0,0,0,0.1-0.1,0.1
				c0,0,0,0.1-0.1,0.1c0,0-0.1,0.1-0.2,0.1l-0.1,0.1l0,0l0,0v0.1l0,0c0,0,0,0,0,0.1c0,0,0,0,0,0.1s0,0.1,0,0.1c0,0.1,0,0.1,0,0.1
				h-0.1c-0.1,0-0.2-0.1-0.2-0.2c0,0.1,0.1,0.2,0.2,0.3h0.1v0.1c0,0.1,0,0.3,0.1,0.4c0,0.1,0,0.2-0.1,0.3l-0.1,0.1
				c-0.1,0.1-0.1,0.2-0.1,0.3c0,0.1,0,0.2,0.1,0.3c-0.1,0,0.1,0.1,0.1,0.1l0,0c0,0,0,0-0.1,0l0,0l0,0h-0.1c0,0,0-0.1-0.1-0.2
				c0,0.1,0,0.1,0,0.2c0.1,0.1,0.1,0,0.2,0c0,0,0.1,0,0.1-0.1c0,0,0,0.1-0.1,0.1c0,0,0,0,0,0.1l0,0v0.1c0,0.1,0,0.1,0,0.2l0,0l0,0
				c0,0,0,0-0.1,0c0,0,0,0,0.1,0.1c0,0.1,0,0.1,0,0.2l0,0l0,0l0,0c0,0.1,0.1,0.1,0.1,0.1s0.1,0,0.1,0.1v0.1l0,0l0,0v0.1
				c0,0-0.1,0-0.1,0.1l0,0c-0.1,0-0.1,0-0.2-0.1l0,0l0,0c0,0,0,0-0.1-0.1s-0.2-0.2-0.2-0.3c0,0.1,0.1,0.3,0.1,0.4
				c0.1,0.1,0.2,0.2,0.3,0.3h0.1l0,0c0,0.1,0.1,0.2,0.1,0.3c0,0.1,0,0.1-0.1,0.1l0,0h-0.1c0,0-0.1,0-0.1-0.1v-0.1c0,0.1,0,0.1,0,0.2
				c0,0,0,0.1,0.1,0.1l0,0l0,0c0,0,0,0,0.1,0s0.1,0,0.2,0h0.1l0.1-0.1c0,0,0,0,0-0.1l0,0v0.1c0,0.1,0,0.2,0,0.3c0,0,0,0,0,0.1
				c0,0,0,0,0,0.1l0,0c0,0-0.1,0-0.1,0.1c-0.1,0-0.2,0-0.2-0.1c-0.1-0.1-0.1-0.2-0.1-0.3c0,0.1,0,0.2,0,0.3c0,0.1,0.1,0.1,0.1,0.1
				c0.1,0,0.1,0.1,0.2,0c0.1,0,0.2,0,0.2-0.1l0.1,0.1c0,0,0,0,0,0.1l0,0c-0.1,0-0.1,0-0.2,0c-0.1,0-0.1,0-0.1-0.1
				c0,0.1,0,0.1,0.1,0.1s0.1,0,0.2,0l0,0l0,0c0,0.1-0.1,0.1-0.2,0.2l0,0l0,0c-0.1,0-0.1,0-0.2,0c0.1,0,0.1,0,0.2,0l0,0
				c0,0,0,0.1,0.1,0.1l0,0c0,0-0.1,0.1,0,0.2c0,0,0.1,0.1,0.2,0.1s0.1,0,0.2-0.1c0.1,0,0.1,0.1,0.2,0.1l0,0l0,0l0,0l0,0
				c-0.1,0-0.2,0-0.3-0.1c0,0.1,0.2,0.2,0.3,0.2c0,0,0.1,0,0.1-0.1l0,0c0,0,0.1,0,0.1,0.1c-0.1,0-0.3,0.1-0.4,0.1
				c-0.3,0.3-0.7,0.5-1.1,0.7c0,0.3-0.3,0.4-0.5,0.5c0,0.1-0.1,0.2-0.1,0.3s-0.1,0.1-0.1,0.1c0,0.1-0.1,0.1-0.1,0.1
				c0,0.3-0.2,0.4-0.3,0.6s-0.2,0.4-0.2,0.6c-0.2,0.3-0.3,0.6-0.5,0.9c-0.1,0.3-0.2,0.6-0.2,0.9c-0.2,0.5-0.6,0.9-0.8,1.4
				c0,0.1,0.1,0,0.1,0.1h0.1c-0.4,0.6-0.7,1.3-1.1,1.8s-0.8,1.1-1.3,1.6c-0.3,0.4-0.7,0.8-1,1.1c-0.4,0.4-0.7,0.7-1.1,1.1
				c-0.1,0.1-0.3,0.2-0.4,0.3c-0.1,0-0.1,0.1-0.2,0.1c-0.1,0.1-0.2,0.1-0.2,0.1c-0.1,0-0.1,0.1-0.1,0.1c-0.1,0-0.1,0.1-0.1,0.1
				c-0.1,0.1-0.1,0.1-0.2,0.2c-0.2,0.1-0.4,0.2-0.6,0.4h-0.1c-0.1,0.1-0.3,0.2-0.5,0.3c0,0.2,0,0.2,0,0.4c-0.1,0.1-0.1,0.2-0.2,0.3
				s-0.1,0.2-0.2,0.3c0.1,0.1,0.2,0.1,0.2,0.2c0,0,0.1-0.1,0.2-0.1l0,0c0,0-0.2,0.2-0.1,0.3c0.1,0.1,0.3,0.1,0.4,0
				c0.1,0,0,0.2,0,0.2c0.1,0,0.1,0,0.1,0.1c0.1,0,0.2,0,0.2-0.1c0,0.1,0.2,0.1,0.3,0.2c0.2-0.1,0.4-0.2,0.6-0.2
				c0.3-0.3,0.4-0.7,0.6-1.1c0-0.4,0.3-0.6,0.4-0.9c0.1-0.1,0.2-0.1,0.2-0.3c0.1-0.1,0.2-0.1,0.2-0.3c0.3-0.2,0.6-0.5,0.9-0.8
				c0.3-0.3,0.6-0.6,0.9-0.8c0.3-0.2,0.6-0.5,1-0.7c0.1-0.1,0.2-0.1,0.3-0.2c0.2-0.2,0.4-0.4,0.6-0.6c0.1-0.2,0.2-0.3,0.3-0.5v-0.1
				l0,0c0-0.1,0.1-0.2,0.2-0.3l0,0l0,0c0.1-0.1,0.2-0.2,0.2-0.3c0.3-0.4,0.5-0.8,0.8-1.2c0-0.1,0.1-0.1,0.1-0.2
				c0.1,0,0.1-0.1,0.2-0.2c0.1,0,0.1-0.1,0.2-0.1c0.2,0,0.4,0.1,0.5,0.2c0,0.5-0.1,0.9-0.1,1.5c0,0.1,0.1,0.1,0.1,0.1l0.1,0.1
				c0.1,0,0.2,0.1,0.3,0.1c-0.1,0.1-0.1,0.4-0.1,0.6c0,0.1,0,0.1,0,0.2c-0.1,0.3-0.4,0.5-0.5,0.8c-0.2,0.2-0.3,0.5-0.5,0.8
				c-0.1,0.3-0.1,0.5-0.2,0.7c0,0.4-0.1,0.7-0.2,1c0,0.9-0.2,1.7-0.4,2.5l0,0c0,0-0.1,0-0.1-0.1v0.2c-0.5,0.8-0.8,1.9-1,2.7
				c-0.2,0.7-0.2,0.8,0.6,0.9c0.6,0.1,1.1,0.3,1.6,0.5c0,0.1,0,0.1,0,0.2c0,0.6,0,1.2,0.1,1.8c0,0.6,0.1,1.1,0.1,1.7
				c0,0.3,0,0.6,0,0.9c0,0.3,0,0.6,0,0.9s-0.1,0.5-0.2,0.8c0.1,1.8,0.1,2.1,0.1,2.4c0,0.3,0,0.7,0,1s0.1,0.6,0.1,0.9
				c0.1,0.5,0.2,0.9,0.3,1.4c0.1,0.4,0.2,0.9,0.3,1.3c0,0.1-0.1,0.1-0.1,0.2c0.1,0.8,0.3,1.7,0,2.4c0,0.1,0,0.1,0,0.2
				s-0.1,0.2-0.1,0.3c0,0.2-0.1,0.3-0.1,0.5c-0.2,0.3-0.4,0.5-0.5,0.8c0,0.3-0.1,0.6,0,0.9c0.3,0.3,0.8,0.4,1.3,0.5
				c0.2,0,0.5,0,0.7,0c0.3,0,0.4-0.2,0.6-0.3c0.1-0.6,0-1.2,0.1-1.8c0-0.1-0.1-0.1-0.1-0.2c0-0.3,0-0.5-0.1-0.7c0-0.2,0-0.5,0.1-0.7
				c-0.1-0.5-0.1-1.1-0.1-1.7c0-0.1-0.1-0.2-0.1-0.3c0-1.1,0.3-2,0.4-3c0.1-0.8,0-1.7,0-2.4c0-0.2,0.1-0.5,0.1-0.7
				c0.1-0.6,0-1.2,0-1.9c0.2-1,0.4-1.9,0.6-2.8c0.1,0,0.3,0,0.4,0.1c0,0.6,0,1.2,0,1.7c0,0.1,0,0.2,0,0.2c0,0.2,0,0.4,0,0.6
				c0,0.3-0.1,0.6-0.1,1c-0.1,0.3,0,0.7,0,1.1c0.1,0.3,0.1,0.7,0.2,1c0,0.8-0.1,1.4,0,2.2c0.2,0.9,0.4,1.8,0.4,2.9
				c0,0.2-0.1,0.1-0.1,0.3c0,0.6,0.1,1.2-0.1,1.6c0,0.2,0.1,0.4,0,0.7s-0.1,0.6-0.2,0.9c0,0.5,0,1.1,0,1.7c0.1,0.1,0.2,0.2,0.2,0.2
				c0.1,0,0.2,0.1,0.4,0.1c0.5,0,1,0,1.4-0.1c0.3-0.1,0.5-0.1,0.6-0.3c0-0.3,0-0.6,0-0.9c-0.1-0.2-0.3-0.4-0.5-0.6
				c0-0.2-0.1-0.3-0.1-0.5c0-0.1-0.1-0.1-0.1-0.2c0-0.1,0-0.2,0-0.3c-0.1-0.4-0.2-0.8-0.1-1.2c0-0.4,0.1-0.8,0.1-1.2
				c0-0.1-0.1-0.1-0.1-0.2c0.3-1.1,0.5-2.3,0.7-3.6c0-0.3,0-0.6,0-0.9c-0.1-0.6-0.2-1.2-0.4-1.7c0-1.5,0.5-2.6,0.8-3.8
				c0-0.2,0.1-0.4,0.1-0.6c0.1,0,0.2,0,0.3,0c0.8-0.1,2.6,0.1,2.6-1c0-1-0.4-2-0.5-2.9c0-0.4,0-0.7-0.1-1.1c0-0.1,0-0.3,0-0.4
				c0-0.6,0-1.3,0-1.9c-0.1-0.6-0.2-1.2-0.3-1.7c-0.3-0.5-0.5-0.9-0.8-1.3c0-0.1-0.1-0.2-0.1-0.3s0.1-0.1,0.1-0.2
				c-0.1-0.2,0-0.5-0.1-0.6c0.2-0.1,0.3-0.1,0.5-0.2l0.1-0.1c0-0.2,0-0.4,0.1-0.6c0-0.2-0.1-0.6,0-1c0-0.1,0.1,0,0.1,0
				c0.2-0.1,0.5-0.2,0.7-0.3c0.1,0,0.1,0.1,0.2,0.2c0,0.1,0.1,0.1,0.1,0.2c0.3,0.4,0.4,0.8,0.7,1.2c0.3,0.5,0.6,1,0.9,1.6
				c0.2,0.2,0.4,0.5,0.6,0.7c0.3,0.2,0.5,0.4,0.8,0.6c0.1,0.1,0.2,0.2,0.4,0.3c0.1,0.1,0.3,0.2,0.3,0.3c0.5,0.5,0.8,1,1.3,1.4
				c0.1,0.2,0.2,0.4,0.4,0.5c0.1,0.2,0.2,0.3,0.3,0.5c0.1,0.6,0.3,1.1,0.6,1.6c0.2,0.1,0.4,0.2,0.6,0.3c0.1-0.1,0.2,0,0.2-0.2
				c0.1,0,0.1,0.1,0.3,0.1c0,0,0,0,0.1,0s0.1-0.1,0.1-0.2c0.1,0,0.1,0.1,0.2,0.1c0.1,0,0.1-0.1,0.2-0.1c0-0.2,0-0.2-0.1-0.3
				c0.1,0,0.1,0.1,0.2,0.1C-318.9,268-318.8,267.9-318.7,267.9z M-331.1,244.5C-331.2,244.5-331.2,244.5-331.1,244.5
				C-331.2,244.5-331.2,244.5-331.1,244.5z M-335.5,249.3L-335.5,249.3L-335.5,249.3L-335.5,249.3L-335.5,249.3z M-335.6,247.4
				L-335.6,247.4L-335.6,247.4z M-335.7,247.7C-335.7,247.7-335.7,247.6-335.7,247.7C-335.6,247.6-335.6,247.7-335.7,247.7z
				 M-335.6,247.8C-335.6,247.8-335.7,247.8-335.6,247.8C-335.6,247.8-335.6,247.7-335.6,247.8
				C-335.5,247.7-335.6,247.8-335.6,247.8C-335.6,247.9-335.6,247.8-335.6,247.8z M-335.6,248.7L-335.6,248.7L-335.6,248.7
				L-335.6,248.7z M-335.6,248.2L-335.6,248.2L-335.6,248.2c0.1-0.1,0.1-0.1,0.1-0.1C-335.6,248.2-335.6,248.2-335.6,248.2z
				 M-335.5,247.7L-335.5,247.7C-335.6,247.7-335.5,247.5-335.5,247.7z M-335.5,246.7v-0.2C-335.5,246.4-335.4,246.6-335.5,246.7z
				 M-335.4,248.9L-335.4,248.9C-335.4,248.9-335.4,248.8-335.4,248.9C-335.4,248.8-335.4,248.8-335.4,248.9
				C-335.4,248.8-335.4,248.9-335.4,248.9z M-335.4,246.4C-335.5,246.4-335.4,246.2-335.4,246.4L-335.4,246.4z M-335.3,249.5v0.1
				C-335.4,249.7-335.4,249.6-335.3,249.5L-335.3,249.5L-335.3,249.5L-335.3,249.5z M-335.4,249.4L-335.4,249.4L-335.4,249.4
				L-335.4,249.4L-335.4,249.4c0-0.1,0-0.1,0-0.2l0,0C-335.3,249.3-335.3,249.4-335.4,249.4z M-335.4,246
				C-335.4,245.9-335.4,245.9-335.4,246c0-0.1,0-0.2,0.1-0.2l0,0c0.1,0,0,0,0.1,0C-335.2,245.8-335.3,245.9-335.4,246z
				 M-335.2,249.8C-335.3,249.8-335.3,249.8-335.2,249.8C-335.3,249.8-335.3,249.8-335.2,249.8
				C-335.2,249.7-335.2,249.7-335.2,249.8C-335.2,249.7-335.2,249.7-335.2,249.8L-335.2,249.8z M-335.1,250.1L-335.1,250.1
				L-335.1,250.1L-335.1,250.1L-335.1,250.1z M-335.1,250.2L-335.1,250.2L-335.1,250.2L-335.1,250.2L-335.1,250.2z M-334.8,250.5
				L-334.8,250.5C-334.8,250.6-334.8,250.6-334.8,250.5C-334.8,250.6-334.8,250.6-334.8,250.5C-334.8,250.6-334.8,250.6-334.8,250.5
				L-334.8,250.5z M-334.9,250.4L-334.9,250.4C-334.9,250.5-334.9,250.5-334.9,250.4L-334.9,250.4L-334.9,250.4L-334.9,250.4z
				 M-335,251.1C-335.1,251.1-335.1,251.1-335,251.1c-0.1-0.1-0.1-0.1-0.1-0.1c0.1,0,0.2-0.1,0.3-0.2v-0.1l0,0c0,0.1,0,0.2-0.1,0.3
				C-334.9,251-335,251.1-335,251.1z M-335,251.2L-335,251.2C-335,251.1-335,251.1-335,251.2C-334.9,251.2-334.9,251.2-335,251.2
				c0.1-0.1,0.1-0.1,0.1-0.1l0,0h0.1c0,0.1,0,0.1,0.1,0.1C-334.8,251.3-334.9,251.3-335,251.2z M-329.7,247.5
				C-329.7,247.5-329.7,247.6-329.7,247.5C-329.8,247.6-329.8,247.5-329.7,247.5z M-329.9,247.4
				C-329.9,247.3-329.9,247.3-329.9,247.4C-329.8,247.3-329.8,247.4-329.9,247.4z M-330,246.5L-330,246.5
				C-330.1,246.5-330.1,246.5-330,246.5C-330.1,246.5-330,246.5-330,246.5L-330,246.5z M-330,245.7L-330,245.7
				C-330.1,245.7-330.1,245.6-330,245.7C-330,245.6-330,245.7-330,245.7z M-330.1,245.9L-330.1,245.9
				C-330.1,246-330.2,246-330.1,245.9L-330.1,245.9L-330.1,245.9z M-329.5,249.2L-329.5,249.2L-329.5,249.2L-329.5,249.2z
				 M-329.4,248.7L-329.4,248.7C-329.3,248.7-329.3,248.8-329.4,248.7C-329.4,248.8-329.4,248.7-329.4,248.7z M-328.8,251.9
				C-328.8,251.8-328.8,251.9-328.8,251.9L-328.8,251.9z M-328.6,251.8C-328.7,251.7-328.7,251.7-328.6,251.8c0-0.1,0-0.2,0-0.3l0,0
				c0,0,0,0,0.1,0C-328.5,251.6-328.5,251.6-328.6,251.8C-328.6,251.7-328.6,251.7-328.6,251.8z M-328.6,250.5L-328.6,250.5
				C-328.6,250.5-328.7,250.5-328.6,250.5C-328.7,250.5-328.6,250.5-328.6,250.5z M-328.7,250.5L-328.7,250.5c0.1,0,0.1,0,0.1,0.1
				c0,0,0,0.1-0.1,0.1l0,0C-328.7,250.6-328.7,250.6-328.7,250.5C-328.7,250.6-328.8,250.6-328.7,250.5
				C-328.8,250.5-328.8,250.5-328.7,250.5C-328.8,250.5-328.7,250.5-328.7,250.5z M-328.9,250.1L-328.9,250.1L-328.9,250.1
				c0-0.1-0.1-0.1-0.1-0.1s0,0,0.1,0V250.1z M-329,249.8L-329,249.8C-329.1,249.7-329.1,249.7-329,249.8L-329,249.8z M-328.8,248.3
				C-328.8,248.3-328.8,248.4-328.8,248.3C-328.8,248.4-328.8,248.4-328.8,248.3C-328.8,248.4-328.9,248.4-328.8,248.3
				c-0.1,0.1-0.1,0.1-0.2,0.1l-0.1-0.1l0,0l0,0c0,0,0.1,0,0.1-0.1C-328.9,248.3-328.9,248.3-328.8,248.3z M-329.1,248.1
				C-329.1,248.1-329,248.1-329.1,248.1c0.1,0.1,0.1,0.1,0.1,0.1L-329.1,248.1L-329.1,248.1C-329.2,248.1-329.2,248.1-329.1,248.1
				C-329.2,248-329.1,248-329.1,248.1z M-329.5,247.7L-329.5,247.7L-329.5,247.7L-329.5,247.7L-329.5,247.7L-329.5,247.7z
				 M-329.5,247.8L-329.5,247.8L-329.5,247.8L-329.5,247.8L-329.5,247.8z M-329.5,247.9C-329.4,247.9-329.4,247.9-329.5,247.9
				C-329.4,247.9-329.4,248-329.5,247.9c0.1,0.2,0.1,0.3,0.2,0.4c0,0,0,0,0.1,0.1l0,0l0,0c0,0,0,0-0.1,0h-0.1c0,0-0.1,0-0.1-0.1
				c0,0-0.3-0.3-0.1-0.3l0,0C-329.6,247.9-329.6,247.9-329.5,247.9L-329.5,247.9z M-329.6,247.4L-329.6,247.4
				C-329.6,247.4-329.6,247.5-329.6,247.4C-329.6,247.4-329.7,247.4-329.6,247.4C-329.7,247.3-329.6,247.3-329.6,247.4L-329.6,247.4
				z M-329.7,247.3L-329.7,247.3L-329.7,247.3L-329.7,247.3L-329.7,247.3z M-329.7,247.6c0-0.1,0.1-0.1,0.1-0.2l0,0l0,0
				C-329.6,247.5-329.6,247.6-329.7,247.6C-329.6,247.6-329.7,247.7-329.7,247.6C-329.7,247.7-329.7,247.7-329.7,247.6
				C-329.8,247.6-329.7,247.6-329.7,247.6z M-329.7,246.4L-329.7,246.4L-329.7,246.4L-329.7,246.4l0.1,0.1v0.1l0,0
				c-0.1,0-0.1,0.1-0.2,0.1v-0.1L-329.7,246.4L-329.7,246.4L-329.7,246.4C-329.8,246.5-329.8,246.5-329.7,246.4
				C-329.8,246.4-329.8,246.4-329.7,246.4L-329.7,246.4z M-330,246.1c0.1,0,0.2,0,0.2,0l0,0C-329.8,246.2-329.9,246.1-330,246.1
				L-330,246.1L-330,246.1z M-329.9,246.6L-329.9,246.6C-329.9,246.6-329.9,246.7-329.9,246.6C-329.9,246.7-329.9,246.7-329.9,246.6
				C-330,246.7-330,246.6-329.9,246.6z M-330,246.9L-330,246.9L-330,246.9L-330,246.9z M-330,245.2c0.1,0.1,0.1,0.2,0.1,0.3v0.1
				C-329.9,245.4-330,245.3-330,245.2C-330.1,245.2-330.1,245.2-330,245.2z M-330.3,245.2C-330.3,245.2-330.2,245.2-330.3,245.2
				c0.1,0,0.1,0,0.2,0.1C-330.2,245.2-330.3,245.2-330.3,245.2L-330.3,245.2L-330.3,245.2z M-330.3,245.2c0.1,0,0.2,0,0.2,0l0,0
				c0,0.1,0.1,0.2,0.1,0.2l-0.2-0.1C-330.3,245.3-330.3,245.3-330.3,245.2C-330.4,245.2-330.3,245.2-330.3,245.2z M-330.3,245.4
				L-330.3,245.4C-330.4,245.4-330.3,245.3-330.3,245.4z M-330.7,245.1C-330.7,245-330.6,245-330.7,245.1
				C-330.6,245.1-330.6,245.1-330.7,245.1z M-330.7,244.7L-330.7,244.7c0.1,0.1,0.1,0.1,0.1,0.1S-330.6,244.8-330.7,244.7
				C-330.7,244.8-330.7,244.8-330.7,244.7L-330.7,244.7L-330.7,244.7C-330.7,244.6-330.7,244.6-330.7,244.7z M-330.8,244.8
				C-330.8,244.9-330.7,244.9-330.8,244.8C-330.7,244.9-330.8,244.9-330.8,244.8C-330.8,244.9-330.8,244.9-330.8,244.8z
				 M-331.5,244.2c0,0.1,0.1,0.2,0.2,0.3l0,0c0,0,0,0,0-0.1C-331.4,244.4-331.4,244.4-331.5,244.2
				C-331.5,244.3-331.5,244.3-331.5,244.2L-331.5,244.2L-331.5,244.2z M-331.6,244.1c-0.1,0-0.1,0-0.2-0.1l0,0
				C-331.7,244.1-331.6,244.1-331.6,244.1z M-331.8,244.2L-331.8,244.2C-331.6,244.2-331.7,244.3-331.8,244.2
				C-331.7,244.2-331.8,244.2-331.8,244.2L-331.8,244.2z M-332.1,244.3L-332.1,244.3L-332.1,244.3L-332.1,244.3z M-332.4,244.2
				C-332.4,244.2-332.5,244.3-332.4,244.2C-332.5,244.2-332.5,244.2-332.4,244.2C-332.5,244.2-332.4,244.2-332.4,244.2z
				 M-334.1,251.4l-0.1-0.1C-334.1,251.3-334,251.4-334.1,251.4z M-334.1,250.7L-334.1,250.7L-334.1,250.7L-334.1,250.7z
				 M-334.2,250.9C-334.2,250.9-334.3,250.8-334.2,250.9c-0.1-0.1-0.1-0.1,0-0.1C-334.2,250.8-334.2,250.8-334.2,250.9L-334.2,250.9
				z M-333.9,250.8L-333.9,250.8L-333.9,250.8L-333.9,250.8z M-333.8,251C-333.8,251.1-333.8,251.1-333.8,251
				C-333.8,251.1-333.8,251.1-333.8,251L-333.8,251L-333.8,251L-333.8,251z M-333.8,251.1C-333.8,251.2-333.8,251.2-333.8,251.1
				C-333.8,251.2-333.8,251.2-333.8,251.1C-333.9,251.2-333.9,251.2-333.8,251.1C-333.9,251.1-333.8,251.1-333.8,251.1z
				 M-333.8,251.3c0.1,0,0,0.1,0,0.1C-333.8,251.3-333.8,251.3-333.8,251.3L-333.8,251.3z M-333.3,250.7L-333.3,250.7
				C-333.4,250.7-333.3,250.7-333.3,250.7z M-333.4,250.5L-333.4,250.5C-333.3,250.5-333.3,250.5-333.4,250.5
				C-333.4,250.6-333.4,250.6-333.4,250.5z M-333.3,250.8C-333.2,250.9-333.3,250.9-333.3,250.8L-333.3,250.8z M-333.2,250.6
				L-333.2,250.6C-333.3,250.7-333.3,250.6-333.2,250.6z M-333.2,251C-333.2,251-333.1,251-333.2,251
				C-333.1,251-333.1,251-333.2,251z M-333.5,250.7L-333.5,250.7C-333.5,250.7-333.6,250.7-333.5,250.7
				C-333.6,250.6-333.6,250.6-333.5,250.7C-333.6,250.6-333.5,250.6-333.5,250.7z M-333.4,251.4c0-0.1,0-0.1,0-0.2l0,0
				C-333.4,251.3-333.4,251.4-333.4,251.4L-333.4,251.4z M-333,244.1C-332.9,244.1-332.9,244.1-333,244.1L-333,244.1
				C-332.9,244.1-332.9,244.1-333,244.1C-332.9,244.1-332.9,244.1-333,244.1c0.1,0,0.2,0,0.2,0.1l0,0
				C-332.8,244.2-333,244.2-333,244.1L-333,244.1L-333,244.1z M-333.5,244.3C-333.4,244.2-333.4,244.2-333.5,244.3
				C-333.4,244.3-333.4,244.3-333.5,244.3C-333.4,244.3-333.5,244.3-333.5,244.3L-333.5,244.3z M-333.5,244.3L-333.5,244.3l-0.1,0.1
				C-333.6,244.3-333.6,244.3-333.5,244.3z M-334.6,245.1L-334.6,245.1C-334.7,245-334.6,245-334.6,245.1z M-334.6,250.5
				L-334.6,250.5C-334.6,250.4-334.6,250.4-334.6,250.5C-334.6,250.4-334.6,250.5-334.6,250.5C-334.6,250.6-334.6,250.6-334.6,250.5
				C-334.6,250.6-334.6,250.6-334.6,250.5z M-334.6,250.9L-334.6,250.9L-334.6,250.9L-334.6,250.9L-334.6,250.9z M-334.5,251.1
				C-334.4,251-334.4,251-334.5,251.1C-334.4,251-334.4,251.1-334.5,251.1L-334.5,251.1L-334.5,251.1z M-334.4,251.3
				C-334.5,251.3-334.5,251.2-334.4,251.3C-334.4,251.2-334.4,251.2-334.4,251.3z M-334.2,251.4c-0.1,0-0.1-0.1-0.1-0.1
				S-334.2,251.3-334.2,251.4z M-333.8,251.4c0,0,0-0.1,0.1-0.1C-333.7,251.3-333.7,251.3-333.8,251.4
				C-333.7,251.4-333.7,251.5-333.8,251.4C-333.7,251.5-333.7,251.5-333.8,251.4L-333.8,251.4C-333.8,251.5-333.8,251.4-333.8,251.4
				z"/>
			<path id="XMLID_1280_" class="st2" d="M-335.5,249.1L-335.5,249.1L-335.5,249.1z"/>
		</g>
	</g>
</g>
<g id="XMLID_41_">
	<g id="XMLID_196_">
		<g id="XMLID_235_">
			<path id="XMLID_236_" class="st3" d="M-362.2,265.5c-0.1,0-0.3,0-0.3-0.1c-0.1,0-0.2,0-0.2,0c-0.1,0-0.2-0.1-0.3-0.1
				c-0.3,0-0.7,0-1,0c-0.4-0.2-0.6-0.6-0.8-0.9c-0.2-0.4-0.4-0.8-0.6-1.2c-0.2-0.4-0.4-0.8-0.7-1.1c-0.2-0.3-0.6-0.6-0.8-1
				c0,0,0,0,0-0.1c-0.2-0.5-0.5-1-0.6-1.6c0.1,0,0.2-0.1,0.2-0.2c-0.1-0.8-0.3-1.6-0.4-2.4c0-0.2,0-0.3-0.1-0.5
				c-0.1-0.3-0.2-0.6-0.3-0.9c-0.1-0.1-0.2-0.3-0.2-0.5c-0.1-0.1-0.2-0.3-0.3-0.4c-0.2-0.1-0.4-0.3-0.6-0.4
				c-0.1-0.1-0.2-0.1-0.3-0.2c-0.1,0-0.2-0.1-0.4-0.2s-0.5-0.2-0.7-0.3c-0.2-0.1-0.5-0.2-0.6-0.4c-0.1,0-0.1-0.1-0.2-0.1
				c-0.2-0.2-0.4-0.3-0.5-0.5c-0.2-0.2-0.3-0.4-0.5-0.6c-0.1-0.3-0.2-0.6-0.2-1c0.1-0.3,0.1-0.6,0.2-0.9c0,0,0.2,0,0.2-0.1
				c0.1-0.2,0.1-0.6,0.1-0.9c0-0.1,0-0.2,0-0.3c0.1-0.1,0.1-0.1,0.2-0.2c0,0,0.1-0.1,0.2-0.1s0.1,0,0.1-0.1s0-0.1,0-0.1
				c0-0.1,0-0.1-0.1-0.2c0-0.1-0.1-0.1-0.1-0.2l0,0c-0.1,0-0.1-0.1-0.1-0.2l0,0c0.1,0,0.1,0.1,0.2,0.1s0.2,0,0.2,0
				c-0.1,0-0.2,0-0.3-0.1l0,0c0-0.1-0.1-0.2-0.2-0.3l-0.1-0.3l0,0c0.1,0.1,0.1,0.2,0.2,0.3c-0.1-0.1-0.2-0.2-0.2-0.3v-0.1l0,0
				c0.1,0,0.1,0.1,0.2,0.1c0.1,0.4,0.3,0.5,0.4,0.6c-0.1-0.1-0.1-0.2-0.2-0.3l0,0c0,0,0.1,0.1,0.2,0.1c-0.1,0-0.2-0.1-0.3-0.2
				s-0.2-0.1-0.2-0.2c-0.1,0-0.2-0.1-0.3-0.1s-0.1,0-0.2,0l0,0l0,0c0.1-0.1,0.2-0.2,0.2-0.2c-0.1,0.1-0.1,0.1-0.2,0.2c0,0,0,0-0.1,0
				c0,0,0-0.1-0.1-0.1s-0.1-0.1-0.1-0.1c0.1,0,0.1,0,0.2-0.1c0-0.1,0.1-0.1,0.1-0.2c-0.1,0.2-0.2,0.2-0.4,0.2c-0.1,0-0.2,0-0.2-0.1
				h0.1c0,0,0.1,0,0.1-0.1s0-0.1,0-0.2c0,0.1,0,0.1,0,0.2s-0.1,0-0.1,0c-0.1-0.1-0.2-0.1-0.3-0.2l-0.1-0.1c0,0,0,0-0.1-0.1l0,0
				c0,0,0,0-0.1,0s-0.2,0-0.3-0.1c0.1-0.1,0.1-0.2,0.1-0.3c0,0.1,0,0.2-0.1,0.3c-0.1,0-0.2,0-0.3,0s-0.2-0.1-0.3-0.1l0,0l0,0l0,0
				c0-0.4,0-0.5,0-0.7c0,0.2-0.1,0.3-0.2,0.5c0,0,0,0.1-0.1,0.1c0,0,0,0-0.1,0c0-0.1-0.2-0.3-0.2-0.3l0,0c0,0,0,0-0.1,0
				c0-0.1,0-0.1,0-0.2s0.1-0.3,0-0.4c0.1,0.2-0.1,0.4-0.1,0.6l0,0c0-0.1-0.1-0.1-0.1-0.2c0,0,0.1,0,0.1-0.1c0,0,0-0.1,0.1-0.1
				c0-0.1,0-0.2,0-0.2c0,0.1-0.1,0.2-0.1,0.2c0,0.1-0.1,0.1-0.1,0.2c0,0,0,0-0.1,0c0-0.1,0-0.3,0-0.4c0,0.2,0,0.3-0.1,0.5l0,0
				c0,0,0,0-0.1,0.1c-0.1-0.2-0.2-0.3-0.4-0.3c0.2,0.1,0.3,0.2,0.3,0.4l0,0l-0.1,0.1l-0.1,0.1c0,0,0,0-0.1,0s-0.2,0-0.3,0
				s-0.2,0-0.3,0c0.1,0,0.1,0,0.2,0c0,0-0.1,0-0.1,0.1c-0.1,0-0.2,0.1-0.3,0.1s-0.2,0-0.3-0.1c0.1,0.1,0.2,0.1,0.3,0.1s0.2,0,0.3,0
				s0.2-0.1,0.3-0.1l0,0c0,0,0.1,0,0.2,0v0.1c0,0,0,0,0,0.1c-0.1,0-0.1,0-0.2,0c-0.1,0.1-0.2,0.1-0.3,0.2h-0.1c-0.1,0-0.1,0-0.2-0.1
				c-0.1,0-0.1,0-0.2,0c-0.1,0-0.1,0-0.2,0l-0.1-0.1l0,0c0,0-0.1-0.1-0.1-0.2c0,0.1,0.1,0.2,0.2,0.3c0,0,0,0-0.1,0s-0.2,0-0.3-0.1
				c0.1,0.1,0.2,0.2,0.3,0.1h0.1l0.1,0.1l0.1,0.1c-0.1,0-0.3,0-0.4,0c0.2,0.1,0.3,0.1,0.5,0.1l0,0c-0.1,0-0.2,0.1-0.3,0.2
				c-0.1,0-0.1,0.1-0.2,0.1s-0.2,0.1-0.3,0c-0.1,0-0.2-0.1-0.3-0.1c0.1,0.1,0.2,0.2,0.3,0.2s0.2,0,0.3,0l0,0
				c-0.1,0.1-0.1,0.1-0.2,0.2c-0.1,0.1-0.2,0.3-0.4,0.2c0.1,0,0.2,0,0.3,0s0.1-0.1,0.2-0.1l0,0l0,0c0.1-0.1,0.2-0.2,0.2-0.2
				s0,0,0.1,0c-0.1,0.1-0.1,0.2-0.2,0.3c0,0,0,0-0.1,0.1s-0.1,0.2-0.2,0.2l0,0c-0.1,0-0.2,0-0.3,0c0,0,0.1,0.1,0.2,0.1l0,0l-0.1,0.1
				c-0.1,0.1,0,0.1,0,0.2l0,0c-0.2,0-0.3-0.2-0.3-0.4c0,0.1,0,0.2,0.1,0.3c0,0.1,0.1,0.1,0.1,0.2c0,0,0,0.1,0.1,0.1l0,0
				c-0.1,0-0.1,0.1-0.2,0.1l-0.1-0.1c0,0,0,0.1,0.1,0.1c-0.1,0-0.2-0.1-0.3-0.2c0.1,0.1,0.1,0.2,0.3,0.3h0.1l0,0l0,0l0,0
				c-0.1,0-0.2,0.1-0.3,0.2s-0.1,0.2-0.1,0.3c0.1-0.1,0.1-0.2,0.2-0.2c0,0,0,0,0.1-0.1v0.1c0,0.1-0.1,0.2-0.1,0.2
				c0.1-0.1,0.2-0.2,0.3-0.3l0,0c0,0.2,0,0.3-0.1,0.5c0,0.1-0.1,0.1-0.2,0.2c-0.1,0-0.2,0-0.2,0c0.1,0,0.2,0,0.3,0s0.2-0.1,0.2-0.2
				c0.1-0.1,0.1-0.2,0.1-0.3c0,0.1,0,0.1,0,0.2s-0.1,0.2-0.1,0.3l0,0c-0.1,0.1-0.1,0.1-0.2,0.2c0.1,0,0.2,0,0.2-0.1l0,0l0,0l0,0
				c0.1-0.1,0.1-0.1,0.2-0.2l0,0c0,0.1,0.1,0.2,0,0.3c0,0.1,0,0.3,0,0.4s0.1,0.2,0.1,0.3c0,0.1,0,0.2,0,0.4c0.1,0,0.2-0.1,0.3-0.1
				c0,0.1,0.1,0.1,0.2,0.2c0.1,0.2,0.2,0.4,0.3,0.7c0.1,0.1,0.2,0.2,0.2,0.2c0,0.1,0.1,0.2,0.2,0.3c0.1,0.2,0.3,0.3,0.5,0.5
				c0.1,0,0.1,0.1,0.2,0.1c0,0.1,0.1,0.1,0.2,0.2c0.1,0.3,0.2,0.5,0.2,0.8c-0.1,0-0.3,0-0.4,0.1c0,0.1-0.1,0-0.1,0.1c0,0,0,0,0,0.1
				c-0.1,0.1-0.1,0.1-0.2,0.1c-0.2,0.1-0.4,0.2-0.7,0.3c-0.1,0.1-0.3,0.1-0.4,0.2c-0.2,0.1-0.4,0.3-0.7,0.4
				c-0.2,0.1-0.4,0.3-0.6,0.5c-0.1,0.1-0.2,0.3-0.3,0.4c-0.3,0.6-0.5,1.3-0.6,2c0,0.1,0,0.2,0,0.3c-0.1,0.6-0.3,1.3-0.3,2
				c0,0.1,0.1,0.1,0.1,0.1c0.1,0,0.1,0,0.1,0.1c-0.2,0.5-0.4,0.9-0.5,1.4c-0.2,0.4-0.6,0.7-0.8,1c-0.1,0.2-0.3,0.4-0.4,0.6
				c-0.1,0.2-0.2,0.4-0.3,0.6c-0.2,0.4-0.4,0.8-0.6,1.3c-0.1,0.2-0.2,0.4-0.4,0.6c0,0.1-0.1,0.2-0.2,0.3c-0.1,0.1-0.2,0.2-0.3,0.2
				c-0.3,0-0.6,0-0.9,0c-0.1,0-0.2,0.1-0.4,0.1c-0.1,0.1-0.2,0.1-0.3,0.2c-0.1,0.1-0.2,0.1-0.2,0.3c0,0.1,0.1,0.1,0.2,0.2
				c0.2,0.1,0.3-0.1,0.5-0.1c0.2,0.2-0.1,0.4-0.1,0.7c0,0,0,0.1-0.1,0.2c-0.1,0.2-0.2,0.3-0.2,0.5c0,0,0,0.1,0.1,0.1
				c0,0,0,0.1,0.1,0.1c0,0.1,0.2,0,0.3,0c0,0.1,0.1,0.2,0.2,0.3c0.1,0,0.3,0,0.4-0.1c0.1,0.1,0.2,0.1,0.3,0.2c0.1,0,0.2-0.1,0.3-0.2
				c0.1,0,0.1,0.1,0.3,0.1c0.3-0.1,0.4-0.3,0.6-0.5c0.2-0.4,0.4-0.7,0.4-1.2c0.2-0.3,0.3-0.5,0.5-0.7c0.1-0.1,0.2-0.3,0.2-0.4
				c0.1-0.1,0.2-0.3,0.3-0.4c0-0.1,0.1-0.1,0.1-0.2c0.1,0,0.1-0.1,0.2-0.2c0-0.1,0.1-0.1,0.1-0.2c0.1-0.1,0.1-0.1,0.1-0.2
				c0.1-0.1,0.2-0.2,0.3-0.3s0.2-0.2,0.3-0.4c0.1-0.1,0.2-0.3,0.2-0.4c0.1-0.1,0.2-0.3,0.2-0.4c0.2-0.3,0.4-0.5,0.5-0.8
				c0.3-0.6,0.4-1.3,0.7-1.9c0.1,0.1,0.4,0.1,0.5,0.1c0.1,0.9,0.1,1.9,0.1,2.8c0,0.7-0.1,1.4-0.2,2.1c0,0.2-0.1,0.4-0.1,0.6
				c0,0.1,0.1,0.1,0.1,0.1c0,0.1,0.1,0,0.1,0.1c-0.1,0.3-0.1,0.6-0.1,0.9c-0.2,0.5-0.3,1-0.5,1.5c-0.1,0.2-0.2,0.5-0.3,0.7
				c-0.1,0.3-0.1,0.5-0.2,0.8s-0.2,0.6-0.3,1c-0.1,0.4-0.1,0.8-0.2,1.1c0,0.2-0.1,0.4-0.1,0.5c-0.1,0.2-0.1,0.5-0.2,0.7
				c-0.1,0.8-0.2,1.5-0.4,2.2s-0.4,1.4-0.6,2.1c-0.1,0.4-0.2,0.7-0.3,1c-0.2,0.7-0.4,1.4-0.7,2c-0.1,0.3-0.3,0.6-0.5,0.9
				c0,0.1-0.1,0.3-0.1,0.4c0,0.5-0.1,1-0.2,1.4c-0.1,0.2-0.2,0.3-0.2,0.5c-0.1,0.1-0.2,0.3-0.3,0.5c0,0.1-0.1,0.2-0.1,0.3
				s-0.1,0.2-0.1,0.3c0,0.3,0,0.7,0.1,0.9c0.2,0.2,0.5,0.2,0.8,0.2s0.6,0,0.8,0c0,0.1-0.1,0.2-0.1,0.3s-0.1,0.2-0.1,0.3l0,0
				c0,0.1-0.1,0.1-0.1,0.2c-0.1,0.2-0.3,0.4-0.4,0.6c0,0.1,0,0.2,0,0.3c0.1,0.1,0.2,0.2,0.3,0.3c0.2,0,0.4,0.1,0.6,0.2
				c0.3,0.1,0.7,0,1.1,0c0.4-0.1,0.6-0.2,0.8-0.4c0.1-0.2,0.1-0.3,0.1-0.6c-0.1-0.3-0.1-0.5-0.2-0.8c0-0.1,0-0.3,0-0.4
				s0-0.2-0.1-0.2c0-0.1-0.1-0.2-0.1-0.2c0.3-0.1,0.6-0.1,0.8-0.2c0.1-0.2,0.2-0.6,0.1-0.8c0.1-0.7,0.3-1.5,0.5-2.1
				c0-0.7,0.1-1.2,0.3-1.8s0.4-1.2,0.5-1.8c0.1-0.3,0.2-0.6,0.3-0.9c0.1-0.2,0.2-0.4,0.3-0.6c0-0.1,0.1-0.1,0.1-0.2
				c0.1-0.2,0.1-0.4,0.1-0.6s0.1-0.4,0.2-0.6c0.2-0.4,0.4-0.8,0.5-1.2c0.5-0.9,0.7-2.2,1.1-3.1c0.1-0.2,0.2-0.4,0.3-0.6
				c0.2-0.1,0.3-0.3,0.5-0.4c0-0.1,0.1-0.1,0.1-0.2c0-0.1,0.1-0.1,0.1-0.1c0.1-0.1,0.1,0,0.1,0.1c0,0.1,0.1,0.1,0.1,0.2
				c0,0.1,0.1,0.2,0.2,0.3c0.3,0.6,0.6,1.3,0.8,2c0.1,0.3,0.1,0.5,0.2,0.7c0.1,0.3,0.2,0.6,0.3,0.9c0.2,0.5,0.4,0.9,0.6,1.4
				c0.1,0.3,0.2,0.6,0.2,1c0.3,0.8,0.7,1.6,0.9,2.6c0.1,0.2,0.1,0.4,0.2,0.7c0.3,0.6,0.4,1.3,0.4,2.2c0.2,0.7,0.4,1.4,0.5,2.2
				c0,0.1-0.1,0,0,0.1v0.1c0,0.2,0,0.4,0.1,0.6c0.2,0.1,0.6,0.1,0.8,0.2c-0.1,0.1-0.1,0.2-0.1,0.3c0,0.3,0,0.5-0.1,0.7
				c0,0.1-0.1,0.2-0.1,0.3s-0.1,0.2-0.1,0.3c0,0.2,0,0.4,0.1,0.6c0.1,0.2,0.3,0.3,0.5,0.4c0.4,0.1,0.9,0.2,1.5,0.1
				c0.2-0.1,0.3-0.1,0.5-0.1c0.1-0.1,0.3-0.2,0.3-0.3s0-0.2,0.1-0.3c-0.1-0.3-0.3-0.5-0.5-0.8c-0.1-0.1-0.1-0.3-0.2-0.4
				c0-0.1-0.1-0.1-0.1-0.2v-0.1c0,0-0.1-0.1,0-0.1c0.5,0.1,1.3,0.1,1.6-0.1c0-0.1,0-0.1,0.1-0.2c0-0.1,0-0.2,0-0.2
				c0-0.2,0-0.3,0-0.5c0-0.1,0-0.1-0.1-0.1l-0.1-0.1c0-0.1-0.1-0.2-0.1-0.3c-0.1-0.2-0.2-0.3-0.3-0.5s-0.1-0.3-0.2-0.5
				c0-0.5-0.1-0.9-0.1-1.4c-0.1-0.1-0.1-0.2-0.1-0.4c-0.4-0.5-0.6-1.1-0.8-1.8c-0.2-0.6-0.4-1.4-0.6-2c-0.2-1.2-0.6-2.3-0.8-3.5
				c0-0.3-0.1-0.7-0.1-1c-0.1-0.3-0.2-0.6-0.2-0.9c-0.1-0.6-0.2-1.3-0.3-1.9c0.1,0,0.1,0,0.2,0s0.2,0,0.2-0.1c0.1-0.1,0-0.2,0-0.4
				c-0.1-0.1,0-0.2-0.1-0.3c0-0.1-0.2,0-0.2,0c-0.1,0-0.1,0-0.2,0c-0.2-1-0.6-1.9-0.9-2.8c0-0.3-0.1-0.6-0.1-0.9
				c0-0.1,0.1-0.1,0.1-0.1s0.1-0.1,0.1-0.2c-0.2-0.8-0.3-1.7-0.3-2.7c-0.1-1,0-2,0.1-2.9c0.2,0,0.3-0.1,0.5-0.1
				c0.1,0.3,0.2,0.6,0.3,0.9s0.2,0.7,0.3,0.9c0,0.2,0.1,0.3,0.2,0.4c0.2,0.3,0.4,0.6,0.6,0.8c0.1,0.1,0.1,0.2,0.2,0.3
				c0.2,0.3,0.4,0.5,0.6,0.7c0.1,0.1,0.2,0.2,0.3,0.3c0.1,0,0.1,0.1,0.2,0.2c0,0.1,0.1,0.1,0.1,0.2c0.1,0.1,0.2,0.2,0.3,0.3
				s0.2,0.2,0.3,0.4c0.2,0.2,0.4,0.5,0.5,0.7c0,0.2,0.1,0.3,0.1,0.4c0.1,0.2,0.2,0.5,0.4,0.7s0.3,0.4,0.6,0.5c0.1,0,0.1-0.1,0.3-0.1
				c0.1,0,0.2,0.1,0.3,0.1c0.2,0,0.2-0.1,0.3-0.2c0.1,0.1,0.2,0.1,0.4,0.1c0.1-0.1,0.2-0.2,0.2-0.3c0.1,0,0.2,0,0.3,0
				c0-0.1,0.1-0.1,0.1-0.2c0-0.3-0.2-0.5-0.2-0.7c-0.1-0.1-0.1-0.3-0.1-0.4c-0.1-0.1,0-0.3,0.1-0.3c0.2,0,0.2,0.1,0.4,0.1
				c0.1-0.1,0.3-0.1,0.2-0.3C-362,265.6-362.1,265.6-362.2,265.5z M-372.1,247.7L-372.1,247.7C-372.1,247.7-372.1,247.6-372.1,247.7
				C-372.1,247.6-372.1,247.7-372.1,247.7z M-377.9,248.1L-377.9,248.1L-377.9,248.1C-377.9,248-377.9,248-377.9,248.1L-377.9,248.1
				z M-377.9,249l-0.1,0.1c0.1-0.1,0.1-0.2,0.2-0.2l0,0C-377.8,248.9-377.9,248.9-377.9,249z M-373.8,245.9
				C-373.9,246-373.9,246-373.8,245.9C-373.9,245.9-373.9,245.9-373.8,245.9z M-375.4,245.1L-375.4,245.1
				C-375.3,245.1-375.3,245.1-375.4,245.1c0.1,0,0.1,0.1,0.1,0.2l0,0c0,0,0,0,0,0.1l0,0v0.1c0,0,0,0,0,0.1l0,0
				c0-0.1-0.1-0.2-0.1-0.3C-375.5,245.1-375.4,245.2-375.4,245.1z M-377.1,246.2L-377.1,246.2c0.1-0.1,0.1,0,0.2,0l0,0l0,0
				C-377,246.2-377,246.2-377.1,246.2z"/>
		</g>
	</g>
</g>
<g id="XMLID_16_">
	<g id="XMLID_224_">
		<g id="XMLID_290_">
			<path id="XMLID_292_" class="st4" d="M-382.1,266.3c-0.3-0.3-0.6-0.4-0.9-0.7c-0.1,0-0.2-0.1-0.3-0.1c0,0,0-0.1-0.1-0.1h-0.1
				c-0.1,0-0.1-0.1-0.2-0.1c-0.1-0.1-0.2-0.1-0.2-0.2c-0.1,0-0.1-0.1-0.1-0.1c-0.4-0.4-0.9-0.8-1.3-1.3c-0.4-0.3-0.7-0.7-1-1.1
				c-0.3-0.3-0.7-0.7-1-1c-0.3-0.2-0.5-0.4-0.7-0.5c-0.1-0.3-0.4-0.4-0.5-0.7c-0.1-0.1-0.2-0.2-0.3-0.4c-0.1,0-0.1-0.1-0.2-0.2
				c0-0.1-0.1-0.1-0.1-0.2c0-0.1,0.1-0.1,0.1-0.2c-0.3-0.4-0.7-0.8-1-1.2c-0.1-0.3-0.2-0.5-0.3-0.7c-0.3-0.3-0.6-0.6-0.8-0.9
				c0-0.1-0.1-0.2-0.2-0.4c-0.1-0.1-0.2-0.1-0.3-0.2c-0.1-0.1-0.1-0.2-0.2-0.3c-0.1-0.1-0.2-0.1-0.3-0.2c0-0.1-0.1-0.2-0.1-0.3
				c-0.3-0.1-0.5-0.2-0.6-0.5c-0.2-0.1-0.3-0.2-0.5-0.2c-0.2-0.1-0.3-0.2-0.5-0.3c-0.2,0-0.3-0.1-0.5-0.1c-0.1-0.1-0.2-0.2-0.4-0.2
				c-0.1-0.1-0.2-0.3-0.3-0.4c-0.1,0-0.2,0-0.2-0.1c-0.1-0.3-0.2-0.6-0.2-0.9c0.1,0,0.2,0.1,0.3,0.2c0.1-0.1,0.1-0.2,0.1-0.2
				c0,0.1,0.1,0.2,0.1,0.2c0.1,0.1,0.1,0.2,0.2,0.2c0-0.1-0.1-0.2-0.1-0.3c0.1,0,0.1,0.1,0.2,0v-0.1c0.1,0,0.2,0.1,0.3,0l0,0
				c0.1,0.1,0.2,0.1,0.3,0.2c-0.1-0.1-0.2-0.2-0.4-0.3v-0.1h0.1c0.1,0.1,0.3,0.2,0.5,0.2c-0.1,0-0.2-0.1-0.2-0.1s0,0,0.1,0v-0.1
				c0.1,0,0.2,0.1,0.3,0c-0.1,0-0.1,0-0.2,0c0,0,0,0,0.1,0h-0.1c0,0-0.1,0-0.1-0.1c-0.1-0.1-0.2-0.1-0.3-0.2c0,0,0-0.1-0.1-0.1l0,0
				c0.1-0.1,0.2,0,0.3,0.1c0.1,0,0.2,0.1,0.2,0.1c-0.1,0-0.1-0.1-0.2-0.1c0,0,0,0-0.1-0.1l0,0c0.1,0.1,0.3,0.1,0.4,0.1h-0.1h0.1
				c0.2,0,0.5,0,0.6-0.2c-0.2,0.1-0.4,0.1-0.5,0.1c0.1,0,0.2,0,0.3,0c-0.1,0-0.2,0-0.3-0.1l0,0l0,0c0.1,0,0.2,0,0.3-0.1
				c-0.1,0-0.3,0-0.4-0.1l0,0c0,0,0,0,0-0.1c0.1,0,0.2,0,0.2,0c0.2,0,0.3-0.1,0.4-0.3c-0.1,0.1-0.3,0.2-0.5,0.2c0,0,0,0-0.1,0
				c0.2-0.1,0.3-0.2,0.4-0.4c-0.2,0.1-0.3,0.2-0.5,0.2l0,0c0,0,0-0.1,0.1-0.1c0,0,0,0,0.1,0c0.1-0.1,0.2-0.2,0.2-0.3
				c-0.1,0.1-0.1,0.1-0.2,0.2v-0.1c-0.1,0-0.1,0.1-0.1,0.2h-0.1c0,0-0.1,0-0.1-0.1c0.1,0,0.2,0,0.2-0.1c0.1-0.1,0.1-0.2,0.2-0.3
				c-0.1,0.1-0.1,0.2-0.2,0.2c-0.1,0.1-0.2,0.1-0.3,0.1s-0.2-0.1-0.3-0.1v-0.1c0.2,0,0.4,0,0.6-0.1l0,0c0.1,0,0.2,0,0.2-0.1
				c-0.1,0-0.2,0-0.3,0h-0.1c-0.1,0-0.1-0.1-0.2-0.1l-0.1-0.1c0.2,0,0.3-0.1,0.5-0.2c-0.2,0-0.3,0.1-0.5,0.1h-0.1c0,0,0,0,0-0.1
				c0.1,0.1,0.3,0,0.4,0l0,0c0.1,0,0.1,0,0.2,0c-0.2,0-0.4-0.1-0.5-0.2l0,0c0,0,0.1,0,0.1-0.1c0.2,0,0.3-0.1,0.4-0.3
				c-0.1,0.1-0.3,0.2-0.4,0.2h-0.1l0,0l0,0c0.1,0,0.3-0.1,0.3-0.2c-0.1,0.1-0.2,0.1-0.3,0.1s-0.2,0-0.3-0.1c0,0,0,0-0.1-0.1
				c0-0.1,0-0.1,0-0.2l-0.1-0.1c0,0,0,0,0-0.1c0.1,0.1,0.2,0.2,0.3,0.3h0.1c0,0,0.1,0,0.1-0.1s0-0.1,0-0.2c0,0.4-0.2,0-0.3-0.2
				s-0.2-0.5-0.4-0.7c-0.1-0.2-0.3-0.4-0.4-0.7c-0.2-0.2-0.4-0.4-0.6-0.6c-0.1-0.1-0.2-0.1-0.3-0.1c-0.3-0.1-0.3-0.1-0.4-0.2
				c-0.3-0.1-0.6-0.1-0.9-0.1h-0.1c-0.1,0-0.2,0-0.3,0c-0.5,0.1-0.7,0.3-1,0.5c-0.2,0.3-0.4,0.6-0.5,0.9c0,0.1-0.1,0.3-0.1,0.4
				c-0.1,0.2-0.1,0.5-0.2,0.7c-0.1,0.4-0.2,0.8-0.1,1.2c0,0,0,0,0,0.1l-0.1,0.1c-0.1,0-0.2,0-0.2,0c0.1,0.1,0.1,0.1,0.2,0.1h0.1v0.1
				c0,0.1-0.1,0.1-0.2,0.2c-0.2,0.1-0.3,0.1-0.5,0c0.1,0.1,0.2,0.2,0.4,0.2c-0.2,0-0.3,0-0.5,0c0.2,0.1,0.3,0.1,0.5,0.1l0,0h0.1
				c-0.3,0.1-0.5,0.3-0.7,0.3c0.1,0,0.3,0,0.4,0l0,0l0,0c-0.1,0.1-0.3,0.2-0.5,0.2c0.2,0,0.4,0,0.6-0.2c0,0,0,0,0.1-0.1l0,0l0,0
				c-0.1,0.1-0.2,0.2-0.3,0.2c0.1,0,0.3-0.1,0.3-0.2l0.1-0.1l0.1-0.1c0,0.1-0.1,0.1,0,0.2c-0.1,0.1-0.1,0.2-0.2,0.3
				c0,0-0.1,0-0.1,0.1c-0.1,0-0.3,0-0.4,0c0.1,0.1,0.2,0.2,0.4,0.2h0.1c0.1,0,0.2,0,0.3,0s0.2-0.1,0.2-0.1c0,0.1,0.1,0.1,0.1,0.1
				c-0.1,0-0.1,0.1-0.2,0.1c-0.2,0.1-0.4,0.1-0.6,0c0.2,0.1,0.4,0.2,0.6,0.1c0,0,0,0,0.1,0c-0.1,0.1-0.2,0.1-0.3,0.1
				c-0.2,0.1-0.4,0-0.5-0.1c0,0.1,0.1,0.1,0.2,0.2c0,0.1,0.1,0.1,0.1,0.2c-0.1,0-0.2,0-0.3,0c0.1,0.1,0.2,0.1,0.4,0.1l0,0
				c-0.1,0-0.3,0-0.4,0.1l0,0l0,0c-0.1,0-0.2,0-0.4,0c0.2,0.1,0.4,0.1,0.6,0.1c0.1,0,0.1,0,0.2,0l0,0l0,0h0.1h0.1
				c-0.2,0.1-0.4,0.1-0.6,0l0.1,0.1c-0.1,0-0.2,0-0.4,0c0.2,0,0.4,0.1,0.6,0.1c0.1,0,0.1,0,0.2,0c0.1,0.1,0.3-0.1,0.4-0.1
				c-0.2,0.1-0.3,0.2-0.5,0.2c0.2,0,0.4,0,0.6-0.1l0,0c0.1,0,0.1-0.1,0.2-0.1c0,0.1,0,0.1,0,0.2c-0.1,0.2-0.2,0.3-0.3,0.5
				c-0.1,0.1-0.3,0.2-0.5,0.2c0.2,0,0.4,0,0.5-0.1c0.1,0,0.2-0.1,0.2-0.2c0.1,0,0.1-0.1,0.1-0.1c0,0.1-0.1,0.2-0.2,0.3h-0.1
				c0.2,0,0.3-0.1,0.5-0.2c0.1,0,0.1-0.1,0.1-0.2l0,0l0,0l0,0l0,0c0-0.1,0.1-0.1,0.2-0.1c0,0.1,0,0.2,0,0.2c0,0.1-0.1,0.2-0.1,0.2
				c-0.1,0-0.2,0-0.3,0c-0.3,0.1-0.7,0.2-1,0.3c-0.1,0.1-0.2,0.2-0.4,0.3c-0.2,0.1-0.3,0.2-0.5,0.2c-0.1,0.1-0.2,0.3-0.3,0.4
				s-0.2,0.1-0.3,0.2c-0.1,0.2-0.2,0.4-0.4,0.5c-0.1,0.2-0.2,0.3-0.2,0.5c-0.2,0.3-0.5,0.6-0.7,0.9c-0.1,0.2-0.2,0.4-0.2,0.7
				c-0.3,0.5-0.6,0.9-0.9,1.4c0,0.1,0.1,0.1,0.1,0.2c-0.3,0.4-0.6,1-0.9,1.4c-0.2,0.5-0.5,0.9-0.8,1.3c-0.3,0.4-0.5,0.9-0.7,1.3
				c-0.4,1-1.1,1.7-1.5,2.6c-0.1,0.1-0.2,0.1-0.2,0.2v0.1c-0.1,0.1-0.2,0.2-0.3,0.2c0,0.1-0.1,0.1-0.1,0.1c-0.1,0.2-0.2,0.4-0.4,0.5
				c-0.1,0.2-0.3,0.3-0.4,0.5c0.1,0.1,0.1,0.3,0.2,0.4c0.1,0.1,0.1,0.3,0.2,0.4c0.1,0.1,0.1,0.1,0.2,0c0,0.1,0.1,0.1,0.1,0.2
				c0,0,0.1,0,0.2,0c0.1,0.1,0.1,0.1,0.2,0.1s0.2,0,0.2-0.1c0-0.1,0.1-0.1,0.2-0.1c0.2,0,0.3-0.2,0.5-0.2c0.1-0.1,0.3-0.2,0.4-0.3
				c0-0.2,0-0.3,0-0.5s-0.1-0.3-0.1-0.5c0-0.1,0.1-0.2,0.1-0.4c0.1-0.1,0.2-0.1,0.2-0.3c0.1-0.2,0.2-0.4,0.4-0.5
				c0.1-0.2,0.3-0.4,0.4-0.5c0.1-0.2,0.3-0.4,0.4-0.5c0.1-0.2,0.2-0.3,0.3-0.4l0.1-0.1c0.3-0.3,0.6-0.7,0.8-1.1
				c0.3-0.3,0.5-0.8,0.8-1.1c0.3-0.2,0.6-0.5,0.8-0.7c0.1-0.2,0.3-0.3,0.5-0.5c0.1-0.1,0.2-0.2,0.3-0.3c0.2,0.1,0.6,0.1,0.7,0.3
				c0.1,0,0.1,0,0.1,0s0-0.1,0.1-0.1c0.1,0.5,0.1,1.1,0.1,1.7c0.1,0.2,0.1,0.4,0.2,0.7c0.1,0,0.2,0.1,0.3,0.1
				c-0.1,0-0.2,0.1-0.3,0.1c0,0.2-0.2,0.4-0.3,0.7c-0.1,0.4-0.4,0.9-0.4,1.3c-0.1,0.5,0.1,1.1,0,1.6c-0.1,0.6-0.3,1.1-0.4,1.7
				c-0.1,1-0.2,2.1-0.5,3.1c-0.1,0.4-0.1,0.8-0.2,1.3c-0.1,0.4-0.4,0.6-0.6,0.9c0.3-0.1,0.8,0,1.1,0c0,0.1,0,0.3,0,0.4
				c0.2,0,0.7-0.2,0.9,0s0,0.3,0.3,0.3c0.3,0.1,0.5-0.1,0.8,0c0.3,0.1,0.4,0.3,0.8,0.2c0.3-0.1,0.5-0.3,0.9-0.2c0.1,0,0.1,0,0.2,0
				c0.1,0.2,0.2,0.5,0.3,0.7l0,0c0,0.4-0.1,0.8-0.2,1.1s-0.2,0.7-0.2,1.1c0,0.2,0,0.4,0,0.6c-0.2,0.6-0.4,1.3-0.5,2
				c-0.1,0.3-0.1,0.6-0.1,1c0,0.7-0.1,1.3-0.2,2c0,0.1-0.2,0.2-0.2,0.3c-0.1,0.6-0.2,1.1-0.4,1.5c0,0.3-0.1,0.7-0.2,0.9
				c0,0.1,0,0.2,0,0.4c-0.1,0.1-0.1,0.2-0.1,0.4c0.1,0.6-0.1,1.1,0,1.7c0.1,0,0.1,0.1,0.1,0.1c0.1,0,0.1,0,0.2,0.1
				c0.5,0,0.9,0,1.3-0.1s0.7-0.2,0.9-0.4c0-0.3-0.1-0.5,0-0.8c-0.1-0.2-0.3-0.3-0.4-0.5c-0.1-0.2-0.1-0.3-0.1-0.6
				c0-0.1-0.1-0.1-0.2-0.3c0-0.3,0-0.6,0.1-0.9c0.2-0.4,0.3-0.9,0.5-1.3c0-0.1-0.1-0.1,0-0.2c0.3-0.5,0.5-0.9,0.7-1.4
				c0.1-0.3,0.2-0.5,0.4-0.7c0-0.1,0.1-0.3,0.2-0.4c0.1-0.1,0.1-0.3,0.2-0.4c0.1,0.4,0.3,0.7,0.4,1c0.2,0.3,0.3,0.6,0.5,0.9
				c0.3,0.6,0.7,1.2,1.1,1.8c0,0.1-0.2,0-0.1,0.2c0.3,0.7,0.8,1.3,0.8,2.3c0,0.1-0.1,0.1-0.1,0.2c0,0.4-0.1,0.7-0.1,1
				c-0.1,0.2-0.2,0.3-0.3,0.5c0,0.4,0,0.9,0.1,1.2c0.1,0.1,0.1,0.2,0.2,0.2c0.1,0,0.1,0.1,0.2,0.1c0,0,0,0.1,0.1,0.1h0.1l0.1,0.1
				c0.1,0,0.3,0.1,0.4,0.1c0.1,0,0.1,0,0.2,0c0.4,0,0.8,0,1.1-0.2c0.1-0.1,0.2-0.3,0.3-0.5c0-0.8-0.1-1.3-0.1-2
				c0-0.2-0.1-0.3-0.1-0.5s0-0.3,0-0.5c-0.2-0.4-0.4-0.8-0.5-1.4c-0.3-0.4-0.5-0.9-0.6-1.5c0,0-0.2,0-0.2-0.1
				c-0.1-0.4-0.3-0.9-0.4-1.4s-0.2-1-0.3-1.5c-0.2-0.9-0.7-1.7-0.9-2.5c0-0.2-0.1-0.5-0.1-0.7c0-0.3-0.1-0.5-0.2-0.7
				c-0.2-0.4-0.3-0.8-0.5-1.3c0-0.1,0-0.2,0-0.3s0-0.1,0.1-0.2h0.1c0.5,0,1.3,0,1.8-0.2c0.4-0.2,0.5-0.2,0.9-0.1
				c0.5,0.2,1,0.2,1.5,0c0.3-0.1,0.3,0,0.4-0.4c0-0.2,0-0.4-0.1-0.6c-0.1-0.6-0.2-1.1-0.2-1.7c0-1.4-0.2-2.9-0.7-4.3
				c-0.3-0.8-0.4-1.4-0.5-2.2c-0.1-0.6-0.1-1.1-0.3-1.6s-0.5-0.9-0.7-1.4c-0.1-0.2-0.1-0.3-0.2-0.4l0,0c0,0,0.1,0,0.1-0.1
				c0-0.3-0.1-0.5-0.2-0.7s-0.1-0.5-0.2-0.7c0.1-0.2,0.1-0.4,0-0.6c0-0.1,0.1-0.2,0.1-0.3c0.1-0.1,0.2-0.2,0.2-0.4
				c0,0.1,0,0.3,0,0.4c0.3,0.3,0.5,0.6,0.8,0.8c0.1,0.2,0.3,0.4,0.4,0.6c0.1,0,0.1,0.2,0.2,0.2c0.2,0,0.2-0.2,0.4-0.2
				c0.2-0.1,0.4-0.1,0.5-0.2c0.5,0.4,1,0.9,1.5,1.3c0.1,0.1,0.3,0.2,0.4,0.3c0.1,0.1,0.3,0.2,0.4,0.3c0.3,0.2,0.5,0.4,0.8,0.6
				c0.2,0.2,0.6,0.4,0.8,0.6c0.3,0.2,0.5,0.4,0.8,0.6c0.5,0.4,1.1,0.8,1.6,1.3c0.3,0.3,0.3,0.9,0.4,1.4c0.1,0.1,0.3,0.1,0.5,0.2
				c0.3,0,0.4,0.1,0.6,0c0.1,0.1,0.2,0.2,0.3,0.1l0,0c0.1,0,0.1-0.1,0.2-0.2c0.1,0,0.2,0,0.2-0.1c0.1,0,0-0.2,0.1-0.2s0.2,0,0.2-0.1
				C-382.1,267-382.1,266.7-382.1,266.3z M-394.4,251c0.1,0,0.2,0.1,0.3,0.1l0,0C-394.2,251.1-394.3,251.1-394.4,251L-394.4,251
				L-394.4,251z M-407.6,268.1c-0.1,0-0.1-0.1-0.1-0.2c0-0.1,0-0.2-0.1-0.2C-407.5,267.5-407.5,267.9-407.6,268.1z M-398.4,253.6
				c0,0.1,0,0.1,0,0.2c0,0,0,0-0.1,0C-398.4,253.7-398.4,253.7-398.4,253.6L-398.4,253.6L-398.4,253.6z M-399.2,253L-399.2,253
				C-399.1,253-399.1,253-399.2,253L-399.2,253z M-399,253.5C-399,253.6-399,253.6-399,253.5c-0.1,0.1-0.2,0.2-0.3,0.3
				C-399.2,253.7-399.1,253.6-399,253.5c0-0.1,0-0.2,0-0.3h0.1C-398.8,253.3-398.9,253.4-399,253.5z M-398.7,253.8
				c0.1,0,0.1-0.1,0.1-0.2c0,0,0,0,0-0.1l0.1-0.1c0,0.1,0,0.1,0,0.2l0,0v0.1h-0.1C-398.7,253.8-398.7,253.8-398.7,253.8z
				 M-398.3,253.8L-398.3,253.8c0-0.1,0-0.1,0-0.2s0-0.2,0-0.3c0-0.1,0-0.2,0.1-0.2s0.1,0.1,0.1,0.2c0.1,0.1,0.1,0.2,0.2,0.3l0,0
				c0,0,0,0,0,0.1C-398,253.6-398.1,253.8-398.3,253.8z M-383.5,267.3c-0.1,0,0-0.1-0.1-0.2c0-0.1-0.1-0.1,0-0.2l0.1-0.1l0,0
				C-383.5,267-383.5,267.1-383.5,267.3L-383.5,267.3z"/>
			<path id="XMLID_291_" class="st4" d="M-400.7,263.1v0.2l0,0C-400.6,263.2-400.6,263.1-400.7,263.1z"/>
		</g>
	</g>
</g>
<g id="XMLID_10_">
	<g id="XMLID_161_">
		<g id="XMLID_185_">
			<path id="XMLID_186_" class="st5" d="M-343.2,265.7c-0.1-0.1-0.2-0.2-0.3-0.3c0-0.1-0.1-0.2-0.2-0.2c-0.2-0.1-0.5-0.2-0.8-0.3
				c-0.1,0-0.2,0-0.3,0s0-0.1-0.1-0.1c0-0.1-0.1-0.1-0.1-0.1c-0.1-0.1-0.1-0.2-0.2-0.2c-0.1-0.2-0.2-0.3-0.3-0.5
				c-0.2-0.3-0.4-0.7-0.6-1.1c-0.4-0.7-0.8-1.4-1.2-2c-0.2-0.5-0.4-1.1-0.6-1.6c-0.1-0.2-0.2-0.3-0.2-0.5c-0.1-0.2-0.2-0.4-0.2-0.6
				c-0.1-0.1-0.1-0.3-0.2-0.4c-0.1-0.4-0.3-0.7-0.3-1.2c0.1-0.1,0.2-0.1,0.3-0.2c0.1-0.1,0.2-0.2,0.2-0.3c0-0.1-0.1-0.2-0.1-0.3
				c0-0.3-0.1-0.5-0.1-0.6c-0.1-0.1-0.2-0.2-0.2-0.4c-0.1-0.1-0.2-0.3-0.3-0.4s-0.2-0.2-0.3-0.2c-0.2-0.2-0.4-0.3-0.6-0.4
				c0,0-0.1,0-0.1-0.1s-0.1-0.3-0.2-0.4c-0.2,0-0.3,0-0.3-0.1c-0.1-0.2-0.1-0.4,0-0.7c0.2,0.1,0.1,0.4,0.1,0.6
				c0.1,0,0.2-0.2,0.1-0.3c0-0.1-0.1-0.2-0.1-0.3c-0.1-0.2-0.1-0.2-0.1-0.3s0-0.1,0-0.2c0-0.2-0.2-0.3-0.3-0.4s-0.3-0.2-0.4-0.3
				c-0.1-0.1-0.2-0.2-0.2-0.3c0-0.1,0.2-0.3,0.2-0.5c0.1-0.1,0.2-0.3,0.3-0.4c0.1-0.3,0.3-0.7,0.3-1.1s0-0.8,0-1.1
				c0-0.1,0-0.3,0-0.4c-0.1-0.5-0.2-0.9-0.6-1.2c-0.2-0.2-0.4-0.3-0.6-0.4l0,0c-0.2-0.1-0.5-0.3-0.8-0.3c-0.2,0-0.3,0.1-0.5,0
				c0,0-0.1,0-0.1-0.1c-0.2-0.1-0.4,0-0.6,0c-0.2,0-0.5,0.1-0.7,0.2s-0.4,0.3-0.6,0.5s-0.3,0.4-0.4,0.6c-0.1,0.2-0.1,0.5-0.3,0.8
				s-0.4,0.5-0.4,1c0,0.2,0.2,0.5,0.2,0.8c0.1,0.3,0.1,0.6-0.1,0.7c-0.1,0.1-0.3,0.1-0.4,0.1c-0.3,0.1-0.6,0.4-0.6,0.8
				c0,0.3,0.1,0.5-0.1,0.7c-0.1,0-0.1,0-0.2,0c0.1,0.1,0.2,0,0.3,0c0,0.2-0.1,0.3-0.1,0.5c-0.1,0.2-0.2,0.3-0.2,0.6
				c0,0.2-0.1,0.4-0.2,0.6c0,0.2-0.1,0.3-0.1,0.5c-0.3,0.1-0.6,0.3-0.8,0.5c-0.1,0.1-0.2,0.1-0.2,0.2l-0.1,0.1l-0.1,0.1
				c-0.2,0.2-0.3,0.6-0.5,0.9c0,0.2-0.1,0.4-0.2,0.7c0,0,0,0.1,0,0.2c0.1,0.1,0.1,0.2,0.2,0.2c0,0.1,0.1,0.1,0.1,0.1s0.1,0,0.2,0.1
				c0,0.4-0.2,0.8-0.3,1.1c-0.1,0.4-0.2,0.7-0.3,1.1c-0.1,0.4-0.2,0.7-0.4,1.1c-0.1,0.3-0.3,0.7-0.4,1.1c-0.2,0.3-0.5,0.7-0.7,1
				c-0.1,0.2-0.2,0.3-0.3,0.5s-0.2,0.4-0.3,0.5c-0.1,0.2-0.2,0.4-0.3,0.6c-0.1,0.1-0.1,0.2-0.2,0.3c-0.1,0.1-0.1,0.1-0.2,0.2
				c-0.1,0.1-0.3,0.3-0.4,0.5c-0.1,0.1-0.1,0.1-0.2,0.2c-0.1,0-0.1,0.2-0.2,0.2c-0.2,0-0.4,0-0.5,0.1c-0.2,0.1-0.4,0.2-0.6,0.3
				c-0.1,0.1-0.1,0.2-0.2,0.2c-0.2,0.1-0.5,0.3-0.4,0.6c0.1,0,0.1,0.1,0.2,0c0.1,0,0.1-0.1,0.2-0.1c0.1-0.1,0.2-0.2,0.3-0.2
				s0.2,0,0.2,0.1c0,0.1,0,0.2-0.1,0.3c-0.1,0.1-0.2,0.1-0.3,0.2c0,0.2-0.3,0.4-0.2,0.6c0,0.1,0.1,0.1,0.2,0.1c0.1,0,0.2,0,0.3,0
				s0.1,0.2,0.2,0.2c0.1,0,0.1,0,0.2,0l0.1-0.1c0,0.1,0.1,0.2,0.2,0.2c0.2,0,0.2-0.1,0.3-0.2c0,0.1,0.2,0.1,0.3,0.1
				c0.1-0.1,0.1-0.1,0.2-0.1s0.1-0.1,0.1-0.2c0.1-0.1,0.2-0.2,0.2-0.4c0.1-0.3,0.2-0.6,0.3-0.9c0.2-0.1,0.2-0.2,0.3-0.4
				c0.1-0.1,0.1-0.2,0.2-0.2c0-0.1,0.1-0.1,0.2-0.2c0.3-0.2,0.5-0.5,0.7-0.7c0.2-0.3,0.5-0.5,0.7-0.7c0.2-0.3,0.4-0.5,0.6-0.9
				c0.3-0.4,0.5-1,0.6-1.5c0.1-0.6,0.4-1.1,0.6-1.6c0.2-0.3,0.3-0.7,0.4-1c0.1,0.3,0.1,0.5,0.1,0.8s0.1,0.5,0.1,0.8
				c0,0.5,0,1.1-0.1,1.6c0,0.3-0.1,0.5-0.2,0.7c0,0.1-0.1,0.2-0.1,0.3s-0.1,0.2-0.1,0.3c0.1,0.1,0.3,0.1,0.5,0.2
				c-0.1,0.5-0.3,0.8-0.4,1.3c-0.1,0.5-0.2,1-0.2,1.5c-0.1,0.2-0.1,0.4-0.2,0.7c-0.1,0.2-0.1,0.5-0.2,0.7c0,0.4,0.1,0.8,0.2,1.2
				c0,0.4,0.1,0.8,0.1,1.3c0.1,0.8,0.2,1.7,0.2,2.5c0.1,0.8,0.2,1.7,0.2,2.6c0,0.9,0,1.8-0.1,2.7c0,0.5-0.1,1-0.1,1.5
				c0.1,0.1,0.2,0.3,0.3,0.3c0.1,0.1,0.2,0.1,0.3,0.2c0.1,0.8,0.2,1.6,0.2,2.3c0,0.3,0.1,0.5,0.1,0.8s0,0.6,0,0.9
				c0,0.3,0.1,0.6,0.1,0.8c0,0.3-0.1,0.5-0.1,0.8c0,0.1,0,0.2,0,0.4c-0.1,0.1-0.2,0.1-0.3,0.2c0,0.1-0.1,0.2-0.1,0.2
				c-0.1,0.4-0.3,0.7-0.5,1c-0.1,0.1-0.2,0.3-0.3,0.4c-0.1,0.2-0.2,0.3-0.2,0.5s0.1,0.2,0.1,0.4c0.1,0.1,0.2,0.2,0.3,0.3
				c0.2,0,0.3,0.1,0.5,0.1c0.3,0,0.6,0,0.9-0.1s0.6-0.1,0.8-0.2s0.3-0.3,0.5-0.4c0-0.2,0-0.4,0-0.7c0.1-0.2,0.1-0.5,0.1-0.8
				c0-0.1-0.1-0.1-0.1-0.2c0-0.4-0.1-0.7-0.1-1.1c0-0.1,0.1-0.2,0.1-0.3s0-0.2,0-0.4c0-0.1-0.1-0.2-0.1-0.3c0.1-0.8,0.2-1.6,0.4-2.3
				s0.4-1.4,0.4-2.3c0.2,0,0.3-0.1,0.4-0.2c0-0.1,0.1-0.2,0.1-0.3c0-0.7,0-1.4,0-2s-0.1-1.2-0.1-1.8s0-1.2,0-1.8c0-0.6,0-1.2,0-1.8
				c0-0.3,0-0.6,0-0.9s0-0.6,0-0.9c0-0.2,0-0.3,0-0.5s0.1-0.3,0.2-0.3c0,0.9,0,1.8,0.1,2.7c0.1,1.3,0.1,2.7,0.2,3.9
				c0.1,0.4,0.3,0.7,0.4,1.1c0.3,0.4,0.5,0.8,0.8,1.2c0.1,0.2,0.3,0.4,0.4,0.6c0.2,0.2,0.2,0.4,0.5,0.5c0.1,0,0.2,0,0.4,0
				c0.2,0.5,0.5,1,0.8,1.4s0.6,0.8,0.9,1.3c0.2,0.2,0.3,0.5,0.4,0.7c0.1,0.2,0.2,0.5,0.3,0.8c0.1,0.1,0.1,0.3,0.2,0.4
				s0.1,0.2,0.2,0.4c0.1,0.2,0.2,0.5,0.3,0.8c0,0.1-0.2,0.1-0.1,0.2c0,0.2,0.1,0.5,0.1,0.7c0,0.1,0,0.2,0,0.4c0,0.1,0.1,0.2,0,0.4
				c-0.1,0.1-0.2,0.2-0.2,0.4c0,0.1-0.1,0.1-0.1,0.2c-0.1,0-0.1,0.1-0.1,0.2c0.1,0.2,0.2,0.4,0.4,0.5c0.3,0,0.5-0.1,0.7-0.2
				c0.7-0.2,1.3-0.4,1.9-0.8c0.1-0.2,0.1-0.4,0.2-0.6c-0.1-0.4-0.1-0.8-0.2-1.1c-0.1-0.4-0.1-0.8-0.2-1.2c-0.1-0.1-0.1-0.2-0.2-0.3
				s-0.2-0.2-0.2-0.2c-0.1,0-0.2-0.1-0.3-0.2s-0.2-0.1-0.3-0.2c-0.2,0-0.4-0.1-0.6-0.1c-0.2-0.4-0.3-0.8-0.4-1.2
				c-0.2-0.4-0.3-0.8-0.4-1.2c-0.3-0.8-0.5-1.7-0.8-2.5c0.2-0.2,0.4-0.3,0.5-0.6c0-0.1,0-0.1,0-0.2c-0.1-0.2-0.2-0.4-0.4-0.5
				c-0.1-0.2-0.3-0.3-0.4-0.5c-0.1-0.2-0.3-0.4-0.4-0.5c0-0.1-0.1-0.2-0.2-0.3s-0.2-0.2-0.2-0.2c0-0.1-0.1-0.3-0.1-0.4
				c0.1-1.3,0-2.6,0.1-3.9c0-0.6,0.1-1.2,0.2-1.8c0.1-0.6,0.1-1.2,0.3-1.7c0-0.1,0-0.3,0-0.4c0-0.1-0.1-0.3-0.1-0.4
				c0-0.7-0.1-1.3-0.2-1.9c-0.1-0.6-0.4-1-0.5-1.6c0.2,0,0.4-0.1,0.4-0.2c0-0.1,0-0.2-0.1-0.3c0-0.1-0.1-0.2-0.1-0.3
				c0-0.2-0.1-0.3-0.1-0.5s0-0.3-0.1-0.5c-0.1-0.3-0.1-0.7-0.2-1c0-0.3,0-0.6,0-0.8s0-0.4,0.1-0.5c0.1-0.4,0.1-0.9,0.2-1.3
				c0.1,0.3,0.3,0.6,0.4,0.9s0.3,0.6,0.4,0.9c0.2,0.3,0.3,0.7,0.4,1c0.1,0.4,0.2,0.7,0.3,1c0.1,0.2,0.1,0.3,0.2,0.4
				c0.1,0.3,0.3,0.6,0.5,0.9c0.1,0.1,0.2,0.2,0.3,0.4c0.2,0.2,0.4,0.5,0.7,0.7c0.2,0.3,0.4,0.5,0.6,0.7c0.1,0.1,0.1,0.2,0.2,0.3
				c0,0,0.1,0.1,0.1,0.2c0,0.1,0.1,0.1,0.1,0.2c0,0.1,0,0.3,0.1,0.4c0.1,0.2,0.2,0.4,0.3,0.6c0.1,0.1,0.1,0.2,0.2,0.3
				c0,0.1,0.1,0.2,0.2,0.2s0.2,0,0.3-0.1c0.1,0,0.1,0.2,0.3,0.2c0.1,0,0.1-0.1,0.2-0.2c0.1,0.1,0.2,0.1,0.2,0.1h0.1
				c0.1,0,0.1-0.1,0.1-0.1c0-0.1,0-0.1,0.1-0.2c0.1,0.1,0.4,0.1,0.4-0.1c0-0.3-0.2-0.3-0.2-0.6c-0.1,0-0.1-0.2-0.2-0.2
				c-0.1-0.1-0.1-0.2-0.1-0.3c0.4-0.2,0.4,0.3,0.7,0.2C-343.1,266.1-343.1,265.8-343.2,265.7z M-357.4,253.8c0-0.1,0-0.2,0.1-0.2
				C-357.3,253.7-357.3,253.7-357.4,253.8L-357.4,253.8z M-354.9,251.8l-0.1,0.1c0-0.1,0-0.2-0.1-0.3c0-0.1-0.1-0.2-0.1-0.2
				c0-0.2,0.2-0.4,0-0.5c0,0-0.1-0.1-0.2-0.1c-0.1-0.1-0.3-0.4,0-0.4c0-0.1,0-0.1,0-0.1c0.2-0.1,0.3,0.1,0.4,0.2l0,0
				c0.1,0.1,0.1,0.3,0.2,0.4C-354.8,251.1-354.9,251.5-354.9,251.8z M-352.3,251.4c0.1-0.1,0.2-0.2,0.3-0.3l0,0
				c0,0.6-0.5,0.9-0.6,1.3v-0.1C-352.5,252-352.4,251.7-352.3,251.4z"/>
		</g>
	</g>
</g>
</svg>
